<?xml version="1.0" encoding="utf-8"?>
<!-- Generator: Adobe Illustrator 18.0.0, SVG Export Plug-In . SVG Version: 6.00 Build 0)  -->
<!DOCTYPE svg PUBLIC "-//W3C//DTD SVG 1.1//EN" "http://www.w3.org/Graphics/SVG/1.1/DTD/svg11.dtd">
<svg version="1.1" xmlns="http://www.w3.org/2000/svg" xmlns:xlink="http://www.w3.org/1999/xlink" x="0px" y="0px"
	 viewBox="0 0 1600 900" enable-background="new 0 0 1600 900" xml:space="preserve">
<g id="Background">
	<rect x="0" y="0" fill="#FAA628" width="1600" height="900"/>
</g>
<g id="Artwork">
	<g>
		<g>
			<defs>
				<rect id="SVGID_14_" x="0" y="0" width="1600" height="900"/>
			</defs>
			<clipPath id="SVGID_2_">
				<use xlink:href="#SVGID_14_"  overflow="visible"/>
			</clipPath>
			<g clip-path="url(#SVGID_2_)">
				<g>
					<polygon fill="#FFFFFF" points="977.1,451 1125.2,302.8 1041.7,219.3 982.3,219.3 863.8,337.7 					"/>
					<polygon fill="#E0E0E0" points="1041.7,219.3 982.3,219.3 1012,249 					"/>
					<g>
						<polygon fill="#80DEEA" points="991.4,318.1 923.8,318.1 991.4,385.8 						"/>
						<polygon fill="#80DEEA" points="1056.7,348.1 953.8,348.1 1005.2,399.6 						"/>
					</g>
				</g>
				<g>
					<polygon fill="#FFFFFF" points="625.7,144.5 461.1,309.1 553.9,401.9 619.9,401.9 751.5,270.3 					"/>
					<g>
						<g>
							<g>
								
									<rect x="306.7" y="-36.1" transform="matrix(0.7071 -0.7071 0.7071 0.7071 86.0678 363.0775)" fill="#FFFFFF" width="349.2" height="227.4"/>
							</g>
							<path fill="#D3D3D3" d="M492.7-149.3L254.8,88.6c-2.5,2.5-2.5,6.5,0,9l26,26l246.9-246.9l-26-26
								C499.2-151.8,495.2-151.8,492.7-149.3z"/>
							<circle fill="#FFFFFF" cx="282.7" cy="89.3" r="5.9"/>
							<circle fill="#FFFFFF" cx="295.7" cy="76.3" r="5.9"/>
							<circle fill="#FFFFFF" cx="308.3" cy="63.7" r="5.9"/>
						</g>
					</g>
					
						<rect x="147.9" y="-116.2" transform="matrix(-0.7071 0.7071 -0.7071 -0.7071 362.225 -223.4013)" fill="#FFFFFF" width="159" height="159"/>
					<g>
						<path fill="#80DEEA" d="M481.1,118c-19.1-0.1-34.5-15.7-34.4-34.8c0.1-19.1,15.7-34.5,34.8-34.4c9.4,0.1,17.9,3.9,24.1,10
							l34.8-35.1C525.4,8.7,504.7-0.6,481.8-0.8c-46.4-0.3-84.3,37.1-84.6,83.6c-0.3,46.4,37.1,84.3,83.6,84.6L481.1,118z"/>
						<path fill="#80DEEA" d="M481.1,118l-0.3,49.5c16.9,0.1,32.7-4.8,46-13.4L500,112.5C494.6,116,488.1,118,481.1,118z"/>
						<path fill="#00BCD4" d="M515.9,83.6c0,4.6-1,9.1-2.7,13.1l45.7,19.1c4.1-9.8,6.4-20.6,6.5-31.8c0.1-23.5-9.4-44.9-24.9-60.2
							l-34.8,35.1C512.1,65.1,516,73.9,515.9,83.6z"/>
						<path fill="#00BCD4" d="M500,112.5l26.7,41.6c14.2-9.2,25.5-22.5,32.2-38.4l-45.7-19.1C510.5,103.2,505.9,108.7,500,112.5z"/>
					</g>
					<circle fill="#FFFFFF" cx="480.8" cy="83.3" r="54.8"/>
					<circle fill="#FFD600" cx="480.8" cy="83.3" r="23.8"/>
					<polygon fill="#E0E0E0" points="553.9,401.9 619.9,401.9 586.9,368.9 					"/>
				</g>
				<g>
					<g>
						<g>
							
								<rect x="678.5" y="361.2" transform="matrix(0.7071 -0.7071 0.7071 0.7071 -104.3811 700.8772)" fill="#FFFFFF" width="230.7" height="230.6"/>
						</g>
						<path fill="#D3D3D3" d="M769.4,295.5L613.2,451.7c-1.9,1.9-1.9,5,0,6.9l20.1,20.1l163.1-163.1l-20.1-20.1
							C774.5,293.6,771.3,293.6,769.4,295.5z"/>
						<circle fill="#FFFFFF" cx="634.8" cy="452.2" r="4.6"/>
						<circle fill="#FFFFFF" cx="644.9" cy="442.2" r="4.6"/>
						<circle fill="#FFFFFF" cx="654.6" cy="432.5" r="4.6"/>
					</g>
					<g>
						<path fill="#80DEEA" d="M820,473.5c-0.1,16.1-13.2,29-29.3,28.9c-16.1-0.1-29-13.2-28.9-29.3c0.1-7.9,3.3-15.1,8.4-20.3
							l-29.6-29.3c-12.6,12.7-20.4,30.1-20.5,49.4c-0.2,39.1,31.2,70.9,70.3,71.2s70.9-31.2,71.2-70.3L820,473.5z"/>
						<path fill="#00BCD4" d="M820,473.5l41.6,0.3c0.1-14.3-4.1-27.5-11.2-38.7l-35,22.5C818.4,462.2,820.1,467.7,820,473.5z"/>
						<path fill="#FFD600" d="M791.1,444.2c3.9,0,7.6,0.8,11,2.2l16-38.4c-8.3-3.4-17.3-5.4-26.8-5.5c-19.8-0.1-37.8,7.9-50.7,20.9
							l29.6,29.3C775.5,447.5,782.9,444.2,791.1,444.2z"/>
						<path fill="#FFD600" d="M815.4,457.6l35-22.5c-7.7-12-19-21.5-32.3-27.1l-16,38.4C807.6,448.8,812.2,452.7,815.4,457.6z"/>
					</g>
				</g>
				<g>
					<polygon fill="#FFFFFF" points="991.8,168.3 796.7,-26.8 686.7,83.2 686.7,161.5 842.7,317.4 					"/>
					<polygon fill="#E0E0E0" points="686.7,83.2 686.7,161.5 725.8,122.4 					"/>
					<polygon fill="#80DEEA" points="848.3,159.2 768.5,159.2 768.5,222.5 786,240 786,176.8 865.8,176.8 865.8,63.1 848.3,45.5 
											"/>
					<circle fill="#FFD600" cx="791.4" cy="102.4" r="30"/>
				</g>
				<g>
					<polygon fill="#FFFFFF" points="1386.9,-153.7 1258.5,-25.3 1330.9,47.1 1382.4,47.1 1485.1,-55.5 					"/>
					<polygon fill="#E0E0E0" points="1330.9,47.1 1382.4,47.1 1356.7,21.4 					"/>
				</g>
				<g>
					<g>
						<g>
							
								<rect x="931.6" y="-39" transform="matrix(0.7071 0.7071 -0.7071 0.7071 376.8221 -760.2822)" fill="#FFFFFF" width="349.2" height="227.4"/>
						</g>
						<path fill="#D3D3D3" d="M1333.1,86.1l-237.9-237.9c-2.5-2.5-6.5-2.5-9,0l-26,26L1307,121.1l26-26
							C1335.6,92.6,1335.6,88.6,1333.1,86.1z"/>
					</g>
					<g>
						
							<rect x="966.8" y="61.7" transform="matrix(0.7071 -0.7071 0.7071 0.7071 230.0985 728.2097)" fill="#FFD600" width="54.5" height="49.2"/>
						
							<rect x="1004.5" y="87.1" transform="matrix(0.7071 -0.7071 0.7071 0.7071 231.896 783.2181)" fill="#80DEEA" width="113.8" height="49.2"/>
						
							<rect x="1042.1" y="112.4" transform="matrix(0.7071 -0.7071 0.7071 0.7071 233.6932 838.2268)" fill="#00BCD4" width="173.2" height="49.2"/>
					</g>
				</g>
				
					<rect x="828.5" y="-101.9" transform="matrix(-0.7071 0.7071 -0.7071 -0.7071 1463.5718 -709.594)" fill="#FFFFFF" width="100.5" height="100.5"/>
				<g>
					
						<rect x="591.7" y="329.8" transform="matrix(-0.7071 -0.7071 0.7071 -0.7071 793.9717 1017.5092)" fill="#FFD600" width="32.1" height="28.9"/>
					
						<rect x="589.1" y="290.3" transform="matrix(-0.7071 -0.7071 0.7071 -0.7071 847.407 960.4641)" fill="#FFD600" width="67" height="28.9"/>
					
						<rect x="586.6" y="250.7" transform="matrix(-0.7071 -0.7071 0.7071 -0.7071 900.8422 903.4189)" fill="#FFD600" width="101.9" height="28.9"/>
				</g>
				<circle fill="#FFFFFF" cx="791" cy="473.3" r="42.6"/>
			</g>
		</g>
		<g>
			<path fill="#00BCD4" d="M1003,675.1H597v-93.5c0-27.8,22.5-50.3,50.3-50.3h305.2c27.8,0,50.3,22.5,50.3,50.3V675.1z"/>
			<rect x="597" y="690.2" fill="#00BCD4" width="405.9" height="143.8"/>
			<circle fill="#FFFFFF" cx="646.6" cy="603.2" r="15.3"/>
			<path fill="#F6BE1A" d="M918.2,610.6H703.6c-4.1,0-7.4-3.3-7.4-7.4l0,0c0-4.1,3.3-7.4,7.4-7.4h214.6c4.1,0,7.4,3.3,7.4,7.4l0,0
				C925.6,607.3,922.3,610.6,918.2,610.6z"/>
			<circle fill="#FFFFFF" cx="646.6" cy="762.1" r="15.3"/>
			<path fill="#F6BE1A" d="M918.2,769.4H703.6c-4.1,0-7.4-3.3-7.4-7.4l0,0c0-4.1,3.3-7.4,7.4-7.4h214.6c4.1,0,7.4,3.3,7.4,7.4l0,0
				C925.6,766.1,922.3,769.4,918.2,769.4z"/>
			<rect x="597" y="849.1" fill="#00BCD4" width="405.9" height="50.9"/>
		</g>
	</g>
</g>
</svg>
