<svg width="73" height="18" viewBox="0 0 73 18" fill="none" xmlns="http://www.w3.org/2000/svg">
<path fill-rule="evenodd" clip-rule="evenodd" d="M41.5359 0C41.5264 1.78678 41.5169 3.57288 41.5088 5.35898C41.5067 5.75199 41.514 5.76094 41.8833 5.59506C42.9258 5.12565 44.0332 5.01415 45.1552 5.14079C46.3034 5.27019 47.2488 5.81669 47.9992 6.64125C48.8372 7.56218 49.3095 8.63727 49.4607 9.83971C49.5548 10.5934 49.5833 11.3512 49.4891 12.1042C49.246 14.0486 48.4664 15.7245 46.6947 16.8753C45.783 17.4673 44.7653 17.8018 43.6696 17.9339C43.6222 17.9401 43.5477 17.9133 43.5426 17.9993C43.2754 17.9993 43.0075 17.9993 42.7389 17.9993C42.7272 17.9718 42.7148 17.9759 42.7031 17.9993C42.0578 17.9993 41.4125 17.9993 40.7686 17.9993C40.7672 17.9091 40.6891 17.9415 40.6445 17.9367C39.6809 17.8224 38.7254 17.6641 37.7742 17.479C37.6187 17.448 37.626 17.3675 37.6275 17.2601C37.6735 14.5999 37.71 11.9397 37.7143 9.27876C37.7173 7.59934 37.7027 5.91924 37.6567 4.24052C37.6413 3.67062 37.653 3.09659 37.4523 2.54046C37.2829 2.06829 36.9822 1.7627 36.4463 1.68905C36.3624 1.67666 36.2806 1.65395 36.1981 1.63536C35.8886 1.56309 35.7821 1.37244 35.8755 1.07854C35.9032 0.99113 35.9777 0.984936 36.0441 0.972546C36.6624 0.854162 37.28 0.735776 37.8998 0.624962C38.9181 0.441879 39.9386 0.266367 40.957 0.0798417C41.0271 0.0667643 41.1409 0.123891 41.1701 0.000687906C41.2066 0.000687906 41.2439 0.000687906 41.2789 0.000687906C41.2709 0.0158301 41.2745 0.0295968 41.2935 0.027532C41.3023 0.0268437 41.3088 0.0103239 41.3161 0.000687906C41.3899 -3.78118e-07 41.4629 0 41.5359 0ZM41.4986 11.6822C41.514 11.6822 41.5286 11.6816 41.5432 11.6816C41.5432 12.8344 41.5366 13.9873 41.5461 15.1388C41.5505 15.6708 41.5877 16.2043 41.6059 16.737C41.6103 16.8836 41.6833 16.9573 41.8381 16.9662C41.8979 16.9696 41.9585 16.9793 42.0191 16.9855C42.8221 17.0722 43.49 16.8347 44.0149 16.2511C44.3697 15.8581 44.6245 15.41 44.8208 14.9316C45.5223 13.2212 45.6129 11.4496 45.3552 9.65594C45.2544 8.95664 45.0245 8.28143 44.6164 7.6785C44.1346 6.9675 43.5025 6.48432 42.5396 6.54833C42.2534 6.56692 41.976 6.61716 41.7001 6.69081C41.5614 6.72729 41.5256 6.78786 41.5227 6.91656C41.4811 8.50581 41.5037 10.0944 41.4986 11.6822ZM0 1.17008C0.429236 1.19417 0.854821 1.23822 1.26727 1.36005C1.89871 1.54864 2.16735 2.02493 2.33306 2.57281C2.51774 3.184 2.56081 3.81516 2.58636 4.44425C2.69294 7.08657 2.67104 9.73027 2.62067 12.374C2.60461 13.2268 2.57395 14.0816 2.44256 14.9289C2.39438 15.24 2.32722 15.5483 2.19217 15.8388C1.96952 16.3178 1.6016 16.6276 1.04681 16.7246C0.808102 16.7666 0.572314 16.823 0.332147 16.8561C0.210238 16.8719 0.121909 16.9607 0 16.9662C0 17.0116 0 17.0577 0 17.1032C0.00437996 17.1114 0.00948991 17.119 0.0124099 17.1279C0.0131399 17.13 0.00437996 17.1348 0 17.1383C0 17.2876 0 17.437 0 17.5857C0.0715393 17.6861 0.182498 17.6765 0.289077 17.6772C1.52349 17.6827 2.75864 17.6903 3.99379 17.6903C5.76986 17.6903 7.54593 17.6841 9.32201 17.6827C9.47896 17.6827 9.58918 17.66 9.60305 17.4776C9.63444 17.0749 9.58845 16.9325 9.37749 16.8919C9.11615 16.8423 8.85408 16.7852 8.58909 16.7597C7.82844 16.6874 7.38169 16.2793 7.1678 15.611C7.12035 15.463 7.07801 15.3136 7.04589 15.1629C6.91157 14.5317 6.88748 13.8896 6.84952 13.2495C6.77871 12.0691 6.76849 10.888 6.76557 9.70687C6.76557 9.59055 6.8101 9.56233 6.92544 9.56646C7.59995 9.5878 8.27447 9.60707 8.94606 9.67314C9.38041 9.7165 9.73007 9.89683 9.99798 10.2238C10.1484 10.4055 10.2703 10.6023 10.3717 10.8116C10.5353 11.1468 10.625 11.5026 10.7126 11.8591C10.736 11.9534 10.7762 11.9933 10.8813 11.9927C11.0389 11.992 11.1974 12.0085 11.355 12.0099C11.6332 12.0126 11.6025 12.045 11.6025 11.7875C11.6032 9.95809 11.6032 8.12863 11.6032 6.29849C11.6032 6.26407 11.6003 6.22897 11.6032 6.19593C11.6113 6.11403 11.5718 6.08305 11.4864 6.08581C11.3222 6.09131 11.1572 6.10026 10.9937 6.09131C10.8105 6.07892 10.7287 6.14362 10.6886 6.31845C10.5827 6.77753 10.4469 7.22973 10.1754 7.63169C9.87607 8.07426 9.47165 8.37366 8.9008 8.42804C8.26498 8.4893 7.62696 8.49962 6.98822 8.50788C6.81594 8.51063 6.76338 8.47209 6.76338 8.30208C6.75827 6.38039 6.80353 4.46008 6.8685 2.53908C6.87726 2.29336 6.90938 2.04833 6.92398 1.80262C6.92982 1.70694 6.97216 1.6801 7.07071 1.68079C8.0197 1.68698 8.96869 1.68698 9.91768 1.69249C10.901 1.69868 11.7449 2.02355 12.4303 2.69532C12.8004 3.05667 13.0785 3.48065 13.3216 3.92528C13.5523 4.34858 13.7246 4.79527 13.9151 5.2344C14.0246 5.48769 14.083 5.51109 14.3604 5.44364C14.5188 5.40441 14.6736 5.35278 14.8327 5.31768C14.9342 5.29497 14.9678 5.24885 14.9641 5.15112C14.9174 3.60936 14.9327 2.06623 14.8597 0.524473C14.8532 0.375115 14.8057 0.318676 14.6334 0.318676C10.2294 0.318676 5.82534 0.313169 1.4213 0.311104C0.947531 0.311104 0.472305 0.295274 0 0.344142C0 0.619455 0 0.89477 0 1.17008ZM18.2133 17.9986C18.2038 17.9023 18.1206 17.9401 18.0688 17.9319C16.7687 17.7323 15.6452 17.2154 14.7356 16.3041C13.9465 15.5132 13.4895 14.5634 13.2384 13.5193C12.8793 12.0271 12.869 10.528 13.3837 9.07365C14.1633 6.87045 15.7627 5.48012 18.2104 5.03617C19.5229 4.79734 20.8282 4.8758 22.0889 5.31218C23.8036 5.90754 24.884 7.08382 25.4738 8.68683C25.8928 9.82594 25.9731 10.9995 25.8877 12.1964C25.8082 13.3176 25.4702 14.3569 24.8402 15.3054C23.8985 16.7246 22.5247 17.5567 20.799 17.894C20.7041 17.9126 20.607 17.9208 20.5121 17.9394C20.4807 17.9456 20.4201 17.9319 20.4398 17.9986C20.2208 17.9986 20.0018 17.9986 19.7828 17.9986C19.7704 17.9704 19.758 17.9745 19.7463 17.9986C19.2353 17.9986 18.7236 17.9986 18.2133 17.9986ZM21.8582 11.6657C21.872 11.2514 21.8436 10.8391 21.8202 10.4275C21.7742 9.61395 21.6742 8.80728 21.4253 8.02333C21.2136 7.35569 20.9026 6.74312 20.3485 6.25925C19.9595 5.91993 19.5069 5.82082 18.9981 5.91511C18.4856 6.00941 18.1549 6.32808 17.9075 6.73279C17.4132 7.54084 17.2585 8.44043 17.1592 9.34827C17.0672 10.1928 17.0738 11.0428 17.0826 11.8915C17.0935 12.9267 17.2008 13.9494 17.5198 14.9454C17.7104 15.5415 17.952 16.1155 18.4184 16.5753C19.0689 17.2154 19.9806 17.225 20.6537 16.6117C21.1523 16.1568 21.3698 15.571 21.5297 14.9605C21.8144 13.8779 21.8355 12.7704 21.8582 11.6657ZM55.9897 17.9986C56.0153 17.9195 55.9437 17.9394 55.9094 17.9339C53.0873 17.5333 51.0885 15.5655 50.6476 12.8723C50.3571 11.0931 50.5586 9.34896 51.566 7.75696C52.5368 6.22277 53.9698 5.32456 55.8306 5.01759C56.754 4.86548 57.6723 4.87787 58.5783 5.10363C59.8083 5.41129 60.7383 6.10233 61.3654 7.14301C62.0472 8.27248 62.2852 9.50589 62.2771 10.7923C62.2764 10.9251 62.2246 10.9499 62.0954 10.9499C59.6324 10.9568 57.1694 10.9685 54.7071 10.974C54.5443 10.9747 54.4918 11.005 54.4983 11.1695C54.5363 12.1276 54.6626 13.0698 55.1363 13.9316C55.8006 15.1361 56.8102 15.9035 58.2855 16.0405C59.0747 16.1134 59.8506 16.0769 60.5967 15.7947C60.9201 15.6722 61.2084 15.4898 61.5048 15.3226C61.6457 15.2434 61.7669 15.1973 61.9012 15.3494C62.0924 15.5655 62.1297 15.6764 61.9997 15.8484C61.7391 16.1919 61.4041 16.4665 61.0588 16.7315C60.1879 17.3978 59.1812 17.766 58.0833 17.9346C58.0476 17.9401 57.9782 17.9202 57.9979 17.9979C57.5234 17.9979 57.0489 17.9979 56.5752 17.9979C56.562 17.967 56.5511 17.9835 56.5379 17.9979C56.4533 17.9979 56.3686 17.9979 56.2824 17.9979C56.2708 17.9897 56.2598 17.9828 56.2481 17.9745C56.2467 17.9828 56.2467 17.9897 56.2452 17.9979C56.1613 17.9986 56.0751 17.9986 55.9897 17.9986ZM56.4102 9.88513C56.4102 9.87068 56.4102 9.85623 56.4102 9.84177C56.981 9.84177 57.5519 9.83489 58.1235 9.84521C58.2994 9.84865 58.3439 9.79084 58.3235 9.63873C58.3038 9.48524 58.2979 9.33107 58.2892 9.1762C58.2563 8.52921 58.1797 7.88705 57.9943 7.26208C57.8935 6.92483 57.7629 6.59789 57.5351 6.31501C57.157 5.84353 56.6029 5.75061 56.07 6.06585C55.8393 6.20144 55.6532 6.38246 55.5072 6.59582C54.8414 7.56768 54.6181 8.66068 54.5283 9.79015C54.5195 9.90441 54.575 9.92024 54.6786 9.91817C55.2553 9.90303 55.8335 9.92092 56.4102 9.88513ZM68.6923 17.9986C68.72 17.8981 68.8113 17.9429 68.8734 17.9325C70.2275 17.7075 71.4298 17.2257 72.2612 16.1313C72.5934 15.6936 72.8058 15.2035 72.9277 14.6797C72.9372 14.6405 72.9343 14.5992 72.9737 14.573C72.9752 14.5717 72.9825 14.5765 72.9869 14.5799C72.9912 14.5834 72.9956 14.5882 73 14.5923C73 14.1105 73 13.6294 73 13.1462C72.9891 13.1393 72.9715 13.1338 72.9701 13.1263C72.9686 13.1091 72.9832 13.1049 73 13.1125C73 13.0774 73 13.043 73 13.0093C72.9416 12.9673 72.9431 12.9673 72.9263 12.8991C72.8102 12.3974 72.5803 11.9479 72.2182 11.5625C71.6824 10.9905 70.9838 10.6436 70.264 10.3291C69.5544 10.0193 68.8179 9.76468 68.1346 9.39921C67.7353 9.18584 67.3608 8.94425 67.0688 8.60355C66.7337 8.21329 66.7286 7.76453 66.7936 7.29787C66.8936 6.57655 67.609 5.96329 68.3806 5.95503C69.2821 5.9454 70.0005 6.2978 70.5545 6.95786C70.9706 7.45411 71.232 8.02677 71.4685 8.61112C71.6656 9.09636 71.6918 9.10256 72.2087 8.92222C72.3153 8.88506 72.3445 8.83619 72.3415 8.7357C72.3123 7.75008 72.2831 6.76445 72.2649 5.77814C72.262 5.61984 72.1955 5.55239 72.0437 5.49663C71.2327 5.19998 70.3866 5.06577 69.5274 4.97698C68.5405 4.87512 67.563 4.89783 66.5958 5.12909C64.7321 5.57441 63.3809 7.00398 63.2699 8.62282C63.1736 10.0338 63.6824 11.1591 64.973 11.9293C65.5307 12.2618 66.1505 12.469 66.7578 12.7009C67.3769 12.9377 67.9966 13.1724 68.5514 13.531C68.842 13.7182 69.0916 13.9426 69.2303 14.2557C69.6552 15.2276 69.0449 16.4204 67.9572 16.6503C66.8082 16.8939 65.8198 16.5849 65.0438 15.73C64.5146 15.1471 64.1678 14.4684 63.8656 13.7657C63.6984 13.3775 63.6605 13.361 63.2283 13.4911C63.1991 13.5 63.1714 13.5131 63.1429 13.5206C63.0407 13.5489 63.0035 13.6074 63.0057 13.7106C63.04 14.8057 63.067 15.9007 63.0991 16.9951C63.1071 17.2807 63.1115 17.2849 63.405 17.3826C64.2445 17.6621 65.1161 17.8087 65.9928 17.9332C66.0454 17.9408 66.1271 17.9057 66.1381 18C66.9885 17.9986 67.8411 17.9986 68.6923 17.9986ZM41.2804 0C41.2723 0.0151422 41.276 0.0289089 41.295 0.0268441C41.3037 0.0261558 41.3103 0.00963597 41.3176 0C41.3052 0 41.2928 0 41.2804 0ZM72.9993 13.1118C72.9825 13.1035 72.9679 13.1077 72.9693 13.1256C72.9708 13.1338 72.9883 13.1393 72.9993 13.1455C72.9993 13.1352 72.9993 13.1228 72.9993 13.1118ZM0 17.1383C0.00437996 17.1348 0.0131399 17.13 0.0124099 17.1279C0.00948991 17.1197 0.00364996 17.1114 0 17.1032C0 17.1156 0 17.1266 0 17.1383ZM19.7828 17.9986C19.7704 17.9704 19.758 17.9745 19.7463 17.9986C19.758 17.9986 19.7704 17.9986 19.7828 17.9986ZM42.7403 17.9986C42.7287 17.9711 42.7163 17.9752 42.7046 17.9986C42.7163 17.9986 42.7287 17.9986 42.7403 17.9986ZM56.2824 17.9986C56.2708 17.9904 56.2598 17.9835 56.2481 17.9752C56.2467 17.9835 56.2467 17.9904 56.2452 17.9986C56.2576 17.9986 56.27 17.9986 56.2824 17.9986ZM56.5744 17.9986C56.5613 17.9677 56.5503 17.9842 56.5372 17.9986C56.5503 17.9986 56.5613 17.9986 56.5744 17.9986ZM31.5488 7.45756C31.5795 6.69081 31.6094 5.92337 31.6401 5.15662C31.6488 4.93775 31.635 4.92329 31.416 4.96184C29.6925 5.26193 27.9748 5.59231 26.2593 5.92681C25.8782 6.00046 25.8629 6.02661 25.879 6.39485C25.8797 6.40655 25.8797 6.41756 25.8797 6.42926C25.8819 6.53801 25.9374 6.59238 26.0549 6.61028C26.2462 6.6385 26.4352 6.68392 26.6265 6.71077C27.12 6.78166 27.3944 7.06868 27.5244 7.5023C27.6536 7.9311 27.6784 8.37297 27.6945 8.8121C27.7478 10.3022 27.7529 11.7931 27.7178 13.2839C27.6996 14.0857 27.6959 14.8883 27.5952 15.6867C27.5171 16.3041 27.1754 16.6902 26.5579 16.8175C26.3863 16.8533 26.2111 16.876 26.0396 16.9104C25.979 16.9221 25.9067 16.9249 25.9067 17.0185C25.9067 17.1672 25.8899 17.3158 25.8877 17.4645C25.8863 17.5939 25.9301 17.6841 26.1002 17.6682C26.1958 17.6593 26.2943 17.6772 26.3914 17.6772C28.0638 17.6813 29.7363 17.6855 31.4087 17.6868C32.1387 17.6875 32.8687 17.6799 33.5979 17.6834C33.7337 17.6841 33.7833 17.6455 33.7804 17.5196C33.7768 17.3709 33.7884 17.2215 33.7936 17.0729C33.7965 16.9641 33.7519 16.9098 33.6249 16.9008C33.3709 16.885 33.1176 16.854 32.8643 16.8258C32.5139 16.7879 32.1781 16.7198 31.9613 16.4156C31.8372 16.2421 31.7649 16.0494 31.7204 15.8457C31.5853 15.231 31.5729 14.6047 31.5474 13.9825C31.4787 12.332 31.489 10.6808 31.5364 9.0296C31.5452 8.72813 31.6824 8.5361 31.9598 8.40808C32.5942 8.11349 33.2577 8.0481 33.9468 8.17337C34.4038 8.25665 34.8192 8.44937 35.2382 8.63108C35.3886 8.69716 35.4725 8.6827 35.5404 8.52302C35.9609 7.52983 36.3675 6.53113 36.7391 5.52072C36.8223 5.29428 36.7953 5.23646 36.5719 5.1284C36.5237 5.105 36.4741 5.0816 36.4223 5.06508C35.6382 4.83451 34.8557 4.81868 34.0848 5.10844C33.1431 5.46222 32.4635 6.09888 31.9416 6.90142C31.8197 7.08932 31.705 7.28204 31.5868 7.4727C31.5729 7.46651 31.5605 7.46169 31.5488 7.45756Z" fill="white"/>
</svg>
