<svg width="67" height="19" viewBox="0 0 67 19" fill="none" xmlns="http://www.w3.org/2000/svg">
<path fill-rule="evenodd" clip-rule="evenodd" d="M58.0689 17.6321H54.0569V0H58.0689V6.07105L60.1275 0H64.1399L61.7113 7.07376L64.562 17.6321H60.3914L58.0689 9.23814V17.6321ZM53.2119 13.6201H48.9889V9.81915H53.2119V6.44027H48.9889V3.37851H53.2119V0H44.9769V17.6321H53.2119V13.6201ZM44.132 13.6201H39.909V9.81915H44.132V6.44027H39.909V3.37851H44.132V0H35.8966V17.6321H44.132V13.6201ZM14.2532 3.37851V13.6201H15.5712C15.8937 13.6199 16.2029 13.4917 16.4309 13.2636C16.659 13.0355 16.7871 12.7262 16.7872 12.4037V4.59492C16.7872 4.27241 16.6591 3.96311 16.431 3.73506C16.203 3.50701 15.8937 3.37889 15.5712 3.37889L14.2532 3.37851ZM5.59573 6.07105L4.85653 11.0861H6.33494L5.59573 6.07105ZM6.86272 14.8871H4.32875L3.90629 17.6321H0L2.53397 0H8.60464L10.2412 11.1386V0H17.4545C18.3416 0.000100827 19.1922 0.352517 19.8195 0.979742C20.4467 1.60697 20.7991 2.45764 20.7992 3.34467V14.2871C20.7991 15.1741 20.4467 16.0248 19.8195 16.6521C19.1923 17.2794 18.3416 17.6319 17.4545 17.6321H7.2848L6.86272 14.8871Z" fill="white"/>
<path fill-rule="evenodd" clip-rule="evenodd" d="M20.0078 0L22.7 17.6321H26.923L28.3486 7.54907L29.8266 17.6321H33.9964L36.7418 0H32.7302L31.3046 8.23504L30.1433 0H26.5538L25.3921 8.28827L23.967 0H20.0078ZM65.754 17.7219H66.0315C66.1517 17.7219 66.2863 17.7663 66.2863 17.9215C66.2863 18.0968 66.1201 18.1124 65.9677 18.1124H65.754V18.1873H66.0156L66.3186 18.6516H66.4145L66.1141 18.1903C66.2574 18.1671 66.3734 18.0877 66.3734 17.9238C66.3734 17.7416 66.2734 17.6462 66.0456 17.6462H65.6676V18.6519H65.754V17.7219Z" fill="white"/>
<path fill-rule="evenodd" clip-rule="evenodd" d="M65.976 17.2988C66.4467 17.2988 66.827 17.6783 66.827 18.1491C66.827 18.6206 66.4467 19.0001 65.976 19.0001C65.8642 19.0003 65.7534 18.9784 65.6501 18.9357C65.5468 18.893 65.4529 18.8303 65.3738 18.7513C65.2947 18.6722 65.2321 18.5783 65.1894 18.475C65.1467 18.3716 65.1248 18.2609 65.125 18.1491C65.1248 18.0373 65.1467 17.9266 65.1894 17.8233C65.2321 17.72 65.2948 17.6261 65.3738 17.5471C65.4529 17.4681 65.5468 17.4055 65.6502 17.3629C65.7535 17.3203 65.8642 17.2985 65.976 17.2988L65.9783 17.373C65.5391 17.373 65.2113 17.7103 65.2113 18.1491C65.2113 18.5799 65.5437 18.9252 65.9783 18.9252C66.4133 18.9252 66.7403 18.5768 66.7403 18.1468C66.7403 17.7122 66.4152 17.373 65.9783 17.373L65.976 17.2988Z" fill="white"/>
</svg>
