<svg width="144" height="31" viewBox="0 0 144 31" fill="none" xmlns="http://www.w3.org/2000/svg">
<path d="M111.42 1.35352V28.719H141.603V1.35352H111.42ZM74.7198 1.42478V28.7903H104.825V1.42478H74.7198ZM38.3299 1.49604V28.8616H68.435V1.49604H38.3299ZM1.8623 1.63857V28.9328H31.9674V1.63857H1.8623Z" fill="white"/>
<path d="M0 0V31H33.7519V0H0ZM36.4675 0V31H70.2194V0H36.4675ZM72.8575 0V31H106.609V0H72.8575ZM109.325 0V31H143.077V0H109.325ZM126.162 3.13563C133.586 3.13559 139.585 8.71706 139.585 15.5356C139.585 22.3513 133.586 27.8644 126.162 27.8644C118.738 27.8644 112.739 22.3514 112.739 15.5356C112.739 8.71701 118.738 3.13563 126.162 3.13563ZM4.96579 4.56092H28.8637V8.4092H18.9321V22.5908H28.8637V26.3678H4.8882V22.5908H14.7422V8.4092H4.96579V4.56092ZM41.2782 4.56092H44.4594H53.3047C59.9495 4.56097 65.3312 9.50667 65.3312 15.6069C65.3312 21.71 59.9495 26.4391 53.3047 26.4391H44.4594H41.2782V4.56092ZM77.8233 4.56092H101.721V8.4092H81.9356V13.5402H97.5313V17.4598H81.9356V22.6621H101.721V26.4391H77.8233V4.56092ZM126.162 7.41149C121.302 7.41145 117.394 11.0716 117.394 15.5356C117.394 19.9997 121.302 23.5885 126.162 23.5885C131.022 23.5885 134.93 19.9996 134.93 15.5356C134.93 11.0717 131.022 7.41149 126.162 7.41149ZM53.3047 8.33793L47.4854 8.4092H45.3905V22.5908H47.4854H53.3047C57.6497 22.5908 61.2189 19.5264 61.2189 15.5356C61.2189 11.5448 57.6498 8.33793 53.3047 8.33793Z" fill="black"/>
</svg>
