<svg width="24" height="30" viewBox="0 0 24 30" fill="none" xmlns="http://www.w3.org/2000/svg">
<path fill-rule="evenodd" clip-rule="evenodd" d="M12 0.33374C12.7364 0.33374 13.3333 0.9307 13.3333 1.66707V25.1148L21.7237 16.7243C22.2445 16.2036 23.0888 16.2036 23.6096 16.7243C24.1301 17.245 24.1301 18.0892 23.6096 18.6099L12.9428 29.2767C12.6928 29.5265 12.3536 29.6671 12 29.6671C11.6464 29.6671 11.3072 29.5265 11.0572 29.2767L0.39054 18.6099C-0.13018 18.0892 -0.13018 17.245 0.39054 16.7243C0.911233 16.2036 1.75545 16.2036 2.27614 16.7243L10.6667 25.1148V1.66707C10.6667 0.9307 11.2636 0.33374 12 0.33374Z" fill="#804EEB"/>
</svg>
