<svg width="1173" height="1173" viewBox="0 0 1173 1173" fill="none" xmlns="http://www.w3.org/2000/svg">
<g opacity="0.05">
<path fill-rule="evenodd" clip-rule="evenodd" d="M586.499 734.831C667.32 734.831 732.839 668.931 732.839 587.638C732.839 506.345 667.32 440.444 586.499 440.444C505.677 440.444 440.158 506.345 440.158 587.638C440.158 668.931 505.677 734.831 586.499 734.831ZM586.499 783.896C694.261 783.896 781.619 696.028 781.619 587.638C781.619 479.247 694.261 391.379 586.499 391.379C478.736 391.379 391.378 479.247 391.378 587.638C391.378 696.028 478.736 783.896 586.499 783.896Z" fill="black"/>
<path fill-rule="evenodd" clip-rule="evenodd" d="M586.5 930.592C775.359 930.592 928.459 777.046 928.459 587.638C928.459 398.229 775.359 244.683 586.5 244.683C397.641 244.683 244.541 398.229 244.541 587.638C244.541 777.046 397.641 930.592 586.5 930.592ZM586.5 979.586C802.338 979.586 977.31 804.105 977.31 587.638C977.31 371.171 802.338 195.69 586.5 195.69C370.661 195.69 195.689 371.171 195.689 587.638C195.689 804.105 370.661 979.586 586.5 979.586Z" fill="black"/>
<path fill-rule="evenodd" clip-rule="evenodd" d="M586.5 1028.45C829.389 1028.45 1026.29 831.092 1026.29 587.638C1026.29 344.183 829.389 146.824 586.5 146.824C343.611 146.824 146.71 344.183 146.71 587.638C146.71 831.092 343.611 1028.45 586.5 1028.45ZM586.5 1077.43C856.377 1077.43 1075.16 858.143 1075.16 587.638C1075.16 317.132 856.377 97.8447 586.5 97.8447C316.623 97.8447 97.8447 317.132 97.8447 587.638C97.8447 858.143 316.623 1077.43 586.5 1077.43Z" fill="black"/>
<path fill-rule="evenodd" clip-rule="evenodd" d="M586.5 1124.12C883.422 1124.12 1124.12 883.422 1124.12 586.5C1124.12 289.578 883.422 48.875 586.5 48.875C289.578 48.875 48.875 289.578 48.875 586.5C48.875 883.422 289.578 1124.12 586.5 1124.12ZM586.5 1173C910.415 1173 1173 910.415 1173 586.5C1173 262.585 910.415 0 586.5 0C262.585 0 0 262.585 0 586.5C0 910.415 262.585 1173 586.5 1173Z" fill="black"/>
<path fill-rule="evenodd" clip-rule="evenodd" d="M586.501 832.724C721.334 832.724 830.639 722.995 830.639 587.638C830.639 452.28 721.334 342.552 586.501 342.552C451.667 342.552 342.363 452.28 342.363 587.638C342.363 722.995 451.667 832.724 586.501 832.724ZM586.501 881.741C748.301 881.741 879.466 750.066 879.466 587.638C879.466 425.209 748.301 293.534 586.501 293.534C424.7 293.534 293.535 425.209 293.535 587.638C293.535 750.066 424.7 881.741 586.501 881.741Z" fill="black"/>
<path fill-rule="evenodd" clip-rule="evenodd" d="M586.501 637.129C613.048 637.129 634.57 615.226 634.57 588.207C634.57 561.188 613.048 539.284 586.501 539.284C559.953 539.284 538.431 561.188 538.431 588.207C538.431 615.226 559.953 637.129 586.501 637.129ZM586.501 686.051C639.596 686.051 682.639 642.245 682.639 588.207C682.639 534.168 639.596 490.362 586.501 490.362C533.405 490.362 490.362 534.168 490.362 588.207C490.362 642.245 533.405 686.051 586.501 686.051Z" fill="black"/>
</g>
</svg>
