<svg width="89" height="20" viewBox="0 0 89 20" fill="none" xmlns="http://www.w3.org/2000/svg">
<path fill-rule="evenodd" clip-rule="evenodd" d="M0.0266347 13.901C-0.0470076 14.093 0.0529052 14.1331 0.0765914 14.1671C0.296657 14.3265 0.520168 14.4419 0.745832 14.5715C1.9409 15.2041 3.07052 15.3897 4.25051 15.3897C6.65487 15.3897 8.14839 14.1116 8.14839 12.053V12.0125C8.14839 10.109 6.46237 9.4174 4.88229 8.91827L4.676 8.85152C3.48438 8.46479 2.45597 8.13017 2.45597 7.34508V7.30503C2.45597 6.63277 3.05716 6.13881 3.98868 6.13881C5.0244 6.13881 6.25178 6.4829 7.04332 6.92002C7.04332 6.92002 7.27674 7.07075 7.36158 6.84552C7.40766 6.72364 7.80774 5.64614 7.85037 5.52943C7.89602 5.40325 7.81592 5.30807 7.73367 5.25898C6.82972 4.70817 5.58124 4.3335 4.28884 4.3335L4.04897 4.33436C1.84831 4.33436 0.31173 5.66509 0.31173 7.56945V7.61036C0.31173 9.61722 2.00679 10.2697 3.59463 10.7231L3.84957 10.8024C5.00589 11.1573 6.00458 11.4639 6.00458 12.2774V12.3179C6.00458 13.0629 5.35558 13.6163 4.31038 13.6163C3.90513 13.6163 2.61144 13.6094 1.21352 12.7253C1.04428 12.6266 0.94781 12.5556 0.817321 12.4759C0.748416 12.4341 0.576153 12.3588 0.501219 12.5844L0.0266347 13.901ZM35.2242 13.901C35.1506 14.093 35.2505 14.1331 35.275 14.1671C35.4942 14.3265 35.7182 14.4419 35.9434 14.5715C37.1389 15.2041 38.2685 15.3897 39.4481 15.3897C41.8524 15.3897 43.3464 14.1116 43.3464 12.053V12.0125C43.3464 10.109 41.6608 9.4174 40.0803 8.91827L39.874 8.85152C38.6824 8.46479 37.6535 8.13017 37.6535 7.34508V7.30503C37.6535 6.63277 38.2552 6.13881 39.1871 6.13881C40.2224 6.13881 41.4493 6.4829 42.2409 6.92002C42.2409 6.92002 42.4743 7.07075 42.5596 6.84552C42.6052 6.72364 43.0057 5.64614 43.0479 5.52943C43.094 5.40325 43.0135 5.30807 42.9317 5.25898C42.0273 4.70817 40.7792 4.3335 39.4868 4.3335L39.2465 4.33436C37.0463 4.33436 35.5097 5.66509 35.5097 7.56945V7.61036C35.5097 9.61722 37.2044 10.2697 38.7926 10.7231L39.0471 10.8024C40.2039 11.1573 41.2026 11.4639 41.2026 12.2774V12.3179C41.2026 13.0629 40.5531 13.6163 39.5088 13.6163C39.1027 13.6163 37.809 13.6094 36.4115 12.7253C36.2423 12.6266 36.1432 12.5586 36.0149 12.4759C35.9714 12.4484 35.7685 12.3691 35.6992 12.5844L35.2242 13.901ZM59.2527 9.8683C59.2527 11.0311 59.0356 11.9492 58.6093 12.5965C58.1855 13.2382 57.546 13.5504 56.6541 13.5504C55.7622 13.5504 55.1261 13.2386 54.7092 12.5974C54.2885 11.9497 54.0749 11.0311 54.0749 9.8683C54.0749 8.70638 54.2885 7.79124 54.7092 7.15042C55.1261 6.5152 55.7622 6.20685 56.6541 6.20685C57.546 6.20685 58.1855 6.51563 58.6093 7.15085C59.0365 7.79124 59.2527 8.70638 59.2527 9.8683ZM61.2604 7.712C61.0627 7.04491 60.7557 6.45793 60.347 5.96827C59.9374 5.47732 59.4193 5.08241 58.8052 4.79645C58.192 4.51007 57.4685 4.36494 56.6541 4.36494C55.8397 4.36494 55.1158 4.51007 54.5021 4.79645C53.8888 5.08241 53.3703 5.47732 52.9608 5.96913C52.5525 6.45965 52.2446 7.04577 52.0478 7.712C51.8518 8.37392 51.7524 9.09957 51.7524 9.8683C51.7524 10.6374 51.8518 11.3635 52.0478 12.0246C52.2446 12.6904 52.5517 13.2769 52.9612 13.7683C53.3708 14.2601 53.8906 14.6516 54.503 14.9307C55.1171 15.2097 55.8406 15.3518 56.6541 15.3518C57.468 15.3518 58.1907 15.2097 58.8044 14.9307C59.4176 14.6516 59.9366 14.2601 60.347 13.7683C60.7557 13.2787 61.0627 12.6912 61.2604 12.0246C61.4559 11.3622 61.5554 10.6366 61.5554 9.8683C61.5554 9.10044 61.4559 8.37435 61.2604 7.712ZM77.7403 13.239C77.6744 13.044 77.4841 13.1176 77.4841 13.1176C77.1925 13.2291 76.8825 13.3325 76.5508 13.3842C76.2167 13.4367 75.8467 13.463 75.451 13.463C74.4807 13.463 73.7077 13.174 73.156 12.603C72.6017 12.0315 72.2904 11.1082 72.2938 9.85925C72.2968 8.72404 72.5716 7.86876 73.0643 7.21674C73.5526 6.56903 74.2985 6.23657 75.2903 6.23657C76.1185 6.23657 76.7502 6.3326 77.4122 6.54018C77.4122 6.54018 77.5694 6.60866 77.6447 6.40151C77.8209 5.91358 77.9509 5.56647 78.1387 5.0303C78.1921 4.87742 78.0612 4.81282 78.0134 4.7943C77.7532 4.69266 77.1387 4.526 76.6749 4.4558C76.2412 4.38948 75.7343 4.35503 75.1689 4.35503C74.3261 4.35503 73.5746 4.4993 72.932 4.78526C72.2908 5.07078 71.7469 5.46526 71.3158 5.95578C70.8847 6.44716 70.5565 7.03414 70.3395 7.69994C70.122 8.36229 70.0122 9.08924 70.0122 9.86011C70.0122 11.5246 70.4614 12.8695 71.3472 13.8549C72.2361 14.8437 73.5694 15.3458 75.3097 15.3458C76.3377 15.3458 77.3924 15.1378 78.152 14.8389C78.152 14.8389 78.2967 14.7692 78.2339 14.6003L77.7403 13.239ZM81.2519 8.75332C81.3479 8.10691 81.5249 7.56988 81.801 7.15042C82.2174 6.5152 82.8514 6.16508 83.7432 6.16508C84.6356 6.16508 85.2234 6.51563 85.6472 7.15085C85.9271 7.57074 86.0494 8.13016 86.0972 8.75419L81.2519 8.75332ZM88.0085 7.33345C87.8375 6.69005 87.4163 6.04019 87.1394 5.74304C86.7023 5.2719 86.2742 4.94202 85.8492 4.75985C85.234 4.4984 84.5723 4.36407 83.9039 4.36494C83.0559 4.36494 82.2855 4.50834 81.6606 4.80119C81.0349 5.0949 80.509 5.49627 80.0969 5.99497C79.6839 6.49324 79.3742 7.08625 79.1766 7.75894C78.9785 8.42775 78.8785 9.15685 78.8785 9.92686C78.8785 10.7098 78.9823 11.4398 79.1865 12.0961C79.3928 12.758 79.7239 13.339 80.171 13.8226C80.6175 14.3079 81.1925 14.6886 81.8794 14.9539C82.5628 15.2188 83.3931 15.3562 84.3453 15.3531C86.3082 15.3467 87.3405 14.9091 87.7669 14.6736C87.8422 14.6314 87.9133 14.5586 87.8246 14.3488L87.3801 13.1051C87.3121 12.9195 87.1243 12.9867 87.1243 12.9867C86.6373 13.1684 85.9478 13.4927 84.3354 13.4893C83.282 13.4875 82.5017 13.1762 82.0111 12.69C81.5094 12.1925 81.2631 11.4622 81.2213 10.4303L88.0136 10.4355C88.0136 10.4355 88.1928 10.4337 88.2113 10.2589C88.2186 10.1866 88.4443 8.86357 88.0085 7.33345ZM26.8432 8.75332C26.9392 8.10691 27.1167 7.56988 27.3923 7.15042C27.8091 6.5152 28.4422 6.16508 29.335 6.16508C30.2273 6.16508 30.8151 6.51563 31.2389 7.15085C31.5184 7.57074 31.6407 8.13016 31.6885 8.75419L26.8432 8.75332ZM33.5998 7.33345C33.4292 6.69005 33.0076 6.04019 32.7311 5.74304C32.294 5.2719 31.8664 4.94202 31.4409 4.75985C30.8257 4.49854 30.164 4.36421 29.4956 4.36494C28.6476 4.36494 27.8772 4.50834 27.2523 4.80119C26.6266 5.0949 26.1007 5.49627 25.6877 5.99497C25.2756 6.49324 24.966 7.08625 24.7674 7.75894C24.5698 8.42775 24.4703 9.15685 24.4703 9.92686C24.4703 10.7098 24.5732 11.4398 24.7786 12.0961C24.9845 12.758 25.3161 13.339 25.7622 13.8226C26.2093 14.3079 26.7838 14.6886 27.4707 14.9539C28.1545 15.2188 28.984 15.3562 29.937 15.3531C31.8995 15.3467 32.9322 14.9091 33.3586 14.6736C33.4335 14.6314 33.505 14.5586 33.4159 14.3488L32.9719 13.1051C32.9034 12.9195 32.7156 12.9867 32.7156 12.9867C32.229 13.1684 31.5395 13.4927 29.9267 13.4893C28.8737 13.4875 28.093 13.1762 27.6024 12.69C27.1012 12.1925 26.8544 11.4622 26.8126 10.4303L33.6054 10.4355C33.6054 10.4355 33.7845 10.4337 33.803 10.2589C33.8103 10.1866 34.036 8.86357 33.5998 7.33345ZM12.1591 13.202C11.8925 12.9893 11.8555 12.9372 11.7672 12.7989C11.6324 12.5909 11.5635 12.2946 11.5635 11.9152C11.5635 11.3187 11.7616 10.889 12.1699 10.6004C12.1656 10.6013 12.7556 10.0914 14.1401 10.1095C14.7578 10.1204 15.374 10.1729 15.9846 10.2667V13.3545H15.9855C15.9855 13.3545 15.122 13.5401 14.15 13.5986C12.7685 13.6818 12.1548 13.2007 12.1591 13.202ZM14.8623 8.42775C14.5867 8.40751 14.2297 8.3976 13.8016 8.3976C13.2198 8.3976 12.6569 8.46995 12.1285 8.61207C11.5979 8.75505 11.1208 8.97641 10.7104 9.26968C10.3002 9.56269 9.96292 9.94609 9.72459 10.3903C9.48385 10.8386 9.36112 11.3653 9.36112 11.9557C9.36112 12.5582 9.46577 13.0801 9.67248 13.5065C9.87472 13.9292 10.1792 14.2948 10.5583 14.5702C10.936 14.845 11.402 15.0465 11.9425 15.1697C12.4761 15.2916 13.0807 15.3531 13.7413 15.3531C14.439 15.3531 15.1328 15.2946 15.805 15.1813C16.3777 15.0826 16.9481 14.9718 17.516 14.8488C17.7426 14.7967 17.9923 14.7283 17.9923 14.7283C18.1603 14.6856 18.1474 14.506 18.1474 14.506L18.1435 8.29338C18.1435 6.93079 17.78 5.92133 17.0638 5.29429C16.3511 4.67027 15.3016 4.35503 13.9437 4.35503C13.4338 4.35503 12.6147 4.42394 12.1229 4.52256C12.1229 4.52256 10.6397 4.81023 10.0291 5.28869C10.0291 5.28869 9.8947 5.37138 9.96791 5.55871L10.449 6.85068C10.5088 7.01821 10.672 6.96093 10.672 6.96093C10.672 6.96093 10.7233 6.94069 10.7836 6.90495C12.0902 6.19436 13.7435 6.21547 13.7435 6.21547C14.4773 6.21547 15.0428 6.36404 15.4226 6.65473C15.7934 6.9394 15.9816 7.3679 15.9816 8.27357V8.56082C15.3989 8.47641 14.8623 8.42775 14.8623 8.42775ZM69.6569 4.9278C69.6667 4.90509 69.6718 4.88064 69.672 4.85591C69.6721 4.83118 69.6673 4.80667 69.6578 4.78385C69.6482 4.76103 69.6342 4.74035 69.6165 4.72306C69.5988 4.70576 69.5779 4.69221 69.5548 4.68319C69.439 4.63926 68.8615 4.51739 68.4162 4.48982C67.5622 4.43642 67.0889 4.58026 66.6643 4.77147C66.2431 4.96139 65.7767 5.26845 65.5166 5.61858L65.5157 4.78999C65.5157 4.6763 65.4352 4.58457 65.3206 4.58457H63.579C63.4662 4.58457 63.3844 4.6763 63.3844 4.78999V14.9242C63.3845 14.9789 63.4063 15.0313 63.4449 15.0699C63.4836 15.1086 63.536 15.1304 63.5907 15.1305H65.3757C65.4304 15.1304 65.4827 15.1086 65.5213 15.0699C65.5599 15.0312 65.5816 14.9788 65.5816 14.9242V9.86184C65.5816 9.18183 65.6565 8.5044 65.806 8.07848C65.9533 7.65687 66.1535 7.32096 66.4016 7.07936C66.6366 6.84618 66.9244 6.67306 67.2405 6.57463C67.5368 6.4896 67.8435 6.44641 68.1518 6.4463C68.507 6.4463 68.8981 6.5376 68.8981 6.5376C69.029 6.55224 69.1018 6.47214 69.1461 6.35414C69.2629 6.04363 69.5936 5.11299 69.6569 4.9278Z" fill="white"/>
<path fill-rule="evenodd" clip-rule="evenodd" d="M52.9045 0.23114C52.6842 0.164538 52.46 0.111329 52.2332 0.0717989C51.9281 0.0208758 51.6191 -0.00304663 51.3098 0.000309798C50.0812 0.000309798 49.1126 0.34742 48.4326 1.03303C47.7573 1.71346 47.2978 2.75005 47.0674 4.11394L46.9843 4.57431H45.4421C45.4421 4.57431 45.2539 4.56656 45.2143 4.77198L44.9611 6.18454C44.9434 6.31976 45.0016 6.40417 45.1824 6.40331H46.6837L45.1605 14.9058C45.0412 15.5905 44.9047 16.1538 44.7535 16.5806C44.6045 17.0018 44.4589 17.3174 44.2798 17.5465C44.1062 17.7683 43.9417 17.9316 43.6579 18.0267C43.4236 18.1055 43.1541 18.1417 42.8586 18.1417C42.6941 18.1417 42.4753 18.1142 42.3138 18.0819C42.1523 18.05 42.0684 18.0138 41.9474 17.963C41.9474 17.963 41.7712 17.8958 41.7019 18.0724C41.6455 18.2167 41.2454 19.317 41.198 19.4531C41.1498 19.5874 41.2174 19.6934 41.3027 19.7239C41.5025 19.7954 41.6511 19.8411 41.9232 19.9053C42.3014 19.9944 42.62 20 42.9185 20C43.5438 20 44.1136 19.9121 44.586 19.7416C45.0614 19.5698 45.4753 19.2705 45.8414 18.8652C46.2371 18.4281 46.486 17.9703 46.7242 17.3459C46.9598 16.727 47.1604 15.9587 47.3211 15.0634L48.8516 6.40331H51.0893C51.0893 6.40331 51.278 6.4102 51.3171 6.20564L51.5704 4.79309C51.588 4.65786 51.5303 4.57345 51.3486 4.57431H49.1768C49.1875 4.52522 49.2862 3.76123 49.5355 3.04204C49.6419 2.73498 49.8421 2.48735 50.0118 2.31724C50.1702 2.15523 50.3654 2.0338 50.5807 1.96324C50.8168 1.89027 51.0628 1.85481 51.3098 1.85816C51.5144 1.85816 51.7151 1.88271 51.868 1.91458C52.0786 1.95937 52.1604 1.98305 52.2155 1.99942C52.4369 2.06703 52.4666 2.00157 52.5101 1.89434L53.0294 0.468002C53.0828 0.314688 52.9528 0.250089 52.9045 0.23114ZM22.5545 14.9239C22.5545 15.0375 22.4735 15.1301 22.3598 15.1301H20.5584C20.4442 15.1301 20.3633 15.0375 20.3633 14.9239V0.424507C20.3633 0.311244 20.4442 0.219515 20.5584 0.219515H22.3598C22.4735 0.219515 22.5545 0.311244 22.5545 0.424507V14.9239Z" fill="white"/>
</svg>
