<svg width="69" height="20" viewBox="0 0 69 20" fill="none" xmlns="http://www.w3.org/2000/svg">
<path d="M0 3.72949H2.40505V9.07282H7.47745V3.72949H9.8856V16.8457H7.47745V11.3902H2.40505V16.8457H0V3.72949Z" fill="white"/>
<path d="M17.5035 12.5733C17.5035 13.6712 16.609 14.5647 15.5112 14.5647C14.4131 14.5647 13.5191 13.6712 13.5191 12.5733V6.92627H11.2383V12.5733C11.2383 14.9291 13.1552 16.8454 15.5112 16.8454C17.8667 16.8454 19.7835 14.9291 19.7835 12.5733V6.92627H17.5035V12.5733Z" fill="white"/>
<path d="M26.1517 6.99272C25.0203 6.99272 24.2306 7.32103 23.4679 8.06968V3.72949H21.1797V11.773C21.1797 14.7838 23.3565 16.8457 25.8021 16.8457C28.5209 16.8457 30.9031 14.747 30.9031 11.9194C30.9031 9.12752 28.7064 6.99272 26.1517 6.99272ZM26.2086 14.7288C24.6581 14.7288 23.4724 13.4339 23.4724 11.9194C23.4724 10.4045 24.6581 9.10919 26.2086 9.10919C27.5224 9.10919 28.7087 10.4045 28.7087 11.9194C28.7087 13.4339 27.5224 14.7288 26.2086 14.7288Z" fill="white"/>
<path d="M34.7469 7.56835C34.7469 6.4181 35.5133 6.0534 36.3524 6.0534C37.0279 6.0534 37.9218 6.56427 38.5051 7.1848L40.0009 5.43328C39.2533 4.42987 37.7392 3.73633 36.4984 3.73633C34.0167 3.73633 32.2286 5.17785 32.2286 7.56835C32.2286 12.002 37.6844 10.5966 37.6844 13.0787C37.6844 13.8442 36.9365 14.52 36.0794 14.52C34.7287 14.52 34.2906 13.8631 33.6705 13.1695L32.0098 14.8844C33.0687 16.18 34.3819 16.8372 35.9513 16.8372C38.3049 16.8372 40.2026 15.3775 40.2026 13.0964C40.2026 8.17015 34.7469 9.70301 34.7469 7.56835Z" fill="white"/>
<path d="M46.2259 6.86328C43.7806 6.86328 41.6035 8.92398 41.6035 11.9354V19.9997H43.8916V15.6389C44.6544 16.387 45.4438 16.7159 46.5756 16.7159C49.1301 16.7159 51.327 14.5813 51.327 11.7895C51.327 8.96143 48.9442 6.86328 46.2259 6.86328ZM46.6325 14.5997C45.0822 14.5997 43.8963 13.303 43.8963 11.7895C43.8963 10.2747 45.0822 8.97935 46.6325 8.97935C47.9461 8.97935 49.1326 10.2747 49.1326 11.7895C49.1326 13.303 47.9461 14.5997 46.6325 14.5997Z" fill="white"/>
<path d="M68.1704 14.7286C66.8208 14.7286 66.4376 14.145 66.4376 13.2506V9.29142H68.5355V7.2846H66.4376V4.63867L64.1211 5.67845V13.7433C64.1211 15.8053 65.5438 16.8455 67.4952 16.8455C67.7871 16.8455 68.189 16.8267 68.4082 16.7726L68.9739 14.6928C68.7185 14.7105 68.4267 14.7286 68.1704 14.7286Z" fill="white"/>
<path d="M62.1357 9.40747C61.6971 8.65276 61.08 8.04773 60.3086 7.59223C59.7321 7.25664 59.1344 7.04365 58.4608 6.95217V4.55413C59.1344 4.26811 59.5524 3.63506 59.5524 2.89651C59.5524 1.88987 58.7452 1.07414 57.7393 1.07414C56.7327 1.07414 55.9113 1.88987 55.9113 2.89651C55.9113 3.63506 56.3052 4.26811 56.9788 4.55413V6.95325C56.44 7.03112 55.8811 7.19912 55.3708 7.45724C54.3285 6.66562 50.9106 4.06859 48.9112 2.55176C48.9586 2.3808 48.9951 2.20458 48.9951 2.01867C48.9951 0.903712 48.0922 0 46.9768 0C45.8615 0 44.959 0.903712 44.959 2.01867C44.959 3.13349 45.8624 4.03747 46.9778 4.03747C47.3582 4.03747 47.7101 3.92619 48.0138 3.74324L48.4357 4.06334L54.2336 8.24078C53.9271 8.52222 53.6417 8.84232 53.4133 9.20148C52.9505 9.93369 52.6678 10.7393 52.6678 11.6181V11.8015C52.6678 12.4184 52.785 13.0008 52.9846 13.5479C53.1604 14.0256 53.4175 14.4599 53.7358 14.8526L51.8116 16.7816C51.6409 16.7187 51.4616 16.6842 51.2745 16.6842C50.8579 16.6842 50.4672 16.8469 50.1726 17.141C49.8777 17.4359 49.7161 17.8276 49.7161 18.2444C49.7163 18.6611 49.8786 19.0527 50.1734 19.3474C50.468 19.6421 50.8597 19.8046 51.2765 19.8046C51.6933 19.8046 52.0851 19.6421 52.38 19.3474C52.6742 19.0527 52.8367 18.661 52.8367 18.2444C52.8367 18.0831 52.8118 17.9258 52.7649 17.7762L54.7538 15.7871C55.0265 15.9754 55.321 16.134 55.6376 16.2707C56.262 16.5407 56.9512 16.7052 57.7055 16.7052H57.8438C58.6777 16.7052 59.4643 16.5093 60.2038 16.1087C60.983 15.6852 61.5929 15.1062 62.0537 14.367C62.5168 13.6257 62.7719 12.8068 62.7719 11.9057V11.8608C62.7719 10.9744 62.5667 10.1567 62.1357 9.40747ZM59.7056 13.5802C59.1658 14.1801 58.5453 14.5497 57.8438 14.5497H57.7282C57.3275 14.5497 56.9356 14.4389 56.5519 14.2375C56.1195 14.0158 55.7907 13.6994 55.5217 13.2989C55.2436 12.9058 55.0927 12.4766 55.0927 12.0215V11.8833C55.0927 11.4358 55.1786 11.0116 55.3949 10.6109C55.6262 10.173 55.9387 9.83238 56.3541 9.56159C56.7621 9.29269 57.1978 9.1608 57.683 9.1608H57.7282C58.1682 9.1608 58.5847 9.24756 58.9778 9.4487C59.3784 9.66317 59.7056 9.95619 59.9593 10.3416C60.2057 10.7272 60.3523 11.1431 60.3994 11.5962C60.4068 11.6903 60.4106 11.7868 60.4106 11.8789C60.4106 12.4938 60.1756 13.0633 59.7056 13.5802Z" fill="white"/>
</svg>
