<svg width="59" height="21" viewBox="0 0 59 21" fill="none" xmlns="http://www.w3.org/2000/svg">
<path fill-rule="evenodd" clip-rule="evenodd" d="M58.1762 17.3404C58.1705 18.7009 57.0677 19.7936 55.7081 19.7859C54.3705 19.7783 53.2758 18.6673 53.2832 17.3253C53.2908 15.9777 54.3952 14.8907 55.7523 14.895C57.0799 14.8993 58.1817 16.0109 58.1762 17.3404Z" fill="white"/>
<path fill-rule="evenodd" clip-rule="evenodd" d="M47.8859 11.6159L53.7455 11.0098C53.173 7.37274 51.0346 5.30166 47.3302 4.79651C41.7736 4.0388 38.3387 6.61502 37.4294 7.92839C36.5202 9.24176 36.0655 10.4036 35.9645 12.5252C35.8635 14.6468 37.1768 16.5663 37.6315 17.0715C38.0861 17.5766 40.1572 20.0518 45.4107 20.0518C50.6641 20.0518 52.3816 18.0312 53.2404 16.1622C53.5771 15.3877 53.7455 14.731 53.7455 14.1922H47.9869C47.8185 15.7076 46.9598 16.4653 45.4107 16.4653C43.087 16.4653 42.7839 14.2932 42.8849 12.5252C42.986 10.7572 42.8344 8.43354 45.3096 8.33251C46.9598 8.26517 47.8185 9.35961 47.8859 11.6159Z" fill="white"/>
<path fill-rule="evenodd" clip-rule="evenodd" d="M36.6122 15.5528V19.7133H26.1314V15.4099H28.1103V15.2818C28.1101 13.8194 28.1106 12.3569 28.1093 10.8944C28.109 10.4663 28.014 10.0646 27.752 9.716C27.45 9.31401 27.0312 9.10291 26.5491 9.01289C25.6774 8.85009 24.8616 8.9791 24.1476 9.53445C23.4963 10.0411 23.1589 10.7265 23.1447 11.5422C23.1224 12.8167 23.139 14.0919 23.1394 15.3667C23.8177 15.4037 24.4891 15.4037 25.1686 15.4037V19.7143H14.4507V15.4114H16.3782V8.94621H14.45V4.63751H22.9059V7.60845C23.0318 7.47362 23.1323 7.37482 23.2228 7.26758C23.8794 6.48976 24.6463 5.85303 25.5744 5.42164C26.2203 5.12143 26.9 4.93877 27.6055 4.85335C28.799 4.70888 29.9862 4.7356 31.1599 5.015C32.0179 5.21923 32.8062 5.56899 33.4686 6.16803C34.1572 6.79077 34.5707 7.57071 34.7395 8.47406C34.8162 8.88479 34.8565 9.30151 34.8598 9.71933C34.8725 11.5569 34.8653 13.3947 34.8653 15.2325V15.3993H36.6122V15.5528ZM2.55824 4.63084H0V0H13.7153V4.60427H11.1562V15.4005H13.7136V19.7118H0.0024752V15.4106H2.55824V4.63084Z" fill="white"/>
</svg>
