<svg width="17" height="16" viewBox="0 0 17 16" fill="none" xmlns="http://www.w3.org/2000/svg">
<path d="M6.02147 8C6.02147 6.5273 7.21506 5.33312 8.68782 5.33312C10.1606 5.33312 11.3548 6.5273 11.3548 8C11.3548 9.4727 10.1606 10.6669 8.68782 10.6669C7.21506 10.6669 6.02147 9.4727 6.02147 8ZM4.57975 8C4.57975 10.2688 6.41893 12.1079 8.68782 12.1079C10.9567 12.1079 12.7959 10.2688 12.7959 8C12.7959 5.7312 10.9567 3.8921 8.68782 3.8921C6.41893 3.8921 4.57975 5.7312 4.57975 8ZM11.9985 3.72922C11.9983 4.25941 12.4279 4.68939 12.9581 4.6896C13.4883 4.68981 13.9183 4.26018 13.9186 3.72998C13.9188 3.19979 13.4891 2.76981 12.9589 2.7696H12.9585C12.4286 2.76985 11.9989 3.19928 11.9985 3.72922ZM5.45569 14.5118C4.67569 14.4763 4.25174 14.3464 3.97 14.2366C3.59648 14.0912 3.32997 13.918 3.04977 13.6382C2.76957 13.3584 2.59612 13.0922 2.45135 12.7187C2.34152 12.4371 2.21159 12.013 2.17614 11.233C2.13735 10.3898 2.12961 10.1364 2.12961 8.00006C2.12961 5.86368 2.13799 5.61107 2.17614 4.7671C2.21166 3.98714 2.34254 3.5639 2.45135 3.28147C2.59676 2.90797 2.76995 2.64147 3.04977 2.36128C3.32959 2.08109 3.59584 1.90765 3.97 1.76288C4.25161 1.65306 4.67569 1.52314 5.45569 1.48768C6.29899 1.4489 6.55231 1.44115 8.68782 1.44115C10.8233 1.44115 11.0769 1.44954 11.9209 1.48768C12.7009 1.5232 13.1242 1.65408 13.4066 1.76288C13.7801 1.90765 14.0466 2.08147 14.3268 2.36128C14.607 2.64109 14.7798 2.90797 14.9253 3.28147C15.0351 3.56307 15.165 3.98714 15.2005 4.7671C15.2393 5.61107 15.247 5.86368 15.247 8.00006C15.247 10.1364 15.2393 10.3891 15.2005 11.233C15.1649 12.013 15.0344 12.4369 14.9253 12.7187C14.7798 13.0922 14.6066 13.3587 14.3268 13.6382C14.047 13.9178 13.7801 14.0912 13.4066 14.2366C13.125 14.3464 12.7009 14.4764 11.9209 14.5118C11.0776 14.5506 10.8243 14.5583 8.68782 14.5583C6.55135 14.5583 6.29873 14.5506 5.45569 14.5118ZM5.38945 0.048448C4.53777 0.087232 3.95579 0.222272 3.44755 0.420032C2.92119 0.624256 2.4756 0.89824 2.03034 1.34278C1.58507 1.78733 1.31178 2.2336 1.10755 2.75994C0.909781 3.26848 0.774735 3.85011 0.73595 4.70176C0.696524 5.55475 0.6875 5.82746 0.6875 8C0.6875 10.1725 0.696524 10.4452 0.73595 11.2982C0.774735 12.15 0.909781 12.7315 1.10755 13.2401C1.31178 13.7661 1.58514 14.2129 2.03034 14.6572C2.47554 15.1016 2.92119 15.3752 3.44755 15.58C3.95675 15.7777 4.53777 15.9128 5.38945 15.9516C6.24292 15.9903 6.51519 16 8.68782 16C10.8605 16 11.1332 15.991 11.9862 15.9516C12.8379 15.9128 13.4195 15.7777 13.9281 15.58C14.4541 15.3752 14.9 15.1018 15.3453 14.6572C15.7906 14.2127 16.0633 13.7661 16.2681 13.2401C16.4659 12.7315 16.6015 12.1499 16.6397 11.2982C16.6785 10.4446 16.6875 10.1725 16.6875 8C16.6875 5.82746 16.6785 5.55475 16.6397 4.70176C16.6009 3.85005 16.4659 3.26816 16.2681 2.75994C16.0633 2.23392 15.7899 1.78803 15.3453 1.34278C14.9007 0.897536 14.4541 0.624256 13.9287 0.420032C13.4195 0.222272 12.8379 0.086592 11.9868 0.048448C11.1338 0.009664 10.8611 0 8.68846 0C6.51583 0 6.24292 0.009024 5.38945 0.048448Z" fill="white"/>
</svg>
