<svg width="18" height="16" viewBox="0 0 18 16" fill="none" xmlns="http://www.w3.org/2000/svg">
<path fill-rule="evenodd" clip-rule="evenodd" d="M15 1.5999L2.99999 1.59993C2.00588 1.59993 1.2 2.40581 1.2 3.39993V9.39993C1.2 10.394 2.00588 11.1999 3 11.1999H9.00002C9.15916 11.1999 9.31177 11.2631 9.4243 11.3757L12 13.9514V11.7999C12 11.4686 12.2687 11.1999 12.6 11.1999H15C15.9941 11.1999 16.8 10.394 16.8 9.39993V3.3999C16.8 2.40579 15.9941 1.5999 15 1.5999ZM2.99999 0.399926L15 0.399902C16.6568 0.399902 18 1.74304 18 3.3999V9.39993C18 11.0567 16.6568 12.3999 15 12.3999H13.2V15.3999C13.2 15.6425 13.0538 15.8613 12.8296 15.9542C12.6054 16.0471 12.3473 15.9957 12.1757 15.8241L8.7515 12.3999H3C1.34315 12.3999 0 11.0567 0 9.39993V3.39993C0 1.74307 1.34314 0.399926 2.99999 0.399926Z" fill="#AFD641"/>
</svg>
