<svg width="38" height="16" viewBox="0 0 38 16" fill="none" xmlns="http://www.w3.org/2000/svg">
<path d="M0.939623 0.0429561H0.96291C1.28426 0.0398514 1.61493 0.032089 1.9456 0.024327C3.16581 -0.00361655 4.38912 -0.0315605 5.61243 0.0879763C6.30171 0.156283 6.30792 0.72292 6.31723 1.38425L6.31879 1.46809C6.31879 1.54881 6.32189 1.63264 6.32344 1.71492C6.34207 2.61999 6.3576 3.30616 5.67298 3.494C5.34541 3.58404 5.0489 3.70669 4.84087 3.88056C4.66235 4.03114 4.54591 4.2283 4.53194 4.49066C4.45743 5.9872 4.49158 7.4884 4.52728 8.98805C4.56144 10.4303 4.59404 11.8725 4.53194 13.3131C4.52884 13.3752 4.52573 13.4358 4.51952 13.4978C4.4714 14.0101 4.3146 14.3672 4.0926 14.6016C3.84577 14.8609 3.53218 14.9618 3.19685 14.9478L3.18909 14.9463H3.18288C3.1627 14.9447 3.14252 14.9432 3.12078 14.9416C2.67058 14.8981 2.32749 14.7212 2.09153 14.361C1.88195 14.0412 1.77483 13.5848 1.77483 12.9561C1.77483 11.8243 1.77017 11.0062 1.76396 10.1865C1.75154 8.33603 1.73912 6.48553 1.77793 4.63814C1.78104 4.47359 1.76396 4.32921 1.65685 4.20502C1.50936 4.03425 1.21285 3.85882 0.652424 3.65546C0.27208 3.51729 0.0951028 3.18818 0.029901 2.75194C-0.0197767 2.40886 0.000404789 1.99902 0.0330057 1.5752L0.037663 1.52708C0.0982078 0.76173 0.154095 0.0538232 0.939623 0.0429561ZM0.970672 0.763283H0.947385C0.816981 0.764835 0.784381 1.15915 0.75178 1.58296L0.747122 1.63109C0.717626 2.00988 0.698997 2.37315 0.73936 2.64483C0.765752 2.82335 0.812325 2.9491 0.893051 2.9786C1.58388 3.22854 1.97354 3.47227 2.19709 3.72997C2.4579 4.0327 2.49826 4.3261 2.4905 4.65211C2.45324 6.4964 2.46566 8.33913 2.47808 10.1834C2.48584 11.2096 2.49205 12.2388 2.49205 12.9561C2.49205 13.4389 2.55881 13.7649 2.68921 13.9636C2.79322 14.1235 2.96088 14.2027 3.18754 14.2259C3.19996 14.2259 3.21238 14.2275 3.22635 14.2275H3.2279C3.36452 14.2337 3.48716 14.1964 3.5772 14.1017C3.69363 13.9807 3.77746 13.7649 3.80851 13.4295C3.81317 13.3845 3.81627 13.3364 3.81783 13.2821C3.87992 11.8585 3.84577 10.4318 3.81317 9.00512C3.77746 7.48685 3.74176 5.97013 3.81783 4.45651C3.84266 3.96749 4.0569 3.60267 4.38446 3.32789C4.68408 3.0764 5.07219 2.91029 5.48513 2.79696C5.63106 2.7566 5.62175 2.31416 5.60933 1.72889C5.60777 1.65127 5.60622 1.56899 5.60467 1.4805V1.47895L5.60312 1.39357C5.59846 1.07998 5.59535 0.809856 5.54412 0.805198C4.36117 0.688766 3.1596 0.71671 1.95957 0.743101C1.63356 0.750863 1.306 0.758625 0.970672 0.763283Z" fill="black"/>
<path d="M5.96146 3.94116V3.94271C6.32938 3.94271 6.66315 4.0933 6.90533 4.33703C7.14596 4.58076 7.29654 4.91609 7.29654 5.28712H7.2981V13.5134H7.29654C7.29654 13.8829 7.14596 14.2198 6.90378 14.4635C6.66315 14.7072 6.32938 14.8578 5.96146 14.8578V14.8594H5.9599V14.8578C5.59198 14.8578 5.25821 14.7057 5.01603 14.462C4.7754 14.2198 4.62637 13.8829 4.62637 13.5134H4.62482V5.28712H4.62637C4.62637 4.91609 4.77695 4.57921 5.01758 4.33548C5.25976 4.0933 5.59198 3.94271 5.9599 3.94271V3.94116H5.96146ZM5.96146 4.66149V4.66304H5.9599V4.66149C5.79069 4.66149 5.63545 4.7329 5.52212 4.84623C5.41034 4.95955 5.34049 5.11635 5.34049 5.28712H5.34204V13.5134H5.34049C5.34049 13.6842 5.41035 13.841 5.52367 13.9543C5.63545 14.0676 5.79069 14.1375 5.9599 14.1375V14.136H5.96146V14.1375C6.13067 14.1375 6.28591 14.0676 6.39924 13.9528C6.51257 13.8394 6.58243 13.6842 6.58243 13.5134H6.58088V5.28712H6.58243C6.58243 5.11635 6.51102 4.95955 6.39769 4.84468C6.28591 4.7329 6.13067 4.66149 5.96146 4.66149Z" fill="black"/>
<path d="M7.43381 13.6826L7.47727 5.28556C7.47883 4.95489 7.53471 4.68943 7.63562 4.48761C7.75826 4.24233 7.94145 4.08709 8.17276 4.01412C8.38389 3.94892 8.61986 3.96289 8.87291 4.04983C9.12285 4.13521 9.39918 4.29822 9.68483 4.53263C10.1412 4.09951 10.6008 3.88993 11.0665 3.92098C11.5213 3.95047 11.9498 4.20662 12.3503 4.7034C12.5894 4.49382 12.8223 4.32771 13.0583 4.21128C13.4262 4.0281 13.7926 3.97066 14.1807 4.05914L14.1822 4.0607C14.2878 4.08398 14.3949 4.12124 14.502 4.16937C14.6076 4.21594 14.71 4.27338 14.8094 4.34324C15.3093 4.69253 15.7191 5.32592 15.7191 6.22944V13.4265C15.7191 14.2446 15.3683 14.7771 14.9258 15.0193C14.7473 15.1171 14.5517 15.1668 14.3576 15.1699C14.162 15.173 13.968 15.1264 13.7894 15.0333C13.3703 14.8128 13.0474 14.33 13.0474 13.5988H13.0458V8.04888C12.9636 7.84396 12.8906 7.8657 12.8269 8.11408L12.9108 13.5942C12.9216 14.3176 12.5584 14.7973 12.0942 15.0177C11.9141 15.1031 11.7185 15.1481 11.5229 15.1512C11.3257 15.1559 11.1286 15.1171 10.9485 15.0348C10.4999 14.8345 10.1552 14.3843 10.1552 13.6842H10.1568V8.10011C10.1024 7.97437 10.0574 7.98213 10.0186 8.12029L9.97668 13.7711C9.97203 14.3952 9.64291 14.8035 9.2222 14.9851C9.06075 15.055 8.88222 15.0891 8.70524 15.0876C8.52516 15.086 8.34819 15.0488 8.18518 14.9743C7.76137 14.7802 7.4307 14.3502 7.43381 13.6826ZM8.19139 5.28867L8.14792 13.6857C8.14637 14.0226 8.29385 14.2306 8.48169 14.316C8.55621 14.3502 8.63383 14.3673 8.71145 14.3688C8.79063 14.3688 8.8698 14.3533 8.94277 14.3222C9.12129 14.2446 9.26101 14.0599 9.26257 13.768L9.30448 8.08925C9.30293 8.05664 9.30603 8.02404 9.3138 7.99144C9.72364 6.20926 10.2359 6.18131 10.8507 7.90761H10.8491C10.8631 7.94642 10.8693 7.98679 10.8693 8.0287V13.6842H10.8709C10.8709 14.0568 11.0323 14.285 11.2388 14.3781C11.3242 14.4154 11.4173 14.434 11.512 14.4325C11.6067 14.4309 11.703 14.4092 11.793 14.3673C12.0228 14.257 12.2029 14.0024 12.1967 13.6019L12.1128 8.09701C12.1097 8.06285 12.1128 8.02715 12.1206 7.99144C12.5584 6.08196 13.094 6.03073 13.7305 7.8362C13.7522 7.88277 13.7631 7.93245 13.7631 7.98679V13.5988H13.7615C13.7615 14.0242 13.9183 14.2896 14.1201 14.3968C14.1915 14.434 14.2707 14.4511 14.3483 14.4511C14.4275 14.4495 14.5082 14.4278 14.5843 14.3859C14.8172 14.2586 15.0019 13.9435 15.0019 13.4265V6.22944C15.0019 5.5976 14.7333 5.16602 14.4027 4.93627C14.3406 4.89125 14.2754 4.85554 14.2117 4.82604C14.1496 4.7981 14.086 4.77637 14.0223 4.76239H14.0208C13.805 4.71272 13.5923 4.74842 13.3718 4.85709C13.1188 4.98284 12.8487 5.20328 12.5506 5.50135C12.5335 5.51687 12.5149 5.5324 12.4947 5.54637C12.3286 5.65504 12.1082 5.60847 11.9995 5.44236C11.6611 4.92229 11.3366 4.66149 11.0215 4.63975C10.7079 4.61957 10.357 4.83536 9.97203 5.27004L9.96582 5.2778C9.83075 5.42218 9.6041 5.42838 9.45972 5.29332C9.1539 5.00147 8.87446 4.81207 8.64315 4.7329C8.53293 4.69409 8.44444 4.68322 8.38234 4.7034C8.34198 4.71582 8.30472 4.75153 8.27522 4.81207C8.22244 4.91764 8.19294 5.07598 8.19139 5.28867Z" fill="black"/>
<path d="M17.3517 10.5123L17.3533 10.5015C17.3564 10.4906 17.3595 10.4797 17.3641 10.4689C17.375 10.4316 17.389 10.3944 17.4045 10.3602C17.4262 10.3105 17.4495 10.2671 17.4759 10.2282C17.6187 10.014 17.8562 9.86032 18.1605 9.85256L19.7238 9.81064H19.7316C19.7331 9.81064 19.7316 9.80909 19.7347 9.80909C19.744 9.80288 19.7549 9.79512 19.7642 9.7858C19.8884 9.66161 19.9598 9.39459 19.98 9.19278C20.0157 8.81864 20.0095 8.2784 19.9443 7.69313C19.8635 6.97281 19.6928 6.19504 19.4025 5.58959C19.1448 5.05245 18.7955 4.65969 18.339 4.61467C18.2723 4.60691 18.1993 4.60846 18.1202 4.61777H18.1186C17.8764 4.64572 17.6591 4.72489 17.4635 4.84443C17.2601 4.96862 17.0785 5.13939 16.9155 5.34276C16.0104 6.47758 15.717 8.5982 15.717 10.0854H15.7185V10.0901H15.717C15.717 10.3431 15.7341 10.6117 15.7682 10.8896C15.8024 11.1628 15.8521 11.436 15.9188 11.7031C16.2479 13.0164 16.976 14.19 18.1046 14.2661C18.2086 14.2739 18.3158 14.263 18.4198 14.2397C18.7132 14.1699 18.9942 13.9851 19.2115 13.7212C19.432 13.4495 19.5856 13.0956 19.612 12.6935C19.6245 12.5041 19.6089 12.3038 19.5608 12.0943C19.4956 11.8133 19.4475 11.7388 19.4133 11.7496C19.2705 11.7931 19.0951 11.9887 18.9973 12.1113C18.766 12.397 18.5284 12.5491 18.3049 12.5941C18.0922 12.6376 17.8982 12.5895 17.7305 12.4684C17.5908 12.3659 17.479 12.2138 17.3998 12.0229C17.2477 11.6549 17.2104 11.1054 17.3517 10.5154V10.5123ZM18.0487 10.6769L18.0456 10.6862C17.9416 11.1209 17.9603 11.5043 18.0612 11.7465C18.0891 11.8133 18.1186 11.8614 18.1512 11.8831C18.1543 11.8862 18.159 11.8878 18.1652 11.8862C18.2335 11.8723 18.3251 11.8009 18.4415 11.658C18.5952 11.4686 18.8824 11.1597 19.2053 11.0603C19.6384 10.9284 20.0591 11.0743 20.2578 11.9313C20.323 12.2107 20.3432 12.4824 20.3262 12.7416C20.2889 13.3005 20.0747 13.7973 19.7626 14.1776C19.4459 14.5657 19.0252 14.8374 18.5828 14.9414C18.4105 14.9818 18.2335 14.9973 18.0581 14.9864C16.5538 14.8824 15.6207 13.4635 15.2249 11.8769C15.1504 11.5789 15.0945 11.2761 15.0572 10.9781C15.0215 10.6847 15.0029 10.385 15.0029 10.0901H15.0013V10.0854H15.0029C15.0029 8.48177 15.3351 6.17486 16.3581 4.891C16.5708 4.62398 16.8146 4.39888 17.0909 4.22967C17.3734 4.05579 17.6886 3.94092 18.0379 3.90055H18.0425C18.1667 3.88658 18.2894 3.88658 18.4089 3.89745C19.1572 3.97196 19.6866 4.52463 20.0467 5.27755C20.3758 5.96373 20.5668 6.82533 20.6553 7.61396C20.7267 8.24735 20.7313 8.84193 20.691 9.26419C20.6584 9.58865 20.5233 10.042 20.2687 10.2966C20.2035 10.3618 20.1321 10.4161 20.0529 10.4549C19.9675 10.4984 19.8744 10.5248 19.7704 10.5294H19.7673L19.7549 10.531V10.5294L19.7487 10.531L18.1776 10.5729C18.1295 10.5729 18.0922 10.5977 18.0689 10.6303C18.0627 10.6412 18.0581 10.649 18.0565 10.6536C18.0534 10.6583 18.0518 10.6629 18.0503 10.6676L18.0487 10.6769Z" fill="black"/>
<path d="M17.9319 7.74458C17.9397 7.75856 17.9443 7.72751 17.9754 7.73527C18.0142 7.74303 18.0561 7.74614 18.098 7.74458C18.1073 7.74303 18.1166 7.74303 18.1244 7.74148C18.1384 7.60952 18.129 7.4341 18.0964 7.26488C18.0747 7.16242 18.0468 7.06928 18.0126 7.00252C17.9754 7.04133 17.9443 7.10964 17.9195 7.18881C17.8776 7.33009 17.8698 7.49154 17.8977 7.62815C17.9055 7.67472 17.9179 7.71353 17.9319 7.74458ZM17.8186 8.43697C17.5904 8.38574 17.3839 8.25844 17.2876 8.05662C17.2457 7.96658 17.2131 7.87033 17.1945 7.76942C17.1448 7.52103 17.1588 7.23228 17.2348 6.98079C17.3202 6.69514 17.4879 6.44675 17.7394 6.32411H17.7409C17.8015 6.29462 17.862 6.27288 17.9226 6.26046C18.008 6.24494 18.0918 6.24649 18.1741 6.26512C18.3728 6.31014 18.5218 6.44675 18.6274 6.63615C18.7066 6.77587 18.764 6.94819 18.7981 7.12361C18.8571 7.42013 18.8587 7.75545 18.809 7.979C18.7671 8.16684 18.6445 8.2988 18.4783 8.37953C18.379 8.42765 18.2626 8.4556 18.1461 8.46336C18.039 8.47112 17.9257 8.4618 17.8186 8.43697Z" fill="black"/>
<path d="M24.4624 1.14797C24.4484 1.14797 24.4267 1.14953 24.3988 1.15108C23.6583 1.18989 23.0435 1.83104 22.6057 2.90687C22.1307 4.07275 21.8745 5.71832 21.8931 7.66196C21.8962 7.96313 21.9071 8.27983 21.9242 8.61049C21.9847 9.7655 22.1307 11.2838 22.556 12.4605C22.9426 13.5286 23.5651 14.3064 24.5866 14.1822C24.5944 14.1806 24.6021 14.1806 24.6099 14.1806L24.6161 14.1791C24.88 14.1418 25.1175 14.0502 25.3302 13.9136V13.912C25.5507 13.7708 25.7478 13.5829 25.9201 13.3578C26.8842 12.1174 27.1916 9.84157 27.2055 8.23946C27.2071 8.09043 27.2071 7.93519 27.2055 7.77684C27.1916 6.35171 27.0565 4.65025 26.6203 3.30895C26.2167 2.07167 25.5584 1.15729 24.4981 1.14797H24.4624ZM24.3631 0.430752C24.3863 0.429199 24.4174 0.429199 24.4562 0.429199C24.4717 0.429199 24.4888 0.429199 24.5043 0.429199C25.9465 0.441619 26.805 1.56402 27.3002 3.08696C27.7613 4.50588 27.9057 6.28496 27.9197 7.77218C27.9212 7.93364 27.9212 8.09198 27.9197 8.24567C27.9057 9.95955 27.5611 12.4124 26.4837 13.8018C26.2586 14.0921 26.004 14.3358 25.7137 14.5221L25.7121 14.5206C25.414 14.7131 25.0818 14.8419 24.7139 14.8932V14.8916L24.7092 14.8932L24.6999 14.8947C24.6906 14.8963 24.6813 14.8978 24.6704 14.8978C23.2251 15.0748 22.3806 14.0797 21.8838 12.7058C21.4274 11.4437 21.2737 9.85399 21.2101 8.6462C21.193 8.32019 21.1821 7.99418 21.179 7.66817C21.1604 5.62828 21.4336 3.8849 21.9444 2.63365C22.4908 1.2908 23.3183 0.488192 24.3631 0.430752Z" fill="black"/>
<path d="M24.4578 3.30123C24.4703 3.29968 24.4827 3.29968 24.4951 3.29968C24.5246 3.29813 24.551 3.29968 24.5743 3.30279C25.0353 3.35402 25.2962 3.93773 25.4328 4.74654C25.5461 5.41409 25.5958 6.27413 25.6128 7.06898C25.6191 7.36704 25.6222 7.6589 25.6206 7.92747C25.6175 8.88532 25.5368 10.2452 25.2868 11.0432C25.2325 11.2217 25.1658 11.377 25.0897 11.5043C24.9919 11.6657 24.8723 11.7853 24.7264 11.8505C24.6954 11.8644 24.6674 11.8737 24.6426 11.8815H24.641C24.0464 12.0523 23.7453 11.3956 23.6025 10.4688C23.4907 9.75002 23.4534 8.8434 23.4379 8.15567C23.3944 6.25861 23.5341 4.72791 23.8027 3.9843C23.8648 3.80888 23.9378 3.66605 24.0201 3.56049V3.56204C24.1411 3.4068 24.2871 3.31831 24.4578 3.30123ZM24.5417 4.06969C24.5199 4.1116 24.4967 4.16594 24.4734 4.22959C24.2343 4.89558 24.1117 6.33002 24.152 8.1417C24.1675 8.80769 24.2032 9.68016 24.3073 10.3586C24.374 10.7932 24.4299 11.1332 24.4454 11.1814C24.4532 11.1705 24.4641 11.1534 24.4796 11.1286C24.523 11.0556 24.565 10.9531 24.6038 10.829C24.8304 10.104 24.9034 8.83098 24.9065 7.92747C24.908 7.66666 24.9049 7.37946 24.8987 7.08295C24.8817 6.32226 24.8351 5.50102 24.728 4.86608C24.6628 4.48108 24.5976 4.18457 24.5417 4.06969Z" fill="black"/>
<path d="M28.042 5.10747L28.2127 12.2191C28.2298 12.9022 28.3571 13.371 28.5496 13.6784C28.694 13.9113 28.8772 14.0448 29.0728 14.1022C29.2746 14.1643 29.4981 14.1504 29.7093 14.0883C29.998 14.0013 30.2604 13.8275 30.4296 13.6241C30.5569 13.4719 30.782 13.4518 30.9341 13.5791C30.9745 13.6132 31.0055 13.6551 31.0273 13.6986C31.1297 13.8756 31.33 14.0277 31.5489 14.1007C31.6607 14.1379 31.7724 14.1535 31.8702 14.1379C31.9479 14.124 32.0177 14.0898 32.0705 14.0277C32.1621 13.919 32.2195 13.7281 32.218 13.4285L32.1761 5.11834C32.1745 4.87926 32.0472 4.72557 31.8811 4.66037C31.805 4.62932 31.7197 4.61535 31.6358 4.6169H31.6343C31.5489 4.6169 31.4635 4.63553 31.3828 4.66968C31.181 4.75507 31.0211 4.95843 31.0211 5.28755V10.6853C31.0211 11.2287 30.8503 11.6106 30.6392 11.7969C30.5227 11.8993 30.3923 11.9537 30.2542 11.9599L30.2433 11.9614C30.1005 11.9661 29.9639 11.918 29.8443 11.8171C29.6503 11.6525 29.5012 11.3187 29.4966 10.8157L29.4547 5.16025C29.4531 4.86529 29.2715 4.679 29.0433 4.59672C28.9393 4.56101 28.829 4.54238 28.7188 4.54394C28.6101 4.54549 28.5015 4.56567 28.4006 4.60293L28.4021 4.60448C28.1941 4.68365 28.0357 4.85287 28.042 5.10747ZM27.4986 12.2362L27.3278 5.12454C27.3139 4.51134 27.674 4.11081 28.146 3.92918H28.1475C28.3245 3.86242 28.517 3.82672 28.7126 3.82516C28.9067 3.82206 29.1007 3.85311 29.2808 3.91831C29.7745 4.09373 30.1641 4.50357 30.1688 5.15715L30.2107 10.8126C30.2122 10.9524 30.2231 11.0595 30.2417 11.134C30.279 11.0362 30.3038 10.8872 30.3038 10.6853V5.28755C30.3038 4.62156 30.6593 4.19619 31.1049 4.0068C31.2695 3.93694 31.4449 3.89968 31.6203 3.89657H31.625C31.8035 3.89347 31.9805 3.92452 32.1419 3.98972C32.5626 4.15583 32.8871 4.53462 32.8902 5.11523L32.9321 13.4254C32.9352 13.9128 32.811 14.2606 32.6139 14.4934C32.4415 14.6968 32.2226 14.8086 31.9851 14.8474C31.7678 14.8847 31.5396 14.8567 31.3222 14.7837C31.0832 14.703 30.8518 14.5618 30.6687 14.3848C30.4498 14.5571 30.1874 14.6968 29.9111 14.7791C29.5742 14.8784 29.2109 14.8986 28.8678 14.7946C28.5154 14.6875 28.191 14.4577 27.9442 14.0619C27.688 13.6536 27.5188 13.0606 27.4986 12.2362Z" fill="black"/>
<path d="M33.4549 1.80042C33.4658 1.28191 33.8042 0.952798 34.2373 0.808421C34.2482 0.805317 34.2591 0.802212 34.2715 0.799107C34.4205 0.752534 34.582 0.7308 34.7419 0.729248C34.9142 0.729248 35.0865 0.755639 35.2464 0.806869C35.6857 0.951245 36.0304 1.28502 36.0397 1.81129L36.0801 4.14148L36.0909 4.10112C36.0925 4.09646 36.0925 4.09336 36.094 4.09336C36.4868 4.20824 37.0627 4.37745 37.1031 5.35859C37.1512 6.60053 36.7259 6.78061 36.3455 6.94206C36.2539 6.98087 36.1685 7.01658 36.167 7.2184L36.1251 11.2873C36.1204 11.7313 36.462 11.9114 36.6948 12.034C36.8578 12.1194 36.9913 12.1908 37.0814 12.3212C37.218 12.5168 37.2987 12.7295 37.3329 12.9484C37.3825 13.2589 37.3329 13.5756 37.2056 13.8581C37.0783 14.1376 36.8765 14.3844 36.6187 14.566C36.4154 14.7089 36.1748 14.8098 35.9093 14.8532C35.8177 14.8688 35.7323 14.875 35.6516 14.875C35.116 14.875 34.6021 14.6126 34.2016 14.2012C33.8166 13.8069 33.5325 13.2698 33.4425 12.7016C33.4223 12.5681 33.4099 12.4377 33.4099 12.3135H33.4114V7.25721H33.4099C33.4099 7.18114 33.264 7.11749 33.1273 7.05694C32.8914 6.95293 32.6663 6.85513 32.5498 6.59122L32.5483 6.58966L32.5452 6.58035C32.5421 6.57414 32.539 6.56793 32.5374 6.56172C32.5064 6.48875 32.4815 6.41734 32.4613 6.34748C32.4396 6.27452 32.4225 6.19379 32.4086 6.10841C32.3434 5.70323 32.3961 5.26544 32.5436 4.89596L32.5452 4.89441H32.5436L32.5483 4.8851C32.5514 4.87889 32.5545 4.87268 32.5576 4.86647L32.5607 4.85871C32.674 4.62274 32.9053 4.48612 33.1367 4.35106C33.2748 4.27034 33.4114 4.23153 33.4114 4.21134L33.4549 1.81129V1.80042ZM34.4609 1.49459C34.2979 1.54893 34.1706 1.65915 34.169 1.8206V1.82371L34.1255 4.22221C34.1193 4.60876 33.8073 4.79195 33.4953 4.97514C33.3649 5.05121 33.236 5.12728 33.2081 5.16453V5.16609C33.1056 5.41913 33.0699 5.71875 33.1149 5.99508C33.1227 6.04321 33.1335 6.09444 33.1491 6.15033C33.163 6.19535 33.177 6.23726 33.1925 6.27607C33.1956 6.28073 33.1972 6.28539 33.2003 6.29004L33.2034 6.29936C33.2158 6.31023 33.3121 6.35214 33.413 6.39716C33.7592 6.5493 34.1271 6.71075 34.1271 7.25721H34.1255V12.3135H34.1271C34.1271 12.4097 34.1349 12.5029 34.1488 12.5882C34.2156 13.0058 34.4252 13.4033 34.7108 13.6967C34.9825 13.9746 35.3178 14.1531 35.6516 14.1531C35.7044 14.1531 35.7525 14.15 35.796 14.1422C35.9497 14.1174 36.0894 14.0568 36.2105 13.973C36.3626 13.8659 36.4821 13.7215 36.5551 13.5585C36.6265 13.4017 36.6545 13.2294 36.6281 13.0602C36.611 12.95 36.5675 12.8382 36.4946 12.7326C36.4868 12.7218 36.4387 12.7109 36.3642 12.6721C35.9745 12.4672 35.4016 12.1644 35.411 11.2827L35.4529 7.21219C35.4606 6.53688 35.7494 6.41424 36.0692 6.27918C36.2337 6.20932 36.4185 6.13014 36.389 5.38653C36.3704 4.92391 36.0878 4.84163 35.8953 4.78419C35.5988 4.69725 35.3737 4.63205 35.3675 4.26568L35.3256 1.82371C35.3225 1.65915 35.1921 1.54738 35.0244 1.49304C34.9359 1.46355 34.8381 1.44957 34.7419 1.44957C34.6534 1.44957 34.5664 1.46044 34.4857 1.48528C34.478 1.48839 34.4702 1.49149 34.4609 1.49459ZM36.0801 4.14148L36.0816 4.25326C36.0847 4.40074 36.0847 4.15235 36.0909 4.10112L36.0801 4.14148ZM33.205 5.16919C33.2003 5.17851 33.205 5.16919 33.2065 5.16609L33.205 5.16919Z" fill="black"/>
</svg>
