<svg width="100" height="14" viewBox="0 0 100 14" fill="none" xmlns="http://www.w3.org/2000/svg">
<path fill-rule="evenodd" clip-rule="evenodd" d="M2.22905 0L11.6814 0C12.4565 0 12.7375 0.0807028 13.0209 0.232246C13.3043 0.383789 13.5267 0.606172 13.6782 0.889533C13.8297 1.17289 13.9104 1.45396 13.9104 2.22905V11.6814C13.9104 12.4565 13.8297 12.7375 13.6782 13.0209C13.5267 13.3043 13.3043 13.5267 13.0209 13.6782C12.7375 13.8297 12.4565 13.9104 11.6814 13.9104H2.22905C1.45396 13.9104 1.17289 13.8297 0.889533 13.6782C0.606172 13.5267 0.383789 13.3043 0.232246 13.0209C0.0807028 12.7375 0 12.4565 0 11.6814L0 2.22905C0 1.45396 0.0807028 1.17289 0.232246 0.889533C0.383789 0.606172 0.606172 0.383789 0.889533 0.232246C1.17289 0.0807028 1.45396 0 2.22905 0ZM2.88684 3.69496C2.78995 3.69496 2.75482 3.70505 2.7194 3.72399C2.68398 3.74294 2.65618 3.77073 2.63724 3.80615C2.6183 3.84157 2.60821 3.87671 2.60821 3.97359V5.58984C2.60821 5.68672 2.6183 5.72186 2.63724 5.75728C2.65618 5.7927 2.68398 5.8205 2.7194 5.83944C2.75482 5.85838 2.78995 5.86847 2.88684 5.86847H11.0236C11.1205 5.86847 11.1556 5.85838 11.191 5.83944C11.2265 5.8205 11.2543 5.7927 11.2732 5.75728C11.2921 5.72186 11.3022 5.68672 11.3022 5.58984V3.97359C11.3022 3.87671 11.2921 3.84157 11.2732 3.80615C11.2543 3.77073 11.2265 3.74294 11.191 3.72399C11.1556 3.70505 11.1205 3.69496 11.0236 3.69496H2.88684ZM2.88684 8.04198C2.78995 8.04198 2.75482 8.05206 2.7194 8.07101C2.68398 8.08995 2.65618 8.11775 2.63724 8.15317C2.6183 8.18859 2.60821 8.22372 2.60821 8.32061V9.93685C2.60821 10.0337 2.6183 10.0689 2.63724 10.1043C2.65618 10.1397 2.68398 10.1675 2.7194 10.1865C2.75482 10.2054 2.78995 10.2155 2.88684 10.2155H11.0236C11.1205 10.2155 11.1556 10.2054 11.191 10.1865C11.2265 10.1675 11.2543 10.1397 11.2732 10.1043C11.2921 10.0689 11.3022 10.0337 11.3022 9.93685V8.32061C11.3022 8.22372 11.2921 8.18859 11.2732 8.15317C11.2543 8.11775 11.2265 8.08995 11.191 8.07101C11.1556 8.05206 11.1205 8.04198 11.0236 8.04198H2.88684ZM25.3335 3.5602H26.4907V10.3024H25.1805V6.30491L23.6312 9.19306H22.6749L21.1256 6.34316V10.3024H19.8154V3.5602H20.9917L23.1626 7.68204L25.3335 3.5602ZM29.9909 10.3789C29.4936 10.3789 29.0569 10.2785 28.6807 10.0777C28.3046 9.87685 28.0145 9.59314 27.8104 9.22654C27.6064 8.85994 27.5044 8.42799 27.5044 7.93069C27.5044 7.43339 27.6064 7.00145 27.8104 6.63485C28.0145 6.26825 28.3046 5.98613 28.6807 5.78848C29.0569 5.59084 29.4936 5.49202 29.9909 5.49202C30.4882 5.49202 30.9249 5.59084 31.3011 5.78848C31.6773 5.98613 31.9674 6.26825 32.1714 6.63485C32.3754 7.00145 32.4774 7.43339 32.4774 7.93069C32.4774 8.42799 32.3754 8.85994 32.1714 9.22654C31.9674 9.59314 31.6773 9.87685 31.3011 10.0777C30.9249 10.2785 30.4882 10.3789 29.9909 10.3789ZM29.9909 9.27913C30.6922 9.27913 31.0429 8.82966 31.0429 7.93069C31.0429 7.47802 30.952 7.14011 30.7703 6.91697C30.5886 6.69382 30.3288 6.58225 29.9909 6.58225C29.2896 6.58225 28.9389 7.03172 28.9389 7.93069C28.9389 8.82966 29.2896 9.27913 29.9909 9.27913ZM36.3028 5.49202C36.8638 5.49202 37.2814 5.65619 37.5556 5.98453C37.8297 6.31288 37.9668 6.80858 37.9668 7.47165V10.3024H36.5227V7.53859C36.5227 7.21981 36.4638 6.9871 36.3458 6.84046C36.2279 6.69382 36.0446 6.6205 35.7959 6.6205C35.4963 6.6205 35.2556 6.71613 35.0739 6.9074C34.8922 7.09867 34.8013 7.3537 34.8013 7.67248V10.3024H33.3572V5.60678H34.7631V6.27622C34.9288 6.02119 35.144 5.82674 35.4086 5.69285C35.6732 5.55896 35.9712 5.49202 36.3028 5.49202ZM43.2745 8.22716H40.2142C40.2588 8.60332 40.3816 8.87588 40.5824 9.04483C40.7832 9.21379 41.0685 9.29826 41.4383 9.29826C41.6806 9.29826 41.9213 9.25841 42.1604 9.17872C42.3995 9.09902 42.6178 8.98586 42.8155 8.83922L43.198 9.80512C42.9685 9.98364 42.6895 10.1239 42.3612 10.2259C42.0329 10.3279 41.7029 10.3789 41.3714 10.3789C40.5808 10.3789 39.9576 10.1606 39.5017 9.72383C39.0459 9.2871 38.818 8.69258 38.818 7.94025C38.818 7.46208 38.9168 7.03811 39.1144 6.66832C39.3121 6.29853 39.5862 6.01004 39.9369 5.80283C40.2875 5.59562 40.686 5.49202 41.1323 5.49202C41.789 5.49202 42.3102 5.7056 42.6959 6.13277C43.0816 6.55993 43.2745 7.14011 43.2745 7.87331V8.22716ZM41.1706 6.48661C40.8964 6.48661 40.678 6.57428 40.5155 6.74961C40.3529 6.92494 40.2525 7.17837 40.2142 7.5099H42.06C42.0408 7.17199 41.9564 6.91697 41.8065 6.74483C41.6567 6.57268 41.4447 6.48661 41.1706 6.48661ZM47.3007 5.61634H48.7161L45.8853 12.0238H44.4221L45.3211 10.0442L43.3893 5.61634H44.8907L46.0766 8.60013L47.3007 5.61634ZM51.939 3.5602H54.5594C55.2926 3.5602 55.9237 3.69409 56.4529 3.96187C56.9821 4.22964 57.3869 4.61537 57.6675 5.11904C57.948 5.62272 58.0883 6.22521 58.0883 6.92653C58.0883 7.62785 57.9496 8.23194 57.6723 8.7388C57.3949 9.24566 56.9917 9.63298 56.4625 9.90076C55.9333 10.1685 55.2989 10.3024 54.5594 10.3024H51.939V3.5602ZM54.4542 9.09743C55.8887 9.09743 56.6059 8.3738 56.6059 6.92653C56.6059 5.48563 55.8887 4.7652 54.4542 4.7652H53.4309V9.09743H54.4542ZM61.2059 5.49202C61.9073 5.49202 62.4253 5.65778 62.76 5.98931C63.0947 6.32085 63.2621 6.83408 63.2621 7.52903V10.3024H61.8945V9.60429C61.7989 9.84657 61.6395 10.0362 61.4163 10.1733C61.1932 10.3104 60.9318 10.3789 60.6321 10.3789C60.3133 10.3789 60.0249 10.3152 59.7666 10.1877C59.5084 10.0601 59.3044 9.88163 59.1546 9.65211C59.0048 9.42258 58.9298 9.16756 58.9298 8.88703C58.9298 8.54275 59.0175 8.27179 59.1928 8.07414C59.3682 7.8765 59.6503 7.73305 60.0392 7.64379C60.4281 7.55453 60.9605 7.5099 61.6363 7.5099H61.8849V7.33776C61.8849 7.05723 61.8244 6.85959 61.7032 6.74483C61.5821 6.63006 61.3717 6.57268 61.0721 6.57268C60.8425 6.57268 60.5875 6.61412 60.307 6.69701C60.0264 6.77989 59.7587 6.89465 59.5037 7.04129L59.1211 6.07539C59.3889 5.90962 59.7188 5.77095 60.1109 5.65938C60.503 5.5478 60.868 5.49202 61.2059 5.49202ZM60.9477 9.38433C61.2283 9.38433 61.4546 9.29029 61.6267 9.10221C61.7989 8.91413 61.8849 8.67026 61.8849 8.37061V8.20803H61.7224C61.2059 8.20803 60.8441 8.24947 60.6369 8.33235C60.4297 8.41524 60.3261 8.56506 60.3261 8.78184C60.3261 8.95398 60.3851 9.09743 60.503 9.21219C60.621 9.32695 60.7692 9.38433 60.9477 9.38433ZM66.1502 10.3789C65.7167 10.3789 65.3198 10.3295 64.9596 10.2307C64.5994 10.1319 64.2886 9.99002 64.0271 9.80512L64.4097 8.81053C64.6647 8.98267 64.9452 9.11656 65.2513 9.21219C65.5573 9.30783 65.8665 9.35564 66.1789 9.35564C66.4021 9.35564 66.5758 9.31898 66.7001 9.24566C66.8244 9.17234 66.8866 9.07193 66.8866 8.94441C66.8866 8.82965 66.8436 8.74039 66.7575 8.67664C66.6714 8.61288 66.5105 8.5555 66.2746 8.5045L65.5095 8.33235C65.0568 8.23034 64.7237 8.07255 64.5101 7.85896C64.2965 7.64538 64.1897 7.3537 64.1897 6.98391C64.1897 6.69063 64.2742 6.43242 64.4432 6.20927C64.6121 5.98613 64.8512 5.8108 65.1604 5.68328C65.4696 5.55577 65.8219 5.49202 66.2172 5.49202C66.5551 5.49202 66.8834 5.54302 67.2022 5.64503C67.521 5.74704 67.8079 5.89049 68.0629 6.07539L67.6804 7.03173C67.1831 6.68744 66.6922 6.5153 66.2076 6.5153C65.9845 6.5153 65.8091 6.55356 65.6816 6.63006C65.5541 6.70657 65.4904 6.81496 65.4904 6.95522C65.4904 7.05723 65.5286 7.13693 65.6051 7.19431C65.6816 7.25169 65.8155 7.30588 66.0068 7.35688L66.8005 7.53859C67.2787 7.64698 67.6278 7.81115 67.8477 8.03111C68.0677 8.25107 68.1777 8.54912 68.1777 8.92529C68.1777 9.37796 67.9976 9.7334 67.6373 9.99161C67.2771 10.2498 66.7814 10.3789 66.1502 10.3789ZM71.9457 5.49202C72.5067 5.49202 72.9243 5.65619 73.1985 5.98453C73.4726 6.31288 73.6097 6.80858 73.6097 7.47165V10.3024H72.1656V7.53859C72.1656 7.21981 72.1067 6.9871 71.9887 6.84046C71.8708 6.69382 71.6875 6.6205 71.4388 6.6205C71.1391 6.6205 70.8985 6.71613 70.7168 6.9074C70.5351 7.09867 70.4442 7.3537 70.4442 7.67248V10.3024H69.0001V3.5602H70.4442V6.2284C70.61 5.98613 70.822 5.80283 71.0802 5.6785C71.3384 5.55418 71.6269 5.49202 71.9457 5.49202ZM77.5976 5.49202C78.0057 5.49202 78.3659 5.59084 78.6783 5.78848C78.9907 5.98613 79.2346 6.26825 79.4099 6.63485C79.5853 7.00145 79.6729 7.42701 79.6729 7.91156C79.6729 8.39611 79.5853 8.82487 79.4099 9.19785C79.2346 9.57082 78.9891 9.86091 78.6735 10.0681C78.3579 10.2753 77.9993 10.3789 77.5976 10.3789C77.2725 10.3789 76.9792 10.3104 76.7178 10.1733C76.4564 10.0362 76.2556 9.84657 76.1153 9.60429V10.3024H74.6904V3.5602H76.1344V6.23796C76.2747 6.00206 76.4739 5.81877 76.7322 5.68807C76.9904 5.55737 77.2789 5.49202 77.5976 5.49202ZM77.1769 9.27913C77.5148 9.27913 77.7762 9.15959 77.9611 8.92051C78.146 8.68142 78.2384 8.34511 78.2384 7.91156C78.2384 7.4844 78.146 7.15765 77.9611 6.93131C77.7762 6.70498 77.5148 6.59181 77.1769 6.59181C76.839 6.59181 76.5776 6.70816 76.3927 6.94088C76.2078 7.17359 76.1153 7.50352 76.1153 7.93069C76.1153 8.36423 76.2078 8.69736 76.3927 8.93007C76.5776 9.16278 76.839 9.27913 77.1769 9.27913ZM82.8097 10.3789C82.3124 10.3789 81.8757 10.2785 81.4995 10.0777C81.1234 9.87685 80.8333 9.59314 80.6293 9.22654C80.4252 8.85994 80.3232 8.42799 80.3232 7.93069C80.3232 7.43339 80.4252 7.00145 80.6293 6.63485C80.8333 6.26825 81.1234 5.98613 81.4995 5.78848C81.8757 5.59084 82.3124 5.49202 82.8097 5.49202C83.307 5.49202 83.7437 5.59084 84.1199 5.78848C84.4961 5.98613 84.7862 6.26825 84.9902 6.63485C85.1942 7.00145 85.2962 7.43339 85.2962 7.93069C85.2962 8.42799 85.1942 8.85994 84.9902 9.22654C84.7862 9.59314 84.4961 9.87685 84.1199 10.0777C83.7437 10.2785 83.307 10.3789 82.8097 10.3789ZM82.8097 9.27913C83.511 9.27913 83.8617 8.82966 83.8617 7.93069C83.8617 7.47802 83.7708 7.14011 83.5891 6.91697C83.4074 6.69382 83.1476 6.58225 82.8097 6.58225C82.1084 6.58225 81.7577 7.03172 81.7577 7.93069C81.7577 8.82966 82.1084 9.27913 82.8097 9.27913ZM88.2609 5.49202C88.9622 5.49202 89.4802 5.65778 89.8149 5.98931C90.1497 6.32085 90.317 6.83408 90.317 7.52903V10.3024H88.9494V9.60429C88.8538 9.84657 88.6944 10.0362 88.4713 10.1733C88.2481 10.3104 87.9867 10.3789 87.6871 10.3789C87.3683 10.3789 87.0798 10.3152 86.8216 10.1877C86.5634 10.0601 86.3593 9.88163 86.2095 9.65211C86.0597 9.42258 85.9848 9.16756 85.9848 8.88703C85.9848 8.54275 86.0724 8.27179 86.2478 8.07414C86.4231 7.8765 86.7052 7.73305 87.0941 7.64379C87.4831 7.55453 88.0154 7.5099 88.6912 7.5099H88.9399V7.33776C88.9399 7.05723 88.8793 6.85959 88.7582 6.74483C88.637 6.63006 88.4266 6.57268 88.127 6.57268C87.8975 6.57268 87.6424 6.61412 87.3619 6.69701C87.0814 6.77989 86.8136 6.89465 86.5586 7.04129L86.176 6.07539C86.4438 5.90962 86.7738 5.77095 87.1659 5.65938C87.558 5.5478 87.923 5.49202 88.2609 5.49202ZM88.0027 9.38433C88.2832 9.38433 88.5095 9.29029 88.6817 9.10221C88.8538 8.91413 88.9399 8.67026 88.9399 8.37061V8.20803H88.7773C88.2609 8.20803 87.8991 8.24947 87.6919 8.33235C87.4846 8.41524 87.381 8.56506 87.381 8.78184C87.381 8.95398 87.44 9.09743 87.558 9.21219C87.6759 9.32695 87.8241 9.38433 88.0027 9.38433ZM94.7544 6.67788L93.9416 6.76395C93.5399 6.80221 93.2562 6.91537 93.0904 7.10345C92.9246 7.29154 92.8418 7.54178 92.8418 7.85418V10.3024H91.3977V5.60678H92.7844V6.40054C93.0203 5.85861 93.508 5.56215 94.2476 5.51114L94.6684 5.48245L94.7544 6.67788ZM99.89 3.5602V10.3024H98.4555V9.60429C98.3152 9.84657 98.116 10.0362 97.8578 10.1733C97.5996 10.3104 97.3079 10.3789 96.9827 10.3789C96.5811 10.3789 96.2224 10.2753 95.9068 10.0681C95.5912 9.86091 95.3458 9.57082 95.1704 9.19785C94.9951 8.82487 94.9075 8.39611 94.9075 7.91156C94.9075 7.42701 94.9951 7.00145 95.1704 6.63485C95.3458 6.26825 95.5896 5.98613 95.9021 5.78848C96.2145 5.59084 96.5747 5.49202 96.9827 5.49202C97.3015 5.49202 97.59 5.55896 97.8482 5.69285C98.1064 5.82674 98.3057 6.01482 98.4459 6.25709V3.5602H99.89ZM97.4035 9.27913C97.7414 9.27913 98.0012 9.16278 98.1829 8.93007C98.3646 8.69736 98.4555 8.36423 98.4555 7.93069C98.4555 7.49715 98.3646 7.16562 98.1829 6.93609C98.0012 6.70657 97.7414 6.59181 97.4035 6.59181C97.0656 6.59181 96.8042 6.70498 96.6193 6.93131C96.4344 7.15765 96.342 7.4844 96.342 7.91156C96.342 8.34511 96.4344 8.68142 96.6193 8.92051C96.8042 9.15959 97.0656 9.27913 97.4035 9.27913Z" fill="black"/>
</svg>
