<svg width="60" height="15" viewBox="0 0 60 15" fill="none" xmlns="http://www.w3.org/2000/svg">
<path fill-rule="evenodd" clip-rule="evenodd" d="M60 0V15H0V0H60ZM44.8481 3.6C44.3325 3.6 43.8386 3.68062 43.3661 3.84169C42.8986 3.99995 42.4638 4.24189 42.0829 4.55569C41.6998 4.87069 41.3919 5.29144 41.1593 5.81756C40.9268 6.34387 40.8103 6.93619 40.8103 7.59506C40.8103 8.22506 40.9266 8.79056 41.1593 9.29175C41.3919 9.79275 41.7034 10.1936 42.0936 10.4944C42.4831 10.7948 42.9207 11.0272 43.3877 11.1818C43.8602 11.3393 44.3541 11.418 44.8697 11.418C45.6572 11.418 46.3838 11.2568 47.0496 10.9348V9.35606C46.5915 9.77137 45.9471 9.97894 45.1164 9.97894C44.7801 9.97894 44.4561 9.93056 44.1448 9.834C43.8403 9.74087 43.5536 9.59752 43.2964 9.40987C43.0421 9.22369 42.84 8.97488 42.6896 8.66344C42.5392 8.35219 42.4641 7.99594 42.4641 7.59488C42.4641 6.75019 42.7236 6.11119 43.2426 5.67806C43.7617 5.24494 44.3863 5.02838 45.1166 5.02838C45.861 5.02838 46.4876 5.22525 46.9959 5.619V4.08337C46.3515 3.76106 45.6356 3.6 44.8481 3.6ZM8.085 3.75038H5.25V11.2676H6.86081V8.79769H8.08519C10.2471 8.79769 11.3282 7.95637 11.3282 6.27394C11.3282 4.5915 10.2472 3.75019 8.08519 3.75019L8.085 3.75038ZM16.2488 3.75038H13.1556V11.2676H14.7664V8.63663H15.9476L17.9775 11.2676H19.8353L17.5909 8.43262C18.6863 8.08181 19.2339 7.33725 19.2339 6.19875C19.2339 5.74069 19.1497 5.34694 18.9816 5.0175C18.8132 4.68825 18.5807 4.434 18.2835 4.25513C17.9906 4.07783 17.6717 3.94739 17.3385 3.8685C17.0055 3.78975 16.6421 3.75038 16.2484 3.75038H16.2488ZM23.1019 3.75038H21.4913V11.2676H23.1019V3.75038ZM26.616 3.75038H24.8762L27.7972 11.2676H29.451L32.3827 3.75038H30.6431L28.6241 9.37762L26.616 3.75038ZM37.0716 3.75038H35.3319L32.2605 11.2676H33.9251L34.4835 9.86081H37.92L38.4675 11.2676H40.1321L37.0716 3.75038ZM50.01 3.75038H48.195L51.1376 8.60437V11.2676H52.7378V8.60437L55.6695 3.75038H53.8545L51.9322 7.12238L50.01 3.75038ZM36.2018 5.24306C36.2374 5.43637 36.2912 5.63325 36.3628 5.83369L37.4153 8.52919H34.9883L36.0298 5.83369C36.1014 5.66194 36.1588 5.46506 36.2018 5.24306ZM8.16019 5.16806C9.17681 5.16806 9.68513 5.53669 9.68513 6.27394C9.68513 7.01137 9.177 7.38019 8.16019 7.38019H6.86081V5.16788L8.16019 5.16806ZM16.3239 5.16806C16.6961 5.16806 17.0004 5.25375 17.2367 5.42569C17.4729 5.59744 17.5911 5.86594 17.5911 6.231C17.5911 6.58912 17.4711 6.85575 17.2313 7.03106C16.9913 7.20656 16.689 7.29431 16.3237 7.29431H14.7666V5.16806H16.3239Z" fill="black"/>
</svg>
