<svg width="50" height="14" viewBox="0 0 50 14" fill="none" xmlns="http://www.w3.org/2000/svg">
<path d="M35.425 4.60295C35.425 4.72065 35.425 4.84456 35.425 4.96226C35.4188 6.37475 35.4127 7.78724 35.3941 9.20592C35.3941 9.40417 35.3321 9.6148 35.2454 9.80065C35.0038 10.3458 34.409 10.5688 33.9072 10.2467C33.5975 10.0485 33.3187 9.75729 33.1205 9.44753C32.2222 8.04124 31.3548 6.61017 30.4751 5.19148C30.3388 4.96846 30.1716 4.76402 30.0167 4.55339C29.9919 4.56578 29.9671 4.57197 29.9424 4.58436C29.9424 6.41192 29.9424 8.23948 29.9424 10.0856C29.5397 10.0856 29.1742 10.0856 28.7777 10.0856C28.7777 7.76246 28.7777 5.43309 28.7777 3.09134C29.6946 2.93026 30.4813 3.19046 31.0327 3.94626C31.5531 4.6587 32.0053 5.4269 32.4762 6.17651C33.0399 7.0748 33.5913 7.97929 34.2108 8.87758C34.2108 6.9509 34.2108 5.02422 34.2108 3.09753C35.0224 2.97363 35.7224 3.10373 36.2676 3.68607C36.5402 3.97724 36.788 4.29939 36.9986 4.64012C37.8349 5.96587 38.6527 7.30402 39.4767 8.63597C39.5324 8.7289 39.5944 8.81563 39.7121 8.88997C39.7121 6.96948 39.7121 5.049 39.7121 3.10373C40.1148 3.10373 40.4927 3.10373 40.9015 3.10373C40.9015 3.21524 40.9015 3.31436 40.9015 3.41348C40.9015 5.22246 40.9077 7.02524 40.8953 8.83422C40.8953 9.13778 40.852 9.45992 40.7528 9.7387C40.5298 10.352 39.8917 10.5874 39.3404 10.2281C39.0492 10.0361 38.789 9.75729 38.6031 9.45992C37.6987 8.04124 36.8313 6.60397 35.9454 5.17909C35.8153 4.97465 35.6605 4.78261 35.518 4.58436C35.487 4.58436 35.456 4.59056 35.425 4.60295Z" fill="black"/>
<path d="M0.292557 11.2752C0.70763 11.2752 1.09173 11.2752 1.47582 11.2752C1.49441 11.3185 1.5068 11.3557 1.51919 11.3867C1.94665 12.5266 2.7768 13.0532 3.99104 12.954C5.36017 12.8425 6.11597 12.0805 6.25846 10.6061C6.30182 10.1724 6.26465 9.72638 6.26465 9.21838C6.12836 9.36087 6.02924 9.47857 5.91773 9.5777C3.94768 11.3061 0.837727 10.3149 0.150069 7.74394C-0.302175 6.06506 0.292557 4.31184 1.59973 3.42594C2.77061 2.63297 4.82119 2.4595 6.11597 3.90916C6.14695 3.94633 6.19031 3.97731 6.26465 4.05165C6.26465 3.71092 6.26465 3.41355 6.26465 3.08521C6.67353 3.08521 7.04524 3.08521 7.43553 3.08521C7.44173 3.12238 7.46031 3.15955 7.46031 3.19672C7.46031 5.6314 7.4727 8.06609 7.44173 10.5008C7.43553 11.3185 7.21251 12.0929 6.7107 12.762C6.17792 13.4744 5.4407 13.8214 4.57958 13.9391C3.59456 14.0754 2.64051 14.0072 1.767 13.4868C0.936849 12.9974 0.472215 12.2478 0.292557 11.2752ZM3.73085 3.86579C2.16348 3.97111 1.11031 5.21014 1.22802 6.80848C1.33334 8.25814 2.29978 9.43521 3.87953 9.38565C5.40973 9.33609 6.50626 8.00414 6.38856 6.43677C6.27085 4.8694 5.13095 3.77287 3.73085 3.86579Z" fill="black"/>
<path d="M48.1622 4.00819C48.1622 3.67985 48.1622 3.40727 48.1622 3.10371C48.5525 3.10371 48.9304 3.10371 49.3207 3.10371C49.3207 5.42068 49.3207 7.73766 49.3207 10.0732C48.9428 10.0732 48.5711 10.0732 48.1684 10.0732C48.1684 9.79444 48.1684 9.53424 48.1684 9.2121C48.0879 9.27405 48.0445 9.29883 48.0136 9.3298C46.3595 11.1078 43.0389 10.544 42.1654 7.86775C41.5644 6.02161 42.3079 4.04537 43.9124 3.24C45.139 2.62049 46.8737 2.57093 48.0383 3.92146C48.0569 3.94005 48.0879 3.95244 48.1622 4.00819ZM43.1876 6.65971C43.2185 7.50224 43.5035 8.32 44.2965 8.87756C45.7462 9.89975 47.8153 9.04483 48.2056 7.27302C48.5216 5.87293 47.8525 4.45424 46.6506 4.01439C45.1328 3.46302 43.2309 4.30556 43.1876 6.65971Z" fill="black"/>
<path d="M27.5325 8.46875C26.9935 9.41041 26.2749 10.0485 25.2589 10.2591C22.9295 10.7486 20.9471 9.32988 20.7055 7.0067C20.5568 5.56944 20.9595 4.33041 22.1489 3.4631C24.2491 1.9267 27.1732 3.17192 27.5883 5.74909C27.6316 6.01549 27.6378 6.28188 27.6502 6.54827C27.6564 6.65978 27.6378 6.77129 27.6316 6.92617C26.659 6.92617 25.7049 6.92617 24.7509 6.92617C23.803 6.92617 22.8552 6.92617 21.9135 6.92617C21.8702 7.88641 22.6507 8.90861 23.6791 9.19978C24.565 9.45378 25.3766 9.31748 26.0395 8.61744C26.1014 8.55549 26.182 8.47495 26.2625 8.46875C26.659 8.45636 27.0679 8.46875 27.5325 8.46875ZM26.3926 5.92256C26.3492 4.76407 25.2837 3.81622 24.0756 3.85958C22.9419 3.89675 21.9197 4.88178 21.9445 5.92256C23.4251 5.92256 24.9058 5.92256 26.3926 5.92256Z" fill="black"/>
<path d="M16.0777 6.61637C16.0777 8.75988 14.4422 10.4016 12.2987 10.4016C10.1552 10.4078 8.50729 8.74749 8.50729 6.59158C8.50729 4.43568 10.1304 2.82495 12.2987 2.82495C14.498 2.83115 16.0777 4.4171 16.0777 6.61637ZM12.2925 3.89051C10.8119 3.89051 9.72773 5.0428 9.73393 6.61017C9.74012 8.11558 10.8738 9.32983 12.2863 9.33602C13.7422 9.34222 14.8511 8.16515 14.8511 6.61017C14.8573 5.049 13.767 3.89051 12.2925 3.89051Z" fill="black"/>
<path d="M18.785 0.978829C18.785 4.00205 18.785 6.9819 18.785 9.97415C18.3885 9.97415 18.0106 9.97415 17.6142 9.97415C17.6142 6.97571 17.6142 3.99585 17.6142 0.985024C16.7778 0.985024 15.9539 0.985024 15.1237 0.985024C15.1237 0.638098 15.1237 0.322146 15.1237 0C17.1805 0 19.2249 0 21.2817 0C21.2817 0.328341 21.2817 0.644293 21.2817 0.978829C20.4515 0.978829 19.64 0.978829 18.785 0.978829Z" fill="black"/>
</svg>
