<svg width="85" height="11" viewBox="0 0 85 11" fill="none" xmlns="http://www.w3.org/2000/svg">
<path fill-rule="evenodd" clip-rule="evenodd" d="M67.0041 3.36554C67.3917 3.27243 68.9125 3.33488 69.4259 3.33488C70.1302 3.33488 71.1204 3.20998 71.5206 3.66984C71.8763 4.0786 71.5195 5.09142 71.3972 5.63076C71.2325 6.35404 70.9764 6.76393 70.1874 6.83092C69.459 6.89337 68.4711 6.83887 67.7153 6.83887C67.0887 6.83887 65.8721 6.9808 65.5885 6.54706C65.2558 6.03725 65.576 5.12208 65.7132 4.52597C65.8115 4.10131 65.895 3.97641 66.1751 3.75613C66.3821 3.59263 66.6839 3.44275 67.0041 3.36554ZM66.2048 1.64874C65.0946 1.74639 63.9649 2.77283 63.6859 3.61647C63.5121 4.14332 63.3852 4.89158 63.2628 5.44795C63.1279 6.06336 62.8912 6.72646 63.0913 7.37026C63.5498 8.8384 65.0408 8.64537 66.3055 8.64537C67.4832 8.64537 69.8089 8.6942 70.838 8.6431C71.5595 8.6079 72.5429 7.96524 72.9454 7.42136C73.4873 6.69013 73.5365 5.83173 73.7618 4.83254C73.8956 4.24437 74.1334 3.51088 73.9287 2.89206C73.7595 2.38338 73.3078 1.99051 72.8024 1.80316C72.1587 1.56585 71.4429 1.64193 70.7088 1.64193C69.873 1.64193 66.7697 1.59992 66.2048 1.64874Z" fill="black"/>
<path fill-rule="evenodd" clip-rule="evenodd" d="M74.7512 3.26442L80.7542 3.26669C81.2653 3.26669 82.3573 3.1259 82.0897 3.85145C81.8793 4.42144 81.0458 4.29427 80.5404 4.29427C78.608 4.29427 76.376 4.24772 74.5122 4.29768L73.5506 8.64418L75.7528 8.64531L76.344 5.97133L79.1797 5.9736L81.2047 8.64531L84.0793 8.64418C83.9935 8.46818 83.7305 8.1582 83.5956 7.98221C83.4264 7.7608 83.2606 7.53825 83.0811 7.30321L82.0931 5.97814C82.6934 5.83054 83.2412 5.90093 83.6585 5.53645C84.1067 5.14586 84.1319 4.78592 84.2794 4.11487C84.5138 3.05323 84.8522 2.38899 84.1033 1.83035C83.8849 1.66798 83.5888 1.643 83.2766 1.64187C80.5575 1.63278 77.8362 1.63846 75.1182 1.64187L74.7512 3.26442Z" fill="black"/>
<path fill-rule="evenodd" clip-rule="evenodd" d="M29.0689 8.64527C29.1719 8.58395 29.1227 8.67933 29.1741 8.48403L29.4874 6.99092C28.2365 6.98865 26.9856 6.99092 25.7347 6.99092C25.1184 6.99092 24.4632 7.01249 23.8526 6.99092C22.8693 6.95685 23.242 6.22222 23.2889 5.91565H29.5343L29.8876 4.33283L23.6228 4.32943C23.6262 2.91012 25.3082 3.24053 26.3339 3.24053C27.6065 3.24053 28.9009 3.26211 30.1724 3.23826L30.5302 1.64523C28.4789 1.64182 26.3979 1.60095 24.3649 1.64182C23.5588 1.65885 22.7046 2.28449 22.2907 2.62966C21.6481 3.16446 21.6207 3.77533 21.3908 4.78928C21.2319 5.4944 20.842 6.70024 21.0672 7.37129C21.3085 8.08776 21.9225 8.62483 22.8704 8.64413C24.9183 8.68728 27.0165 8.64527 29.0689 8.64527Z" fill="black"/>
<path fill-rule="evenodd" clip-rule="evenodd" d="M46.9829 8.64529H52.1661C52.9596 8.64529 53.5474 8.13774 53.9338 7.77213C54.4953 7.24074 54.581 6.9671 54.7971 5.99515C55.0784 4.73708 55.7508 1.64185 55.7508 1.64185H53.5314C53.401 2.16756 52.6292 5.94292 52.444 6.20862C52.2393 6.50383 51.7911 6.92168 51.2571 6.92168H48.2224C47.7296 6.92168 47.2882 6.55606 47.2711 6.0928C47.2619 5.84641 47.8028 3.57097 47.8977 3.1395C47.9892 2.72847 48.1938 2.02222 48.219 1.64185H46.0854C46.0854 1.64185 45.453 4.43732 45.158 5.76579C44.9785 6.57083 44.8436 7.08859 45.2827 7.77894C45.5994 8.2774 46.1128 8.64529 46.9829 8.64529Z" fill="black"/>
<path fill-rule="evenodd" clip-rule="evenodd" d="M20.8601 8.64185C20.8075 8.28192 20.4394 8.49425 20.1615 6.9137C18.9986 6.87056 17.7569 6.9103 16.586 6.9103C15.94 6.9103 15.4506 6.92733 15.2208 6.46861C15.0195 6.06439 15.2585 5.41037 15.3568 4.95733C15.4952 4.31807 15.51 4.04216 15.916 3.7265C16.3596 3.38019 16.5471 3.27686 17.2698 3.278C18.4807 3.27913 19.6927 3.278 20.9036 3.278C21.0831 2.89308 21.1803 2.63306 21.457 2.35374C21.5988 2.21181 21.6823 2.13233 21.8275 1.99721C21.9693 1.86437 22.1271 1.76331 22.23 1.64295C20.1809 1.62706 18.1228 1.63955 16.0726 1.64182C15.5878 1.64182 15.2493 1.78148 14.8937 1.9904C13.4118 2.86129 13.4656 3.45059 13.1511 4.84605C12.9934 5.54208 12.6114 6.73657 12.823 7.40876C13.0471 8.12409 13.7343 8.56464 14.6616 8.63277C15.3751 8.68614 19.9363 8.66343 20.8601 8.64185Z" fill="black"/>
<path fill-rule="evenodd" clip-rule="evenodd" d="M62.9317 8.64298C62.839 8.46585 62.6675 8.38069 62.4366 7.89586C62.2799 7.56771 62.2662 7.2918 62.1907 6.91029C61.069 6.91029 59.9462 6.90915 58.8233 6.91029C58.2505 6.91029 57.8251 6.83648 57.6524 6.40388C57.5095 6.04848 57.8308 4.85399 57.9577 4.34304C58.0904 3.80711 58.8096 3.29161 59.4636 3.27799C60.5933 3.25301 61.7516 3.27799 62.8848 3.27799C62.9785 3.25982 63.2232 2.72048 63.4725 2.3878C63.6703 2.12324 64.17 1.69972 64.2112 1.64294L58.279 1.64635C57.609 1.70766 56.6702 2.41391 56.4004 2.70686C56.1568 2.97142 56.0128 3.26096 55.9076 3.58797L55.2627 6.42886C55.2124 6.76722 55.1998 7.08628 55.2673 7.33154C55.7441 9.06196 58.2333 8.64525 59.9347 8.64525C60.9307 8.64525 61.9369 8.66001 62.9317 8.64298Z" fill="black"/>
<path fill-rule="evenodd" clip-rule="evenodd" d="M44.9309 8.64188C44.6736 8.17862 44.4255 8.26151 44.1819 7.00343C43.1391 6.87853 40.7802 7.14423 40.2908 6.87512C40.0256 6.72979 39.7511 6.46069 39.7591 6.04852C39.7729 5.35362 40.7025 1.64185 40.7025 1.64185H38.6134C38.6134 1.64185 37.8862 4.83927 37.5466 6.40278C37.4128 7.11811 37.4528 7.39857 37.821 7.88567C38.0543 8.19565 38.4568 8.58965 39.0285 8.63848C39.5133 8.68049 44.438 8.65664 44.9309 8.64188Z" fill="black"/>
<path fill-rule="evenodd" clip-rule="evenodd" d="M37.3921 8.63159C37.0045 8.1195 36.7644 7.85948 36.6329 6.99087C35.7502 6.99087 34.8675 6.99087 33.9859 6.99087C33.5594 6.99087 33.1283 7.05105 32.7796 6.86483C31.9666 6.43109 32.3108 5.67375 32.4891 4.90164L33.2049 1.64518L31.1067 1.64404C31.1067 1.64404 30.3829 4.84828 30.0422 6.41747C29.8913 7.11122 29.9393 7.37465 30.3097 7.87311C31.0633 8.8882 31.906 8.64521 33.4725 8.64521C34.1139 8.64521 37.0137 8.67928 37.3921 8.63159Z" fill="black"/>
<path fill-rule="evenodd" clip-rule="evenodd" d="M0.238754 4.49525L2.9281 4.50547C3.15221 4.04448 3.44722 3.6255 3.74451 3.39954C4.07724 3.14747 4.49574 2.82728 5.04344 2.73076L5.50081 0.00341797C4.08068 0.128317 2.88236 0.83343 2.11626 1.52719C1.33988 2.23003 0.428563 3.36094 0.238754 4.49525Z" fill="black"/>
<path fill-rule="evenodd" clip-rule="evenodd" d="M0.174945 7.36119C0.571714 8.70897 1.57908 9.6934 2.92375 10.1078C3.11584 10.1669 3.60066 10.2679 3.80076 10.2679L4.24212 7.5792C4.00772 7.44749 3.52633 7.33848 3.22447 6.96492C2.99464 6.67879 2.78082 6.29955 2.72593 5.79541L0 5.79768C0 6.49258 0.0743229 6.98195 0.174945 7.36119Z" fill="black"/>
<path fill-rule="evenodd" clip-rule="evenodd" d="M6.33195 2.7228C6.47259 2.75119 6.64525 2.80683 6.91624 2.95784C7.53941 3.30415 7.7315 3.79012 7.89158 4.49524L10.5455 4.50659C10.7707 3.31437 10.1144 2.0052 9.55299 1.40228C8.83148 0.627903 7.95562 0.115816 6.77903 0L6.33195 2.7228Z" fill="black"/>
<path fill-rule="evenodd" clip-rule="evenodd" d="M5.08415 10.2939C5.78736 10.2939 7.20178 9.66259 7.75863 9.29698C8.45727 8.83712 9.14447 8.1797 9.59841 7.47345C9.86369 7.06355 10.2342 6.36298 10.3394 5.78617C10.0764 5.78617 7.65458 5.77368 7.65458 5.77368C7.58369 5.98601 7.47049 6.18926 7.33671 6.37206C6.87591 6.99997 6.29847 7.33946 5.52209 7.57904L5.08415 10.2939Z" fill="black"/>
<path fill-rule="evenodd" clip-rule="evenodd" d="M5.33685 3.94672C3.63886 4.17948 3.64229 6.61388 5.30026 6.34365C6.90563 6.0825 6.91821 3.72985 5.33685 3.94672Z" fill="black"/>
</svg>
