<svg width="156" height="26" viewBox="0 0 156 26" fill="none" xmlns="http://www.w3.org/2000/svg">
<path d="M61.2656 2.64705C61.2656 2.03195 61.5143 1.44204 61.9569 1.00709C62.3995 0.572146 62.9998 0.327796 63.6258 0.327796C64.2517 0.327796 64.8519 0.572146 65.2945 1.00709C65.7371 1.44204 65.9858 2.03195 65.9858 2.64705C65.963 3.24718 65.7044 3.81526 65.2642 4.23191C64.8241 4.64856 64.2369 4.88135 63.6258 4.88135C63.0146 4.88135 62.4273 4.64856 61.9872 4.23191C61.5471 3.81526 61.2884 3.24718 61.2656 2.64705Z" fill="#273B7D"/>
<path d="M98.5039 18.1149C98.5039 16.8277 99.559 15.7875 100.859 15.7875C101.487 15.7875 102.089 16.0326 102.533 16.4687C102.976 16.9049 103.226 17.4964 103.226 18.1133C103.226 18.7301 102.976 19.3216 102.533 19.7578C102.089 20.1939 101.487 20.439 100.859 20.439C99.5607 20.439 98.5039 19.3972 98.5039 18.1133" fill="#499FDD"/>
<path d="M22.5337 17.1086C20.5024 17.1086 19.0889 15.5226 19.0889 13.255C19.0889 10.9891 20.5023 9.40467 22.5353 9.40467C24.5782 9.40467 26.0064 10.9891 26.0064 13.255C26.0064 15.5581 24.6095 17.1086 22.5337 17.1086ZM22.5337 6.01785C18.2343 6.01785 15.1133 9.06227 15.1133 13.255C15.1133 17.4494 18.236 20.4922 22.5337 20.4922C26.8512 20.4922 29.9837 17.4494 29.9837 13.2566C29.9837 9.06227 26.8512 6.01785 22.5353 6.01785H22.5337ZM56.6955 13.6184C56.5459 13.334 56.3568 13.0715 56.1335 12.8383L56.002 12.7043L56.1401 12.5751C56.3373 12.37 56.5394 12.1277 56.7333 11.8467L60.5298 6.30372H55.9215L53.07 10.6402C52.9089 10.8728 52.5836 10.9891 52.0954 10.9891H51.4462V2.79092C51.4462 1.15162 50.4059 0.928738 49.2834 0.928738H47.3604L47.3653 20.279H51.4478V14.4744H51.8308C52.2959 14.4744 52.6114 14.5277 52.7577 14.7764L55.0093 18.953C55.6387 20.0868 56.2649 20.279 57.4449 20.279H60.5726L58.2421 16.4933L56.6972 13.6184H56.6955ZM76.513 5.98555C74.4356 5.98555 73.1109 6.89322 72.368 7.66039L72.1215 7.90588L72.0327 7.57156C71.8158 6.74948 71.0795 6.29888 69.9735 6.29888H68.1442L68.1557 20.2742H72.2102V13.8332C72.2102 13.2033 72.2924 12.6574 72.4633 12.1584C72.9136 10.6483 74.1725 9.70992 75.7454 9.70992C77.0109 9.70992 77.5056 10.3673 77.5056 12.0631V18.1503C77.5056 19.5974 78.1876 20.2742 79.6618 20.2742H81.5913L81.5848 11.3848C81.5848 7.8542 79.8312 5.98716 76.513 5.98716V5.98555ZM63.6755 6.30372H61.7542L61.7674 17.1102V20.279H63.8168L63.8892 20.2822L64.8457 20.279H65.7957V20.2742H65.8022L65.8104 8.42755C65.8104 6.9982 65.1153 6.30534 63.6772 6.30534L63.6755 6.30372ZM38.4576 17.1086C36.4262 17.1086 35.0112 15.5226 35.0112 13.255C35.0112 10.9891 36.4263 9.40467 38.4593 9.40467C40.4972 9.40467 41.9304 10.9891 41.9304 13.255C41.9304 15.5581 40.5334 17.1086 38.4593 17.1086H38.4576ZM38.4576 6.01785C34.1549 6.01785 31.0322 9.06227 31.0322 13.255C31.0322 17.4494 34.1549 20.4922 38.4593 20.4922C42.7702 20.4922 45.9092 17.4494 45.9092 13.2566C45.9092 9.06227 42.7702 6.01785 38.4593 6.01785" fill="#273B7D"/>
<path d="M125.359 17.1086C123.328 17.1086 121.911 15.5226 121.911 13.255C121.911 10.9891 123.328 9.40467 125.359 9.40467C127.4 9.40467 128.832 10.9891 128.832 13.255C128.832 15.5581 127.435 17.1086 125.359 17.1086ZM125.359 6.01785C121.056 6.01785 117.936 9.06228 117.936 13.255C117.936 17.4494 121.056 20.4922 125.359 20.4922C129.672 20.4922 132.809 17.4494 132.809 13.2566C132.809 9.06227 129.67 6.01785 125.359 6.01785Z" fill="#499FDD"/>
<path d="M90.1335 16.4933C87.9164 16.4933 87.1276 14.594 87.1276 12.8126C87.1276 12.0277 87.3296 9.47098 89.9215 9.47098C91.2083 9.47098 92.9225 9.83276 92.9225 12.9434C92.9225 15.878 91.4056 16.4933 90.1335 16.4933ZM95.0278 6.26667C94.2587 6.26667 93.667 6.56869 93.3696 7.11943L93.2578 7.33262L93.0704 7.17111C92.4163 6.61552 91.2429 5.95496 89.338 5.95496C85.5465 5.95496 82.9941 8.75389 82.9941 12.9159C82.9941 17.0764 85.6353 19.9835 89.4137 19.9835C90.7038 19.9835 91.7244 19.6864 92.533 19.0855L92.8452 18.8546V19.2422C92.8452 21.1092 91.6176 22.1397 89.3906 22.1397C88.3075 22.1397 87.3231 21.8812 86.6624 21.6454C85.8045 21.3903 85.2983 21.6018 84.9515 22.4498L84.6294 23.2315L84.1741 24.3749L84.4552 24.5219C85.8817 25.2648 87.7373 25.709 89.4137 25.709C92.865 25.709 96.8981 23.9728 96.8981 19.0855L96.913 6.26667H95.0278Z" fill="#273B7D"/>
<path d="M7.4366 16.9486L4.13645 16.9454V13.0692C4.13645 12.2391 4.46351 11.8094 5.18501 11.7093H7.4366C9.04231 11.7093 10.081 12.7042 10.0826 14.3144C10.081 15.9683 9.0686 16.947 7.4366 16.947V16.9486ZM4.13645 6.48938V5.46865C4.13645 4.57552 4.52105 4.15075 5.36417 4.09584H7.05371C8.50164 4.09584 9.36941 4.94698 9.36941 6.3731C9.36941 7.45843 8.77443 8.72627 7.10628 8.72627H4.13645V6.48938ZM11.6506 10.3591L11.0539 10.0296L11.575 9.59195C12.1814 9.07997 13.1955 7.92842 13.1955 5.94187C13.1955 2.89906 10.796 0.935127 7.08 0.935127H2.35652C1.82504 0.95417 1.32141 1.17344 0.949956 1.54748C0.578505 1.92153 0.367729 2.42168 0.361328 2.94428V20.2095H7.16376C11.2939 20.2095 13.9597 18 13.9597 14.5777C13.9597 12.7349 13.0985 11.1602 11.6506 10.3591Z" fill="#273B7D"/>
<path d="M150.919 6.03231C150.082 6.03534 149.256 6.22312 148.503 6.58178C147.75 6.94044 147.088 7.46081 146.567 8.10446L146.274 8.46947L146.044 8.06085C145.292 6.71549 144 6.03231 142.203 6.03231C140.318 6.03231 139.054 7.06596 138.468 7.67969L138.083 8.08831L137.935 7.55049C137.722 6.77525 137.02 6.35048 135.958 6.35048H134.254L134.237 20.2725H138.108V14.1271C138.108 13.5877 138.177 13.0563 138.313 12.4991C138.683 11.0132 139.699 9.4159 141.406 9.5758C142.458 9.67593 142.974 10.4754 142.974 12.0194V20.2725H146.873V14.1271C146.873 13.4536 146.937 12.9497 147.091 12.4458C147.403 11.0278 148.465 9.57418 150.112 9.57418C151.305 9.57418 151.746 10.2364 151.746 12.0194V18.2375C151.746 19.6426 152.383 20.2725 153.815 20.2725H155.636L155.639 11.3847C155.639 7.83313 154.048 6.03231 150.919 6.03231ZM115.692 15.4385C115.68 15.4531 114.016 17.178 111.822 17.178C109.823 17.178 107.805 15.9731 107.805 13.284C107.805 10.9615 109.369 9.33838 111.611 9.33838C112.338 9.33838 113.166 9.59356 113.296 10.0248L113.314 10.0975C113.397 10.3943 113.577 10.6561 113.826 10.8421C114.076 11.0281 114.381 11.128 114.694 11.1263L116.815 11.1295V9.30769C116.815 6.90446 113.703 6.03231 111.611 6.03231C107.134 6.03231 103.887 9.0945 103.887 13.3131C103.887 17.5284 107.098 20.5874 111.529 20.5874C115.372 20.5874 117.462 18.105 117.482 18.0808L117.594 17.9451L115.914 15.2076L115.692 15.4385Z" fill="#499FDD"/>
</svg>
