<svg width="109" height="30" viewBox="0 0 109 30" fill="none" xmlns="http://www.w3.org/2000/svg">
<path fill-rule="evenodd" clip-rule="evenodd" d="M86.0517 2.43247C86.0517 1.56256 85.3277 0.789551 84.4221 0.789551H82.1561C81.2505 0.789551 80.5254 1.56256 80.5254 2.43247L80.6172 28.3571C80.6154 28.5734 80.654 28.7879 80.7307 28.9881C80.8073 29.1883 80.9206 29.3702 81.0639 29.5231C81.2071 29.6761 81.3775 29.797 81.565 29.8789C81.7525 29.9608 81.9535 30.0019 82.1561 30H84.4221C85.3277 30 86.0517 29.227 86.0517 28.3571V2.43247Z" fill="#005695"/>
<path fill-rule="evenodd" clip-rule="evenodd" d="M89.2109 3.14777V4.44369C89.2109 5.09227 89.5888 5.52632 90.1533 5.52632H106.747C107.118 5.51527 107.472 5.3409 107.734 5.03918C107.997 4.73746 108.149 4.33142 108.158 3.90487V1.6311C108.158 0.764248 107.498 -0.101357 106.747 0.00965036C106.747 0.00965036 90.719 1.84937 90.1533 1.95788C89.5877 1.95788 89.2109 2.4992 89.2109 3.14902V3.14777Z" fill="#005695"/>
<path fill-rule="evenodd" clip-rule="evenodd" d="M75.3695 29.2106C71.2208 29.2106 68.6747 26.1058 68.6747 22.6239V12.5531H67.4489C66.8832 12.5531 66.3164 11.9885 66.3164 11.4239V9.72902C66.3215 9.43122 66.4425 9.1471 66.6539 8.9369C66.8654 8.72671 67.1505 8.60696 67.4489 8.60306H68.6747V2.38915C68.6728 2.17857 68.713 1.96973 68.7928 1.77482C68.8727 1.5799 68.9907 1.40282 69.1399 1.25392C69.2891 1.10501 69.4665 0.987263 69.6618 0.907545C69.8571 0.827826 70.0663 0.787734 70.2773 0.789614H72.6345C73.4825 0.789614 74.1426 1.5417 74.1426 2.38915V8.60306H77.8201C77.9698 8.59726 78.119 8.62243 78.2584 8.67697C78.3979 8.73152 78.5245 8.81427 78.6303 8.92002C78.7362 9.02577 78.819 9.15223 78.8735 9.29145C78.928 9.43068 78.9531 9.57966 78.9471 9.72902V11.4207C78.9432 11.7189 78.8227 12.0039 78.6114 12.2148C78.4001 12.4257 78.1146 12.5459 77.8158 12.5499H74.1426V21.8697C74.1426 23.6567 75.2751 24.9755 77.2544 24.9755H77.6323C77.7947 24.9703 77.9564 24.9983 78.1075 25.0579C78.2587 25.1175 78.3959 25.2075 78.5108 25.3221C78.6257 25.4368 78.7158 25.5738 78.7756 25.7246C78.8353 25.8755 78.8634 26.0369 78.8581 26.199V27.9871C78.8525 28.3099 78.7216 28.6178 78.4929 28.8461C78.2642 29.0743 77.9556 29.205 77.6323 29.2106H75.3695Z" fill="#005695"/>
<path fill-rule="evenodd" clip-rule="evenodd" d="M46.5795 18.8034C46.5795 13.35 43.3008 7.89453 35.8738 7.89453C29.0255 7.89453 25.2637 13.252 25.2637 18.8034C25.2637 24.736 29.3142 29.9998 35.9693 29.9998C40.503 29.9998 44.9401 27.7034 45.8076 23.7807C45.9042 23.3024 45.5188 22.5366 44.8424 22.5366H41.5637C41.2905 22.5338 41.0214 22.6031 40.784 22.7375C40.5467 22.8719 40.3497 23.0665 40.2132 23.3013C39.248 24.6434 37.8985 25.3145 35.9704 25.3145C33.0772 25.3145 31.1479 23.1107 30.9547 20.6259H44.7447C45.9997 20.6259 46.5784 19.956 46.5784 18.8067L46.5795 18.8034ZM31.0502 16.5114C31.2435 14.1192 33.3648 12.301 35.8738 12.301C38.4783 12.301 40.5997 14.1192 40.8896 16.5114H31.0502Z" fill="#005695"/>
<path fill-rule="evenodd" clip-rule="evenodd" d="M108.947 18.8034C108.947 13.35 105.668 7.89453 98.2399 7.89453C91.3916 7.89453 87.6309 13.252 87.6309 18.8034C87.6309 24.736 91.6825 29.9998 98.3376 29.9998C102.87 29.9998 107.306 27.7034 108.175 23.7807C108.272 23.3024 107.885 22.5366 107.211 22.5366H103.932C103.659 22.5337 103.389 22.603 103.152 22.7374C102.914 22.8717 102.717 23.0664 102.58 23.3013C101.616 24.6434 100.266 25.3145 98.2399 25.3145C95.4432 25.3145 93.514 23.1107 93.3208 20.6259H107.114C108.368 20.6259 108.947 19.956 108.947 18.8067V18.8034ZM93.4185 16.5114C93.6107 14.1192 95.7298 12.3021 98.2399 12.3021C100.844 12.3021 102.967 14.1203 103.16 16.5125L93.4185 16.5114Z" fill="#005695"/>
<path fill-rule="evenodd" clip-rule="evenodd" d="M64.2809 1.26983H20.0208C19.7819 1.26983 19.5452 1.31706 19.3244 1.40882C19.1037 1.50057 18.9031 1.63506 18.7342 1.8046C18.5652 1.97413 18.4313 2.17539 18.3399 2.39688C18.2486 2.61836 18.2016 2.85573 18.2018 3.09541L18.2966 20.5834C18.2966 20.5834 8.80965 3.28793 8.3331 2.42271C8.04014 1.92184 7.62081 1.5072 7.11731 1.22052C6.61381 0.933837 6.0439 0.785227 5.46494 0.789647H1.82459C1.58506 0.788918 1.34774 0.835644 1.12626 0.927145C0.904775 1.01865 0.703492 1.15312 0.533962 1.32284C0.364432 1.49257 0.229992 1.6942 0.138361 1.91618C0.0467292 2.13815 -0.000290274 2.37609 1.34824e-06 2.61634V28.1745C1.34824e-06 29.2311 0.772197 30.0001 1.82018 30.0001H4.11911C5.17261 30.0001 5.93929 29.2311 5.93929 28.1745L5.84663 10.3037C5.84663 10.3037 15.4263 27.6943 15.9061 28.367C16.3849 29.3274 17.3402 30.0001 18.6838 30.0001H22.0363C23.0898 30.0001 23.8564 29.2311 23.8564 28.1745V5.59591H64.2809C64.6093 5.58995 64.9227 5.45643 65.155 5.22345C65.3872 4.99047 65.5204 4.6762 65.5263 4.34677V2.52008C65.5209 2.19055 65.3882 1.87601 65.156 1.64276C64.9239 1.40952 64.6105 1.27581 64.282 1.26983H64.2809Z" fill="#005695"/>
<path fill-rule="evenodd" clip-rule="evenodd" d="M56.7963 12.1046C58.7201 12.1046 60.1632 12.7741 60.7402 14.0163C60.9329 14.5912 61.4135 14.687 62.0869 14.687H64.7804C65.1658 14.687 65.7417 14.3038 65.7417 13.7311C65.7417 10.6708 61.9906 7.89453 56.7974 7.89453C51.4171 7.89343 47.8531 10.478 47.8531 14.5009C47.8531 17.6571 50.3539 19.4752 53.3353 20.3375C54.7751 20.6249 57.1817 21.1976 58.3357 21.5808C59.4898 21.8682 60.6438 22.2503 60.6438 23.302C60.6438 25.0233 58.9128 25.5045 56.8927 25.5045C55.0653 25.5045 53.2379 24.7336 52.7572 23.4011C52.4692 22.6303 51.8911 22.5411 51.1225 22.5411H48.4268C47.9462 22.5411 47.3691 23.0179 47.3691 23.5917V23.9749C47.3691 26.9394 51.4094 29.9998 56.9868 29.9998C60.8343 29.9998 66.3165 28.3744 66.3165 23.2084C66.3165 20.1481 64.2964 18.0458 60.9307 17.1857C59.6792 16.8983 56.6025 16.0371 55.9291 15.9402C54.6776 15.5581 53.5247 15.176 53.5247 14.2201C53.5247 12.5946 54.9645 12.1156 56.7941 12.1156L56.7963 12.1046Z" fill="#005695"/>
</svg>
