<svg width="173" height="39" viewBox="0 0 173 39" fill="none" xmlns="http://www.w3.org/2000/svg">
<path d="M42.1264 27.6745C42.1264 27.9311 42.0758 28.1852 41.9775 28.4223C41.8792 28.6594 41.7351 28.8747 41.5534 29.056L32.8172 37.7922C32.7082 37.9029 32.5686 37.9786 32.4164 38.0096C32.2642 38.0406 32.1061 38.0256 31.9625 37.9664C31.8188 37.9072 31.6961 37.8066 31.6099 37.6773C31.5237 37.5481 31.478 37.3961 31.4785 37.2407V17.6638L41.9979 7.20068H42.121L42.1264 27.6745Z" fill="#E44D60"/>
<path d="M35.1517 0.22882C35.0793 0.156286 34.9934 0.0987383 34.8987 0.0594743C34.8041 0.0202102 34.7026 0 34.6002 0C34.4977 0 34.3963 0.0202102 34.3016 0.0594743C34.207 0.0987383 34.121 0.156286 34.0486 0.22882L21.0581 13.2221H20.8867V27.886L21.0688 28.2689L31.4944 17.8432L42.137 7.20068L35.1517 0.22882Z" fill="#E4BD7A"/>
<path d="M0.00398349 27.6745C-0.000607993 28.1906 0.199664 28.6874 0.560876 29.056L9.29712 37.7922C9.40615 37.9029 9.54569 37.9786 9.69792 38.0096C9.85016 38.0406 10.0082 38.0256 10.1518 37.9664C10.2955 37.9072 10.4182 37.8066 10.5044 37.6773C10.5906 37.5481 10.6364 37.3961 10.6358 37.2407V17.6638L0.111078 7.20068H0.00398349V27.6745Z" fill="#1C798A"/>
<path d="M8.06422 0.22882C7.99185 0.156286 7.90588 0.0987383 7.81124 0.0594743C7.7166 0.0202102 7.61515 0 7.51268 0C7.41022 0 7.30877 0.0202102 7.21412 0.0594743C7.11948 0.0987383 7.03352 0.156286 6.96115 0.22882L0 7.18997L10.6398 17.8325L21.0682 28.2581V13.2114L8.06422 0.22882Z" fill="#77B691"/>
<path d="M55.2012 27.9476V8.40282H60.4033V11.0213C61.6027 9.02129 63.3484 8.0387 65.7125 8.0387C68.0766 8.0387 69.8597 9.05609 71.1342 11.1659C73.1716 9.02397 74.7352 8.0387 77.1716 8.0387C81.5732 8.0387 84.0471 10.5126 84.0471 15.0587V27.9369H78.4487V17.3613C78.4487 14.633 77.8651 13.3961 75.7205 13.3961C73.5358 13.3961 72.3738 14.7348 72.3738 17.3613V27.9476H66.7326V17.3613C66.7326 14.633 66.1489 13.3961 64.0043 13.3961C61.8196 13.3961 60.6576 14.7348 60.6576 17.3613V27.9476H55.2012ZM91.0886 10.9597C92.5168 9.51594 94.3395 8.52598 96.3281 8.11396C98.3167 7.70194 100.383 7.88621 102.267 8.64364C104.151 9.40107 105.77 10.698 106.92 12.3717C108.07 14.0454 108.701 16.0215 108.732 18.052C108.732 20.9971 107.75 23.4362 105.787 25.4014C104.824 26.3894 103.668 27.17 102.392 27.6953C101.116 28.2206 99.7456 28.4796 98.3656 28.4563C95.3831 28.4563 92.9841 27.4362 90.9815 25.3264C89.1139 23.397 88.0818 20.8094 88.1087 18.1243C88.1035 16.7919 88.3645 15.4718 88.8762 14.2415C89.3879 13.0113 90.14 11.8955 91.0886 10.9597ZM98.4004 23.0078C100.947 23.0078 103.022 20.8659 103.022 18.2046C103.022 15.5433 100.947 13.3667 98.4004 13.3667C95.8543 13.3667 93.782 15.5085 93.782 18.2046C93.782 20.9008 95.8918 22.9998 98.4004 22.9998V23.0078ZM112.791 27.9476V8.40282H118.248L118.175 11.0213C119.375 9.05609 121.193 8.0387 123.776 8.0387C127.814 8.0387 130.432 10.5849 130.432 15.0587V27.9369H124.687V17.3613C124.687 14.633 124.103 13.3961 121.884 13.3961C119.664 13.3961 118.43 14.7348 118.43 17.3613V27.9476H112.791ZM155.313 10.9597C156.741 9.51375 158.564 8.52185 160.553 8.10858C162.543 7.69531 164.61 7.87909 166.495 8.63683C168.381 9.39458 170 10.6925 171.15 12.3676C172.3 14.0427 172.93 16.0203 172.96 18.052C172.96 20.9971 171.98 23.4362 170.015 25.4014C169.051 26.3894 167.895 27.17 166.619 27.6953C165.343 28.2206 163.973 28.4796 162.593 28.4563C159.61 28.4563 157.209 27.4362 155.209 25.3264C153.344 23.3957 152.315 20.8083 152.344 18.1243C152.337 16.7926 152.597 15.473 153.107 14.2428C153.616 13.0126 154.367 11.8964 155.313 10.9597ZM162.625 23.0078C165.171 23.0078 167.244 20.8659 167.244 18.2046C167.244 15.5433 165.171 13.3667 162.625 13.3667C160.079 13.3667 158.004 15.5085 158.004 18.2046C158.004 20.9008 160.108 22.9998 162.625 22.9998V23.0078ZM134.882 27.9476V23.8726L142.914 13.4684H134.882V8.41353H149.399V13.032L142.304 22.8981H149.533V27.9556L134.882 27.9476Z" fill="#14233C"/>
</svg>
