<svg width="174" height="31" viewBox="0 0 174 31" fill="none" xmlns="http://www.w3.org/2000/svg">
<path d="M68.3857 3.54719C68.3857 2.84139 68.6631 2.16451 69.1567 1.66544C69.6504 1.16637 70.32 0.885989 71.0181 0.885989C71.7162 0.885989 72.3857 1.16637 72.8793 1.66544C73.373 2.16451 73.6503 2.84139 73.6503 3.54719C73.6249 4.23579 73.3364 4.88763 72.8455 5.36571C72.3547 5.8438 71.6997 6.1109 71.0181 6.1109C70.3365 6.1109 69.6814 5.8438 69.1905 5.36571C68.6996 4.88763 68.4112 4.23579 68.3857 3.54719" fill="#004687"/>
<path d="M109.917 21.2967C109.917 19.8197 111.094 18.6263 112.544 18.6263C113.244 18.6263 113.915 18.9074 114.41 19.4079C114.905 19.9083 115.183 20.5871 115.183 21.2949C115.183 22.0026 114.905 22.6814 114.41 23.1819C113.915 23.6823 113.244 23.9635 112.544 23.9635C111.096 23.9635 109.917 22.7682 109.917 21.2949" fill="#8BCCFB"/>
<path d="M25.1854 20.1419C22.9198 20.1419 21.3433 18.3221 21.3433 15.7202C21.3433 13.1201 22.9197 11.3022 25.1872 11.3022C27.4657 11.3022 29.0586 13.1201 29.0586 15.7202C29.0586 18.3629 27.5006 20.1419 25.1854 20.1419V20.1419ZM25.1854 7.416C20.3902 7.416 16.9092 10.9093 16.9092 15.7202C16.9092 20.533 20.392 24.0244 25.1854 24.0244C30.0009 24.0244 33.4946 20.533 33.4946 15.722C33.4946 10.9093 30.0008 7.416 25.1872 7.416H25.1854ZM63.2872 16.1372C63.1204 15.8108 62.9094 15.5096 62.6604 15.2421L62.5137 15.0882L62.6677 14.94C62.8877 14.7046 63.1131 14.4267 63.3294 14.1042L67.5638 7.74402H62.424L59.2435 12.7199C59.0639 12.9867 58.701 13.1201 58.1566 13.1201H57.4325V3.7133C57.4325 1.8323 56.2722 1.57656 55.0202 1.57656H52.8755L52.881 23.7798H57.4343V17.1194H57.8615C58.3802 17.1194 58.7321 17.1805 58.8952 17.4659L61.4065 22.2583C62.1086 23.5592 62.807 23.7798 64.1231 23.7798H67.6114L65.0122 19.4359L63.2891 16.1372H63.2872ZM85.3903 7.37893C83.0733 7.37893 81.5958 8.42043 80.7673 9.3007L80.4924 9.58239L80.3933 9.19878C80.1514 8.2555 79.3302 7.73846 78.0965 7.73846H76.0563L76.0692 23.7742H80.5913V16.3836C80.5913 15.6609 80.6829 15.0345 80.8735 14.4619C81.3758 12.7291 82.7799 11.6524 84.5342 11.6524C85.9456 11.6524 86.4974 12.4067 86.4974 14.3525V21.3372C86.4974 22.9977 87.2581 23.7742 88.9023 23.7742H91.0544L91.0471 13.5742C91.0471 9.52309 89.0912 7.38079 85.3903 7.38079V7.37893ZM71.0722 7.74402H68.9294L68.944 20.1438V23.7798H71.2299L71.3105 23.7835L72.3774 23.7798H73.4369V23.7742H73.4442L73.4534 10.181C73.4534 8.54089 72.678 7.74587 71.0741 7.74587L71.0722 7.74402ZM42.9458 20.1419C40.6802 20.1419 39.102 18.3221 39.102 15.7202C39.102 13.1201 40.6803 11.3022 42.9477 11.3022C45.2207 11.3022 46.8192 13.1201 46.8192 15.7202C46.8192 18.3629 45.2611 20.1419 42.9477 20.1419H42.9458ZM42.9458 7.416C38.1469 7.416 34.6641 10.9093 34.6641 15.7202C34.6641 20.533 38.147 24.0244 42.9477 24.0244C47.7559 24.0244 51.2569 20.533 51.2569 15.722C51.2569 10.9093 47.7559 7.416 42.9477 7.416" fill="#004687"/>
<path d="M139.869 20.1419C137.603 20.1419 136.023 18.3221 136.023 15.7202C136.023 13.1202 137.603 11.3022 139.869 11.3022C142.145 11.3022 143.742 13.1202 143.742 15.7202C143.742 18.3629 142.184 20.1419 139.869 20.1419ZM139.869 7.416C135.07 7.416 131.589 10.9093 131.589 15.7202C131.589 20.533 135.07 24.0244 139.869 24.0244C144.679 24.0244 148.178 20.533 148.178 15.722C148.178 10.9093 144.677 7.416 139.869 7.416" fill="#8BCCFB"/>
<path d="M100.581 19.436C98.1081 19.436 97.2283 17.2567 97.2283 15.2126C97.2283 14.3119 97.4537 11.3783 100.344 11.3783C101.78 11.3783 103.692 11.7934 103.692 15.3627C103.692 18.73 102 19.436 100.581 19.436V19.436ZM106.04 7.70158C105.182 7.70158 104.522 8.04813 104.19 8.68007L104.066 8.92469L103.857 8.73937C103.127 8.10187 101.818 7.34391 99.6937 7.34391C95.4649 7.34391 92.6182 10.5555 92.6182 15.3312C92.6182 20.1051 95.5639 23.4408 99.7781 23.4408C101.217 23.4408 102.355 23.0998 103.257 22.4104L103.605 22.1454V22.5902C103.605 24.7325 102.236 25.9148 99.7524 25.9148C98.5444 25.9148 97.4464 25.6183 96.7095 25.3478C95.7527 25.0549 95.1881 25.2977 94.8013 26.2706L94.442 27.1676L93.9342 28.4797L94.2477 28.6483C95.8388 29.5008 97.9084 30.0104 99.7781 30.0104C103.627 30.0104 108.126 28.0182 108.126 22.4104L108.142 7.70158H106.04" fill="#004687"/>
<path d="M8.34734 19.9578L4.66658 19.9541V15.5064C4.66658 14.5539 5.03135 14.0609 5.83606 13.946H8.34734C10.1382 13.946 11.2967 15.0876 11.2985 16.9352C11.2967 18.8329 10.1676 19.9559 8.34734 19.9559V19.9578ZM4.66658 7.95647V6.78525C4.66658 5.76043 5.09553 5.27304 6.03588 5.21003H7.92029C9.53521 5.21003 10.5031 6.18666 10.5031 7.82304C10.5031 9.06839 9.83947 10.5232 7.97892 10.5232H4.66658V7.95647V7.95647ZM13.0473 12.3967L12.3819 12.0187L12.963 11.5165C13.6394 10.929 14.7704 9.60767 14.7704 7.32823C14.7704 3.83681 12.0941 1.58331 7.9496 1.58331H2.68136C2.08858 1.60516 1.52686 1.85676 1.11257 2.28595C0.698279 2.71515 0.463193 3.28904 0.456055 3.88869V23.6994H8.04302C12.6495 23.6994 15.6227 21.1642 15.6227 17.2373C15.6227 15.1228 14.6623 13.3159 13.0473 12.3967" fill="#004687"/>
<path d="M168.374 7.43125C167.44 7.43473 166.519 7.6502 165.679 8.06173C164.839 8.47327 164.101 9.07036 163.52 9.80891L163.193 10.2277L162.937 9.75887C162.097 8.21516 160.656 7.43125 158.653 7.43125C156.55 7.43125 155.141 8.6173 154.486 9.32152L154.057 9.79038L153.892 9.17326C153.654 8.28373 152.871 7.79634 151.687 7.79634H149.786L149.768 23.7709H154.085V16.7195C154.085 16.1005 154.162 15.4908 154.314 14.8515C154.726 13.1465 155.859 11.3137 157.764 11.4972C158.937 11.6121 159.513 12.5294 159.513 14.3011V23.7709H163.861V16.7195C163.861 15.9467 163.932 15.3685 164.104 14.7903C164.453 13.1632 165.637 11.4953 167.474 11.4953C168.804 11.4953 169.296 12.2551 169.296 14.3011V21.4359C169.296 23.0482 170.007 23.7709 171.603 23.7709H173.634L173.638 13.5728C173.638 9.49757 171.864 7.43125 168.374 7.43125V7.43125ZM129.084 18.2243C129.071 18.241 127.214 20.2202 124.767 20.2202C122.538 20.2202 120.287 18.8377 120.287 15.7521C120.287 13.0872 122.032 11.2248 124.532 11.2248C125.343 11.2248 126.266 11.5176 126.411 12.0124L126.431 12.0958C126.524 12.4364 126.725 12.7367 127.003 12.9502C127.282 13.1636 127.622 13.2782 127.971 13.2762L130.336 13.28V11.1895C130.336 8.43198 126.866 7.43125 124.532 7.43125C119.539 7.43125 115.917 10.9449 115.917 15.7855C115.917 20.6223 119.499 24.1323 124.441 24.1323C128.726 24.1323 131.058 21.2839 131.08 21.2561L131.205 21.1005L129.331 17.9593L129.084 18.2243" fill="#8BCCFB"/>
</svg>
