<svg width="90" height="22" viewBox="0 0 90 22" fill="none" xmlns="http://www.w3.org/2000/svg">
<path d="M5.75279 4.63621V9.00253H14.7104V13.1808H5.75279V21.1474H0.383789V0.377472H15.5375V4.63621H5.75279Z" fill="#F23A00"/>
<path d="M31.407 16.8747V21.1335H17.3047V0.376869H22.6735V16.8747H31.407Z" fill="#F23A00"/>
<path d="M51.0577 10.7612C51.0577 17.5861 47.1046 21.603 41.2731 21.603C35.4555 21.603 31.4883 17.6801 31.4883 10.7612C31.4883 3.93649 35.4414 6.67572e-05 41.2731 6.67572e-05C47.1046 6.67572e-05 51.0577 3.93649 51.0577 10.7612ZM45.3804 10.7343C45.3804 6.18011 43.7684 4.50068 41.287 4.50068C38.8339 4.50068 37.1939 6.18011 37.1939 10.7343C37.1939 15.3425 38.8339 16.9681 41.287 16.9681C43.7684 16.9546 45.3804 15.3425 45.3804 10.7343Z" fill="#F23A00"/>
<path d="M70.3076 0.376869L62.4433 13.5428V21.1335H57.0743V13.5428L49.21 0.376869H55.1398L59.8499 8.92124H60.1302L64.7703 0.390215H70.3076V0.376869Z" fill="#F23A00"/>
<path d="M89.3857 10.2917C89.554 16.7672 85.9793 21.1335 79.4747 21.1335H71.1338V0.376869H78.6476C84.4373 0.376869 89.2454 4.75654 89.3857 10.2917ZM83.8625 10.7349C83.8625 6.26125 81.942 4.87746 78.4375 4.87746H76.5169V16.6329H78.4375C81.9279 16.6329 83.8625 15.276 83.8625 10.7349Z" fill="#F23A00"/>
</svg>
