<svg width="176" height="32" viewBox="0 0 176 32" fill="none" xmlns="http://www.w3.org/2000/svg">
<path fill-rule="evenodd" clip-rule="evenodd" d="M87.5076 26.5674C81.7832 26.5674 77.1434 21.8579 77.1434 16.0446C77.1434 10.2604 81.7832 5.55088 87.5076 5.55088C92.2661 5.55088 95.7604 8.2833 97.0852 12.2653H94.4052C93.2597 9.73697 90.9109 7.90564 87.5063 7.90564C83.1991 7.90564 79.6744 11.5974 79.6744 16.0446C79.6744 20.4917 83.1991 24.1835 87.5063 24.1835C90.5797 24.1835 93.1397 22.498 94.4052 19.8238H97.0866C95.6707 23.9225 91.9942 26.5674 87.5063 26.5674H87.5076ZM109.975 11.2489H112.536V20.3181C112.536 24.0961 109.704 26.5674 106.06 26.5674C102.414 26.5674 99.5818 24.0961 99.5818 20.3181V11.2489H102.113V20.3181C102.113 22.5563 103.649 24.1835 106.06 24.1835C108.439 24.1835 109.975 22.5563 109.975 20.3181V11.2489ZM149.623 21.5677C148.538 24.7652 145.887 26.5674 142.303 26.5674C137.845 26.5674 134.35 23.1367 134.35 18.7492C134.35 14.416 137.844 10.8699 142.152 10.8699C146.159 10.8699 150.015 14.0675 149.984 19.3879H136.941C137.273 22.498 139.743 24.3293 142.304 24.3293C144.503 24.3293 146.069 23.3116 146.914 21.5677H149.624H149.623ZM147.152 17.1789C146.52 14.7367 144.412 13.1081 142.152 13.1081C140.013 13.1081 137.754 14.6201 137.09 17.1789H147.152V17.1789ZM155.013 26.2746H152.482V17.1749C152.482 13.397 155.253 10.9256 158.959 10.9256C162.664 10.9256 165.405 13.397 165.405 17.1749V26.2746H162.875V17.0888C162.875 14.8493 161.338 13.2221 158.959 13.2221C156.549 13.2221 155.012 14.8506 155.012 17.0888V26.2746H155.013ZM175.457 26.2242C171.887 26.6257 169.418 24.5877 169.418 20.827V13.764H167.334V11.4411H168.049C168.413 11.44 168.762 11.3003 169.018 11.0526C169.275 10.8048 169.419 10.4694 169.418 10.1199V8.28065H171.916V11.4384H175.398V13.7667H171.917V20.8283C171.917 23.4414 173.583 24.1014 175.457 23.9861V26.2255V26.2242ZM122.619 11.2211L123.164 11.2781V13.5215L122.619 13.4871C119.677 13.2287 117.805 14.6055 117.805 17.4439V26.2746H115.308V17.5009C115.308 13.0273 118.606 10.7626 122.619 11.2211ZM132.972 11.2211L133.517 11.2781V13.5215L132.972 13.4871C130.03 13.2287 128.157 14.6055 128.157 17.4439V26.2746H125.662V17.5009C125.662 13.0273 128.96 10.7626 132.972 11.2211V11.2211ZM60.4254 22.4502C58.9308 23.9251 57.4114 25.3761 55.7981 26.7211C54.28 27.9893 52.6612 29.1673 50.8506 29.9849C50.1299 30.3132 49.378 30.5741 48.6052 30.7641C47.826 30.9526 47.0254 31.0474 46.2219 31.0464H46.2191C43.6149 31.0464 41.0715 30.0777 38.8979 28.6227C36.4193 26.9663 34.3672 24.7798 32.2405 22.7033C31.5015 21.9742 30.7379 21.2684 29.951 20.5871C28.6855 19.5032 27.3261 18.5093 25.8288 17.7553C24.2731 16.9846 22.5086 16.6909 20.7736 16.9139C19.4156 17.0994 18.1405 17.6612 16.9508 18.3079C25.0297 10.3266 31.1986 7.51473 36.5201 12.3183C37.8698 13.5374 42.0361 17.4664 42.6751 18.0495C44.8998 20.0836 46.5669 21.4153 48.2202 22.4012C52.1947 24.7705 56.0078 24.915 60.4254 22.4502ZM8.45245 24.5426L0.16383 16.3971C0.0599724 16.2944 0.00130659 16.1572 2.15625e-05 16.0141C-0.00126346 15.871 0.0549311 15.7329 0.15693 15.6285C1.73848 14.033 7.78589 7.95599 10.1361 5.87819C10.6674 5.40777 11.2098 4.94795 11.7646 4.50668C14.3508 2.45273 17.5015 0.726093 21.0124 0.727418C24.2555 0.763196 27.2944 2.58657 29.7398 4.53451C31.1737 5.67412 32.4682 6.99925 33.7668 8.31775C26.9038 5.98553 19.1838 12.1845 8.5256 24.4512C8.50019 24.4802 8.47668 24.5108 8.45521 24.5426H8.45245ZM41.6014 14.2914C41.9768 14.4332 42.3605 14.5565 42.7496 14.6558C45.0088 15.2349 47.3369 14.9116 49.3794 13.8144C50.4338 13.2472 51.3943 12.529 52.2982 11.7525C53.216 10.9627 56.1251 8.07923 57.1878 7.02178C57.2389 6.97038 57.3002 6.92942 57.3682 6.90136C57.4361 6.87329 57.5093 6.85869 57.5833 6.85845C57.6573 6.8582 57.7305 6.8723 57.7987 6.89992C57.8669 6.92753 57.9285 6.96807 57.9799 7.01913L66.379 15.2707C66.2286 15.3206 66.0925 15.4037 65.9815 15.5132C58.8494 22.5364 54.2897 23.6919 49.2966 20.7143C47.7882 19.8159 46.2136 18.5583 44.08 16.6104C43.7971 16.3494 42.7662 15.382 41.6 14.2914H41.6014Z" fill="#312191"/>
</svg>
