<svg width="217" height="30" viewBox="0 0 217 30" fill="none" xmlns="http://www.w3.org/2000/svg">
<path fill-rule="evenodd" clip-rule="evenodd" d="M5.64395 0.699738L26.0904 0.699738C27.767 0.699738 28.375 0.864493 28.988 1.17387C29.6009 1.48324 30.0819 1.93724 30.4097 2.51572C30.7376 3.0942 30.9121 3.668 30.9121 5.25035V24.5473C30.9121 26.1297 30.7376 26.7035 30.4097 27.282C30.0819 27.8605 29.6009 28.3144 28.988 28.6238C28.375 28.9332 27.767 29.098 26.0904 29.098H5.64395C3.96734 29.098 3.35937 28.9332 2.74643 28.6238C2.13348 28.3144 1.65244 27.8605 1.32464 27.282C0.996835 26.7035 0.822266 26.1297 0.822266 24.5473L0.822266 5.25035C0.822266 3.668 0.996835 3.0942 1.32464 2.51572C1.65244 1.93724 2.13348 1.48324 2.74643 1.17387C3.35937 0.864493 3.96734 0.699738 5.64395 0.699738ZM7.06682 8.24301C6.85725 8.24301 6.78125 8.26361 6.70463 8.30228C6.62802 8.34095 6.56789 8.3977 6.52691 8.47001C6.48593 8.54232 6.46411 8.61405 6.46411 8.81184V12.1114C6.46411 12.3092 6.48593 12.3809 6.52691 12.4532C6.56789 12.5255 6.62802 12.5823 6.70463 12.621C6.78125 12.6596 6.85725 12.6802 7.06682 12.6802H24.6676C24.8771 12.6802 24.9531 12.6596 25.0298 12.621C25.1064 12.5823 25.1665 12.5255 25.2075 12.4532C25.2485 12.3809 25.2703 12.3092 25.2703 12.1114V8.81184C25.2703 8.61405 25.2485 8.54232 25.2075 8.47001C25.1665 8.3977 25.1064 8.34095 25.0298 8.30228C24.9531 8.26361 24.8771 8.24301 24.6676 8.24301H7.06682ZM7.06682 17.1175C6.85725 17.1175 6.78125 17.1381 6.70463 17.1767C6.62802 17.2154 6.56789 17.2721 6.52691 17.3445C6.48593 17.4168 6.46411 17.4885 6.46411 17.6863V20.9859C6.46411 21.1836 6.48593 21.2554 6.52691 21.3277C6.56789 21.4 6.62802 21.4567 6.70463 21.4954C6.78125 21.5341 6.85725 21.5547 7.06682 21.5547H24.6676C24.8771 21.5547 24.9531 21.5341 25.0298 21.4954C25.1064 21.4567 25.1665 21.4 25.2075 21.3277C25.2485 21.2554 25.2703 21.1836 25.2703 20.9859V17.6863C25.2703 17.4885 25.2485 17.4168 25.2075 17.3445C25.1665 17.2721 25.1064 17.2154 25.0298 17.1767C24.9531 17.1381 24.8771 17.1175 24.6676 17.1175H7.06682ZM55.6215 7.9679H58.1246V21.7322H55.2905V13.5712L51.9393 19.4674H49.8706L46.5194 13.6493V21.7322H43.6853V7.9679H46.2297L50.9256 16.3826L55.6215 7.9679ZM65.696 21.8884C64.6203 21.8884 63.6756 21.6834 62.8619 21.2734C62.0482 20.8634 61.4207 20.2842 60.9794 19.5357C60.5381 18.7873 60.3174 17.9055 60.3174 16.8903C60.3174 15.875 60.5381 14.9932 60.9794 14.2448C61.4207 13.4964 62.0482 12.9204 62.8619 12.5169C63.6756 12.1134 64.6203 11.9117 65.696 11.9117C66.7717 11.9117 67.7164 12.1134 68.5301 12.5169C69.3438 12.9204 69.9713 13.4964 70.4126 14.2448C70.8539 14.9932 71.0746 15.875 71.0746 16.8903C71.0746 17.9055 70.8539 18.7873 70.4126 19.5357C69.9713 20.2842 69.3438 20.8634 68.5301 21.2734C67.7164 21.6834 66.7717 21.8884 65.696 21.8884ZM65.696 19.6431C67.213 19.6431 67.9715 18.7255 67.9715 16.8903C67.9715 15.9661 67.775 15.2763 67.382 14.8207C66.9889 14.3652 66.4269 14.1374 65.696 14.1374C64.179 14.1374 63.4205 15.055 63.4205 16.8903C63.4205 18.7255 64.179 19.6431 65.696 19.6431ZM79.3493 11.9117C80.5629 11.9117 81.4662 12.2469 82.0592 12.9172C82.6523 13.5875 82.9488 14.5995 82.9488 15.9531V21.7322H79.8251V16.0898C79.8251 15.439 79.6975 14.9639 79.4424 14.6646C79.1872 14.3652 78.7907 14.2155 78.2529 14.2155C77.6047 14.2155 77.0841 14.4107 76.691 14.8012C76.298 15.1917 76.1014 15.7123 76.1014 16.3631V21.7322H72.9777V12.146H76.0187V13.5127C76.3773 12.992 76.8427 12.595 77.4151 12.3217C77.9874 12.0484 78.6321 11.9117 79.3493 11.9117ZM94.4299 17.4955H87.8102C87.9067 18.2634 88.1722 18.8199 88.6066 19.1648C89.041 19.5097 89.6582 19.6822 90.4581 19.6822C90.9821 19.6822 91.5027 19.6008 92.0199 19.4381C92.5371 19.2754 93.0094 19.0444 93.437 18.745L94.2644 20.7169C93.768 21.0814 93.1646 21.3677 92.4543 21.576C91.7441 21.7842 91.0304 21.8884 90.3133 21.8884C88.6031 21.8884 87.2551 21.4426 86.269 20.551C85.2829 19.6594 84.7899 18.4457 84.7899 16.9098C84.7899 15.9336 85.0037 15.0681 85.4312 14.3131C85.8587 13.5582 86.4517 12.9692 87.2102 12.5462C87.9688 12.1232 88.8307 11.9117 89.7961 11.9117C91.2166 11.9117 92.344 12.3477 93.1784 13.2198C94.0128 14.0919 94.4299 15.2763 94.4299 16.7731V17.4955ZM89.8788 13.9422C89.2858 13.9422 88.8135 14.1211 88.4618 14.4791C88.1101 14.837 87.8929 15.3544 87.8102 16.0312H91.8027C91.7613 15.3414 91.5786 14.8207 91.2545 14.4693C90.9304 14.1179 90.4719 13.9422 89.8788 13.9422ZM103.139 12.1655H106.201L100.077 25.2464H96.9123L98.8569 21.205L94.6782 12.1655H97.926L100.491 18.2569L103.139 12.1655ZM113.172 7.9679H118.84C120.426 7.9679 121.792 8.24123 122.936 8.7879C124.081 9.33457 124.957 10.122 125.564 11.1503C126.17 12.1785 126.474 13.4085 126.474 14.8403C126.474 16.272 126.174 17.5053 125.574 18.54C124.974 19.5748 124.102 20.3655 122.957 20.9122C121.812 21.4588 120.44 21.7322 118.84 21.7322H113.172V7.9679ZM118.613 19.2722C121.716 19.2722 123.267 17.7949 123.267 14.8403C123.267 11.8987 121.716 10.4279 118.613 10.4279H116.399V19.2722H118.613ZM133.218 11.9117C134.735 11.9117 135.855 12.2501 136.579 12.9269C137.303 13.6038 137.665 14.6515 137.665 16.0703V21.7322H134.707V20.3069C134.5 20.8015 134.155 21.1887 133.673 21.4686C133.19 21.7484 132.625 21.8884 131.976 21.8884C131.287 21.8884 130.663 21.7582 130.104 21.4979C129.546 21.2376 129.104 20.8731 128.78 20.4045C128.456 19.936 128.294 19.4153 128.294 18.8426C128.294 18.1398 128.484 17.5866 128.863 17.1831C129.242 16.7796 129.853 16.4868 130.694 16.3046C131.535 16.1223 132.687 16.0312 134.149 16.0312H134.686V15.6798C134.686 15.1071 134.555 14.7036 134.293 14.4693C134.031 14.235 133.576 14.1179 132.928 14.1179C132.432 14.1179 131.88 14.2025 131.273 14.3717C130.666 14.5409 130.087 14.7752 129.535 15.0746L128.708 13.1027C129.287 12.7642 130.001 12.4812 130.849 12.2534C131.697 12.0256 132.487 11.9117 133.218 11.9117ZM132.659 19.8579C133.266 19.8579 133.755 19.6659 134.128 19.2819C134.5 18.898 134.686 18.4001 134.686 17.7884V17.4565H134.335C133.218 17.4565 132.435 17.5411 131.987 17.7103C131.539 17.8795 131.314 18.1853 131.314 18.6279C131.314 18.9793 131.442 19.2722 131.697 19.5065C131.952 19.7407 132.273 19.8579 132.659 19.8579ZM143.913 21.8884C142.975 21.8884 142.116 21.7875 141.337 21.5857C140.558 21.384 139.886 21.0944 139.32 20.7169L140.148 18.6865C140.699 19.0379 141.306 19.3112 141.968 19.5065C142.63 19.7017 143.299 19.7993 143.975 19.7993C144.457 19.7993 144.833 19.7245 145.102 19.5748C145.371 19.4251 145.506 19.2201 145.506 18.9598C145.506 18.7255 145.412 18.5433 145.226 18.4131C145.04 18.283 144.692 18.1658 144.182 18.0617L142.527 17.7103C141.548 17.502 140.827 17.1799 140.365 16.7438C139.903 16.3078 139.672 15.7123 139.672 14.9574C139.672 14.3587 139.855 13.8315 140.22 13.376C140.586 12.9204 141.103 12.5625 141.772 12.3022C142.44 12.0419 143.202 11.9117 144.058 11.9117C144.788 11.9117 145.499 12.0158 146.188 12.2241C146.878 12.4323 147.498 12.7252 148.05 13.1027L147.223 15.055C146.147 14.3522 145.085 14.0007 144.037 14.0007C143.554 14.0007 143.175 14.0788 142.899 14.235C142.623 14.3912 142.485 14.6125 142.485 14.8988C142.485 15.1071 142.568 15.2698 142.734 15.3869C142.899 15.5041 143.189 15.6147 143.602 15.7188L145.319 16.0898C146.354 16.3111 147.109 16.6462 147.585 17.0953C148.06 17.5443 148.298 18.1528 148.298 18.9207C148.298 19.8449 147.909 20.5705 147.129 21.0976C146.35 21.6248 145.278 21.8884 143.913 21.8884ZM156.449 11.9117C157.663 11.9117 158.566 12.2469 159.159 12.9172C159.752 13.5875 160.048 14.5995 160.048 15.9531V21.7322H156.925V16.0898C156.925 15.439 156.797 14.9639 156.542 14.6646C156.287 14.3652 155.89 14.2155 155.352 14.2155C154.704 14.2155 154.184 14.4107 153.791 14.8012C153.398 15.1917 153.201 15.7123 153.201 16.3631V21.7322H150.077V7.9679H153.201V13.415C153.56 12.9204 154.018 12.5462 154.577 12.2924C155.135 12.0386 155.759 11.9117 156.449 11.9117ZM168.675 11.9117C169.557 11.9117 170.337 12.1134 171.012 12.5169C171.688 12.9204 172.216 13.4964 172.595 14.2448C172.974 14.9932 173.164 15.862 173.164 16.8512C173.164 17.8404 172.974 18.7157 172.595 19.4772C172.216 20.2386 171.685 20.8308 171.002 21.2538C170.319 21.6768 169.544 21.8884 168.675 21.8884C167.971 21.8884 167.337 21.7484 166.772 21.4686C166.206 21.1887 165.772 20.8015 165.468 20.3069V21.7322H162.386V7.9679H165.51V13.4346C165.813 12.953 166.244 12.5788 166.803 12.3119C167.361 12.0451 167.985 11.9117 168.675 11.9117ZM167.765 19.6431C168.495 19.6431 169.061 19.3991 169.461 18.911C169.861 18.4229 170.061 17.7363 170.061 16.8512C170.061 15.9792 169.861 15.3121 169.461 14.85C169.061 14.388 168.495 14.1569 167.765 14.1569C167.034 14.1569 166.468 14.3945 166.068 14.8696C165.668 15.3446 165.468 16.0182 165.468 16.8903C165.468 17.7754 165.668 18.4554 166.068 18.9305C166.468 19.4056 167.034 19.6431 167.765 19.6431ZM179.949 21.8884C178.873 21.8884 177.929 21.6834 177.115 21.2734C176.301 20.8634 175.674 20.2842 175.232 19.5357C174.791 18.7873 174.571 17.9055 174.571 16.8903C174.571 15.875 174.791 14.9932 175.232 14.2448C175.674 13.4964 176.301 12.9204 177.115 12.5169C177.929 12.1134 178.873 11.9117 179.949 11.9117C181.025 11.9117 181.969 12.1134 182.783 12.5169C183.597 12.9204 184.224 13.4964 184.666 14.2448C185.107 14.9932 185.328 15.875 185.328 16.8903C185.328 17.9055 185.107 18.7873 184.666 19.5357C184.224 20.2842 183.597 20.8634 182.783 21.2734C181.969 21.6834 181.025 21.8884 179.949 21.8884ZM179.949 19.6431C181.466 19.6431 182.225 18.7255 182.225 16.8903C182.225 15.9661 182.028 15.2763 181.635 14.8207C181.242 14.3652 180.68 14.1374 179.949 14.1374C178.432 14.1374 177.674 15.055 177.674 16.8903C177.674 18.7255 178.432 19.6431 179.949 19.6431ZM191.741 11.9117C193.258 11.9117 194.378 12.2501 195.102 12.9269C195.826 13.6038 196.188 14.6515 196.188 16.0703V21.7322H193.23V20.3069C193.023 20.8015 192.678 21.1887 192.196 21.4686C191.713 21.7484 191.148 21.8884 190.499 21.8884C189.81 21.8884 189.186 21.7582 188.627 21.4979C188.069 21.2376 187.627 20.8731 187.303 20.4045C186.979 19.936 186.817 19.4153 186.817 18.8426C186.817 18.1398 187.007 17.5866 187.386 17.1831C187.765 16.7796 188.375 16.4868 189.217 16.3046C190.058 16.1223 191.21 16.0312 192.671 16.0312H193.209V15.6798C193.209 15.1071 193.078 14.7036 192.816 14.4693C192.554 14.235 192.099 14.1179 191.451 14.1179C190.954 14.1179 190.403 14.2025 189.796 14.3717C189.189 14.5409 188.61 14.7752 188.058 15.0746L187.231 13.1027C187.81 12.7642 188.524 12.4812 189.372 12.2534C190.22 12.0256 191.01 11.9117 191.741 11.9117ZM191.182 19.8579C191.789 19.8579 192.278 19.6659 192.651 19.2819C193.023 18.898 193.209 18.4001 193.209 17.7884V17.4565H192.858C191.741 17.4565 190.958 17.5411 190.51 17.7103C190.061 17.8795 189.837 18.1853 189.837 18.6279C189.837 18.9793 189.965 19.2722 190.22 19.5065C190.475 19.7407 190.796 19.8579 191.182 19.8579ZM205.787 14.3327L204.028 14.5084C203.16 14.5865 202.546 14.8175 202.187 15.2015C201.829 15.5854 201.649 16.0963 201.649 16.7341V21.7322H198.526V12.146H201.525V13.7665C202.036 12.6601 203.091 12.0549 204.69 11.9508L205.601 11.8922L205.787 14.3327ZM216.896 7.9679V21.7322H213.793V20.3069C213.489 20.8015 213.058 21.1887 212.5 21.4686C211.941 21.7484 211.31 21.8884 210.607 21.8884C209.738 21.8884 208.962 21.6768 208.28 21.2538C207.597 20.8308 207.066 20.2386 206.687 19.4772C206.307 18.7157 206.118 17.8404 206.118 16.8512C206.118 15.862 206.307 14.9932 206.687 14.2448C207.066 13.4964 207.593 12.9204 208.269 12.5169C208.945 12.1134 209.724 11.9117 210.607 11.9117C211.296 11.9117 211.92 12.0484 212.479 12.3217C213.038 12.595 213.469 12.979 213.772 13.4736V7.9679H216.896ZM211.517 19.6431C212.248 19.6431 212.81 19.4056 213.203 18.9305C213.596 18.4554 213.793 17.7754 213.793 16.8903C213.793 16.0052 213.596 15.3284 213.203 14.8598C212.81 14.3912 212.248 14.1569 211.517 14.1569C210.786 14.1569 210.221 14.388 209.821 14.85C209.421 15.3121 209.221 15.9792 209.221 16.8512C209.221 17.7363 209.421 18.4229 209.821 18.911C210.221 19.3991 210.786 19.6431 211.517 19.6431Z" fill="black"/>
</svg>
