<svg width="118" height="25" viewBox="0 0 118 25" fill="none" xmlns="http://www.w3.org/2000/svg">
<path d="M11.7304 4.36128V24.3217H7.57959V4.36128H0.391602V0.796918H18.9184V4.36128H11.7304ZM51.4499 24.3217H47.4341L40.6511 7.76362H44.9369L49.4926 19.9148L54.0484 7.76362H58.1992L51.4499 24.3217ZM76.726 0.699707H80.7081V24.3541H76.726V0.699707ZM112.835 24.3217L108.549 18.3595L104.196 24.3217H99.6736L106.254 15.9292L99.9098 7.76362H104.601L108.684 13.4018L112.801 7.76362H117.357L110.979 15.8968L117.559 24.3217H112.835Z" fill="#142477"/>
<path d="M24.0129 7.69718C22.393 7.8268 20.9419 8.21563 19.8958 9.28494V7.79439H16.4199V24.3525H20.402V17.1589C20.402 15.8628 20.3345 14.0482 20.807 12.8493C21.2119 11.78 21.8193 10.9375 24.9915 10.6783L25.3965 7.59997C25.3627 7.59997 24.9578 7.59997 24.0129 7.69718ZM31.5721 21.4362C28.8386 21.4362 28.2312 20.6585 28.2312 19.2327C28.2312 17.483 29.0073 17.0617 31.4371 17.0617H36.0603C36.0603 19.9456 35.6554 21.4362 31.5721 21.4362ZM32.5507 7.50276C30.6272 7.43795 28.7374 7.59997 27.86 7.72959L27.4887 10.6459C29.851 10.5163 32.1795 10.6135 32.3482 10.6135C35.7904 10.7431 35.8579 11.9096 35.9928 13.951H31.5721C27.8937 13.951 24.2153 14.5019 24.2153 19.2976C24.2153 23.348 26.8138 24.5793 30.9309 24.5793C33.3944 24.5793 35.2167 23.8664 36.2966 22.9591V24.3201H39.8737V13.5298C39.8737 9.25254 37.1402 7.66478 32.5507 7.50276ZM66.3646 10.6459C70.0767 10.6459 70.2792 12.0068 70.2792 14.3723H62.5175C62.5175 12.2012 62.8887 10.6459 66.3646 10.6459ZM66.3309 21.501C63.6312 21.4038 62.7538 20.4965 62.5175 18.8439C62.5175 18.7791 62.4838 18.6819 62.4838 18.6171V18.4875C62.45 18.1958 62.45 17.8718 62.45 17.5154H74.2613C74.2613 11.7476 73.9238 7.50276 66.3984 7.50276C59.4804 7.50276 58.468 11.2939 58.468 16.2516C58.468 18.293 58.6704 20.1076 59.4129 21.501C60.459 23.6396 62.7875 24.5793 66.1284 24.5793H66.4996C68.9294 24.5793 71.6291 24.4173 73.0127 24.2553L73.4514 21.1769C71.0891 21.339 69.0306 21.5982 66.3309 21.501ZM91.0333 10.6459C94.7454 10.6459 94.9478 12.0068 94.9478 14.3723H87.1862C87.1862 12.2012 87.5574 10.6459 91.0333 10.6459ZM91.0333 21.501C88.3336 21.4038 87.4561 20.4965 87.2199 18.8439C87.2199 18.7791 87.1862 18.6819 87.1862 18.6171V18.4875C87.1524 18.1958 87.1524 17.8718 87.1524 17.5154H98.9637C98.9637 11.7476 98.6262 7.50276 91.1008 7.50276C84.1827 7.50276 83.1703 11.2939 83.1703 16.2516C83.1703 18.293 83.3728 20.1076 84.1153 21.501C85.1614 23.6396 87.4899 24.5793 90.8308 24.5793H91.202C93.6317 24.5793 96.3315 24.4173 97.7151 24.2553L98.1538 21.1769C95.7578 21.339 93.6992 21.5982 91.0333 21.501Z" fill="#142477"/>
</svg>
