<?xml version="1.0" encoding="UTF-8"?>
<svg xmlns="http://www.w3.org/2000/svg" xmlns:xlink="http://www.w3.org/1999/xlink" viewBox="0 0 50 50" width="50px" height="50px">
<g id="surface112063210">
<path style=" stroke:none;fill-rule:nonzero;fill:rgb(50.196081%,73.725492%,52.156866%);fill-opacity:1;" d="M 29 8.53125 C 23.785156 8.53125 19.371094 11.652344 17.25 16.0625 C 16.121094 15.285156 14.8125 14.71875 13.34375 14.71875 C 9.617188 14.71875 6.644531 17.667969 6.4375 21.34375 C 2.710938 22.6875 0 26.164062 0 30.34375 C 0 35.671875 4.328125 40 9.65625 40 L 41.09375 40 C 46 40 50 35.996094 50 31.09375 C 50 26.542969 46.507812 22.925781 42.09375 22.40625 C 42.109375 22.164062 42.15625 21.9375 42.15625 21.6875 C 42.15625 14.4375 36.25 8.53125 29 8.53125 Z M 29 10.53125 C 35.167969 10.53125 40.15625 15.515625 40.15625 21.6875 C 40.15625 22.144531 40.121094 22.59375 40.0625 23.0625 L 39.90625 24.1875 L 41.09375 24.1875 C 44.917969 24.1875 48 27.269531 48 31.09375 C 48 34.917969 44.917969 38 41.09375 38 L 9.65625 38 C 5.40625 38 2 34.589844 2 30.34375 C 2 26.808594 4.382812 23.832031 7.625 22.9375 L 8.375 22.75 L 8.34375 21.9375 C 8.339844 21.796875 8.34375 21.726562 8.34375 21.71875 C 8.34375 18.941406 10.566406 16.71875 13.34375 16.71875 C 14.734375 16.71875 16 17.277344 16.90625 18.1875 L 18 19.3125 L 18.53125 17.84375 C 20.105469 13.59375 24.191406 10.53125 29 10.53125 Z M 30.90625 21.96875 C 30.863281 21.976562 30.820312 21.988281 30.78125 22 C 30.40625 22.066406 30.105469 22.339844 30 22.703125 C 29.894531 23.070312 30.003906 23.460938 30.28125 23.71875 L 33.5625 27 L 15.4375 27 L 18.71875 23.71875 C 19.042969 23.417969 19.128906 22.941406 18.933594 22.546875 C 18.742188 22.148438 18.308594 21.929688 17.875 22 C 17.652344 22.023438 17.441406 22.125 17.28125 22.28125 L 12.34375 27.1875 C 12.320312 27.207031 12.300781 27.226562 12.28125 27.25 L 12.28125 27.28125 C 12.207031 27.34375 12.144531 27.417969 12.09375 27.5 L 11.59375 28 L 12.0625 28.46875 C 12.082031 28.492188 12.101562 28.511719 12.125 28.53125 L 12.1875 28.625 C 12.207031 28.648438 12.226562 28.667969 12.25 28.6875 L 12.28125 28.71875 C 12.335938 28.777344 12.398438 28.832031 12.46875 28.875 L 17.28125 33.71875 C 17.679688 34.117188 18.320312 34.117188 18.71875 33.71875 C 19.117188 33.320312 19.117188 32.679688 18.71875 32.28125 L 15.4375 29 L 33.5625 29 L 30.28125 32.28125 C 29.882812 32.679688 29.882812 33.320312 30.28125 33.71875 C 30.679688 34.117188 31.320312 34.117188 31.71875 33.71875 L 36.71875 28.71875 L 37.40625 28 L 36.71875 27.28125 L 31.71875 22.28125 C 31.511719 22.058594 31.210938 21.945312 30.90625 21.96875 Z M 30.90625 21.96875 "/>
</g>
</svg>
