<?xml version="1.0" encoding="UTF-8"?>
<svg xmlns="http://www.w3.org/2000/svg" xmlns:xlink="http://www.w3.org/1999/xlink" viewBox="0 0 50 50" width="50px" height="50px">
<g id="surface112065680">
<path style=" stroke:none;fill-rule:nonzero;fill:rgb(92.941177%,38.82353%,9.803922%);fill-opacity:1;" d="M 25 1.917969 C 12.273438 1.917969 1.917969 12.273438 1.917969 25 C 1.917969 37.726562 12.273438 48.082031 25 48.082031 C 25.617188 48.082031 26.230469 48.046875 26.835938 48 C 25.722656 46.96875 24.761719 45.773438 24 44.449219 L 24 45.96875 C 21.03125 45.320312 18.398438 41.8125 16.75 36.824219 C 18.433594 36.476562 20.207031 36.242188 22.042969 36.117188 C 22.085938 35.433594 22.15625 34.757812 22.289062 34.105469 C 20.171875 34.230469 18.117188 34.496094 16.179688 34.90625 C 15.480469 32.214844 15.0625 29.1875 14.988281 26 L 24 26 L 24 29.550781 C 24.5625 28.570312 25.238281 27.664062 26 26.835938 L 26 26 L 26.835938 26 C 27.660156 25.238281 28.570312 24.5625 29.550781 24 L 26 24 L 26 15.972656 C 28.726562 15.914062 31.363281 15.613281 33.816406 15.097656 C 34.382812 17.261719 34.753906 19.652344 34.921875 22.160156 C 35.582031 22.066406 36.25 22.007812 36.933594 22.003906 C 36.761719 19.371094 36.375 16.882812 35.796875 14.621094 C 38.011719 14.019531 40.027344 13.234375 41.769531 12.28125 C 44.273438 15.570312 45.820312 19.605469 46.03125 24 L 44.453125 24 C 45.777344 24.761719 46.972656 25.722656 48.003906 26.839844 C 48.050781 26.230469 48.082031 25.617188 48.082031 25 C 48.078125 12.273438 37.726562 1.921875 25 1.921875 Z M 24 4.03125 L 24 13.972656 C 21.492188 13.914062 19.050781 13.636719 16.757812 13.160156 C 18.402344 8.179688 21.03125 4.679688 24 4.03125 Z M 26 4.03125 C 28.96875 4.679688 31.601562 8.1875 33.25 13.175781 C 30.976562 13.644531 28.53125 13.914062 26 13.972656 Z M 30.878906 4.769531 C 34.605469 5.855469 37.894531 7.941406 40.460938 10.71875 C 38.925781 11.519531 37.167969 12.183594 35.242188 12.703125 C 34.167969 9.386719 32.671875 6.652344 30.882812 4.769531 Z M 19.117188 4.769531 C 17.332031 6.652344 15.835938 9.375 14.765625 12.683594 C 12.859375 12.171875 11.09375 11.511719 9.53125 10.722656 C 12.101562 7.945312 15.390625 5.855469 19.117188 4.769531 Z M 8.21875 12.292969 C 9.992188 13.234375 12.011719 14.007812 14.210938 14.601562 C 13.480469 17.433594 13.042969 20.609375 12.972656 24 L 3.972656 24 C 4.175781 19.613281 5.722656 15.582031 8.21875 12.292969 Z M 16.1875 15.082031 C 18.664062 15.605469 21.300781 15.910156 24 15.972656 L 24 24 L 14.984375 24 C 15.058594 20.808594 15.480469 17.773438 16.1875 15.082031 Z M 37 24 C 29.832031 24 24 29.832031 24 37 C 24 44.167969 29.832031 50 37 50 C 44.167969 50 50 44.167969 50 37 C 50 29.832031 44.167969 24 37 24 Z M 3.96875 26 L 12.972656 26 C 13.042969 29.382812 13.480469 32.554688 14.203125 35.378906 C 11.988281 35.980469 9.972656 36.765625 8.230469 37.71875 C 5.726562 34.429688 4.175781 30.394531 3.96875 26 Z M 37 26 C 43.066406 26 48 30.933594 48 37 C 48 43.066406 43.066406 48 37 48 C 30.933594 48 26 43.066406 26 37 C 26 30.933594 30.933594 26 37 26 Z M 37 28 C 36.445312 28 36 28.445312 36 29 L 36 36.464844 L 30.445312 40.167969 C 29.984375 40.476562 29.859375 41.09375 30.167969 41.554688 C 30.359375 41.84375 30.679688 42 31 42 C 31.191406 42 31.382812 41.945312 31.554688 41.832031 L 37.554688 37.832031 C 37.832031 37.644531 38 37.335938 38 37 L 38 29 C 38 28.445312 37.554688 28 37 28 Z M 14.761719 37.296875 C 15.832031 40.613281 17.328125 43.347656 19.117188 45.230469 C 15.394531 44.144531 12.105469 42.058594 9.539062 39.28125 C 11.074219 38.480469 12.832031 37.816406 14.757812 37.296875 Z M 14.761719 37.296875 "/>
</g>
</svg>
