<?xml version="1.0" encoding="UTF-8"?>
<svg xmlns="http://www.w3.org/2000/svg" xmlns:xlink="http://www.w3.org/1999/xlink" viewBox="0 0 50 50" width="50px" height="50px">
<g id="surface112074638">
<path style=" stroke:none;fill-rule:nonzero;fill:rgb(50.196081%,73.725492%,52.156866%);fill-opacity:1;" d="M 20.8125 2 C 20.664062 2.03125 20.527344 2.09375 20.40625 2.1875 L 2.40625 15.1875 C 2.0625 15.429688 1.910156 15.863281 2.019531 16.269531 C 2.132812 16.675781 2.488281 16.96875 2.90625 17 L 13.90625 18 C 13.9375 18 13.96875 18 14 18 L 20 18 L 20 28 L 22 29.65625 L 22 18 L 28 18 C 28.03125 18 28.0625 18 28.09375 18 L 39.09375 17 C 39.511719 16.96875 39.867188 16.675781 39.980469 16.269531 C 40.089844 15.863281 39.9375 15.429688 39.59375 15.1875 L 21.59375 2.1875 C 21.371094 2.019531 21.085938 1.949219 20.8125 2 Z M 21 5.25 L 26.375 16 L 15.625 16 Z M 18.28125 6.1875 L 13.40625 15.9375 L 5.78125 15.25 Z M 23.75 6.21875 L 36.21875 15.25 L 28.59375 15.9375 Z M 41.5 22 C 39.027344 22 37 24.027344 37 26.5 C 37 27.109375 37.121094 27.6875 37.34375 28.21875 C 36.519531 27.429688 35.378906 27.019531 34.25 27.09375 C 33.730469 27.128906 33.210938 27.28125 32.71875 27.53125 L 22.625 32.625 L 19.15625 29.75 C 18.597656 29.285156 17.914062 29.027344 17.21875 29 C 16.523438 28.972656 15.8125 29.171875 15.21875 29.59375 L 10.40625 33 L 8 33 C 6.355469 33 5 34.355469 5 36 C 5 36.351562 5.074219 36.683594 5.1875 37 L 3 37 C 2.96875 37 2.9375 37 2.90625 37 C 2.390625 37.046875 1.996094 37.480469 2 38 L 2 42 C 2 42.550781 2.449219 43 3 43 L 5 43 L 5 47 C 5 47.550781 5.449219 48 6 48 L 10 48 C 10.550781 48 11 47.550781 11 47 L 11 43 L 39 43 L 39 47 C 39 47.550781 39.449219 48 40 48 L 44 48 C 44.550781 48 45 47.550781 45 47 L 45 43 L 47 43 C 47.550781 43 48 42.550781 48 42 L 48 38 C 48 37.449219 47.550781 37 47 37 L 44.75 37 L 43.1875 31.5 L 46.3125 29.9375 C 46.835938 29.8125 47.167969 29.300781 47.066406 28.773438 C 46.964844 28.246094 46.46875 27.890625 45.9375 27.96875 C 45.875 27.972656 45.8125 27.984375 45.75 28 C 45.917969 27.53125 46 27.023438 46 26.5 C 46 24.027344 43.972656 22 41.5 22 Z M 41.5 24 C 42.890625 24 44 25.109375 44 26.5 C 44 27.890625 42.890625 29 41.5 29 C 40.109375 29 39 27.890625 39 26.5 C 39 25.109375 40.109375 24 41.5 24 Z M 34.40625 29.09375 C 34.671875 29.074219 34.941406 29.109375 35.1875 29.1875 C 35.675781 29.347656 36.089844 29.683594 36.34375 30.1875 C 36.851562 31.191406 36.472656 32.398438 35.46875 32.90625 L 27.34375 37 L 8 37 C 7.433594 37 7 36.566406 7 36 C 7 35.433594 7.433594 35 8 35 L 10.375 35 C 10.566406 35.058594 10.777344 35.058594 10.96875 35 L 22.15625 35 C 22.316406 35.007812 22.480469 34.976562 22.625 34.90625 L 22.75 34.84375 L 22.78125 34.84375 C 22.90625 34.804688 23.023438 34.742188 23.125 34.65625 L 23.15625 34.625 C 23.175781 34.617188 23.199219 34.605469 23.21875 34.59375 L 33.625 29.3125 C 33.875 29.183594 34.140625 29.113281 34.40625 29.09375 Z M 38.25 29.59375 C 38.769531 30.136719 39.425781 30.546875 40.15625 30.78125 L 38.5 31.59375 C 38.582031 30.929688 38.515625 30.246094 38.25 29.59375 Z M 17.125 31 C 17.390625 31.011719 17.660156 31.101562 17.875 31.28125 L 19.9375 33 L 13.875 33 L 16.375 31.21875 C 16.601562 31.058594 16.859375 30.988281 17.125 31 Z M 41.34375 32.4375 L 42.65625 37 L 32.25 37 Z M 4 39 L 46 39 L 46 41 L 4 41 Z M 7 43 L 9 43 L 9 46 L 7 46 Z M 41 43 L 43 43 L 43 46 L 41 46 Z M 41 43 "/>
</g>
</svg>
