<?xml version="1.0" encoding="UTF-8"?>
<svg xmlns="http://www.w3.org/2000/svg" xmlns:xlink="http://www.w3.org/1999/xlink" viewBox="0 0 50 50" width="50px" height="50px">
<g id="surface19689641">
<path style=" stroke:none;fill-rule:nonzero;fill:rgb(50.196081%,30.588236%,92.156863%);fill-opacity:1;" d="M 25 2 C 23.355469 2 22 3.355469 22 5 C 22 6.292969 22.84375 7.394531 24 7.8125 L 24 12 C 23.996094 12.359375 24.183594 12.695312 24.496094 12.878906 C 24.808594 13.058594 25.191406 13.058594 25.503906 12.878906 C 25.816406 12.695312 26.003906 12.359375 26 12 L 26 7.8125 C 27.15625 7.394531 28 6.292969 28 5 C 28 3.355469 26.644531 2 25 2 Z M 25 4 C 25.5625 4 26 4.4375 26 5 C 26 5.542969 25.589844 5.957031 25.054688 5.988281 C 25.03125 5.988281 25.007812 5.984375 24.984375 5.988281 C 24.96875 5.988281 24.957031 5.988281 24.941406 5.988281 C 24.40625 5.957031 24 5.542969 24 5 C 24 4.4375 24.4375 4 25 4 Z M 7 11 C 5.355469 11 4 12.355469 4 14 C 4 15.644531 5.355469 17 7 17 C 7.710938 17 8.363281 16.734375 8.878906 16.3125 L 16.488281 20.859375 C 16.960938 21.144531 17.574219 20.988281 17.859375 20.511719 C 18.144531 20.039062 17.988281 19.425781 17.515625 19.140625 L 9.9375 14.613281 C 9.976562 14.417969 10 14.210938 10 14 C 10 12.355469 8.644531 11 7 11 Z M 43 11 C 41.355469 11 40 12.355469 40 14 C 40 14.210938 40.023438 14.417969 40.0625 14.613281 L 32.488281 19.140625 C 32.011719 19.425781 31.855469 20.039062 32.140625 20.511719 C 32.425781 20.988281 33.039062 21.144531 33.515625 20.859375 L 41.121094 16.3125 C 41.636719 16.734375 42.289062 17 43 17 C 44.644531 17 46 15.644531 46 14 C 46 12.355469 44.644531 11 43 11 Z M 7 13 C 7.5625 13 8 13.4375 8 14 C 8 14.5625 7.5625 15 7 15 C 6.4375 15 6 14.5625 6 14 C 6 13.4375 6.4375 13 7 13 Z M 43 13 C 43.5625 13 44 13.4375 44 14 C 44 14.5625 43.5625 15 43 15 C 42.4375 15 42 14.5625 42 14 C 42 13.4375 42.4375 13 43 13 Z M 25.636719 15 C 23.355469 15 21.613281 15.792969 20.714844 17.207031 C 19.90625 18.480469 19.890625 20.082031 20.269531 21.726562 C 20.078125 22.0625 19.957031 22.453125 20.011719 22.945312 C 20.074219 23.515625 20.214844 23.96875 20.480469 24.335938 C 20.578125 24.472656 20.753906 24.480469 20.886719 24.578125 C 21.019531 25.109375 21.160156 25.660156 21.425781 26.019531 C 21.613281 26.269531 21.800781 26.480469 21.976562 26.648438 C 21.984375 26.65625 21.992188 26.660156 22 26.667969 L 22 27.660156 C 21.933594 27.8125 21.824219 27.953125 21.476562 28.148438 C 21.089844 28.367188 20.515625 28.589844 19.890625 28.894531 C 19.265625 29.195312 18.578125 29.59375 18.015625 30.253906 C 17.453125 30.910156 17.0625 31.824219 17.003906 32.945312 C 16.988281 33.21875 17.085938 33.488281 17.273438 33.6875 C 17.464844 33.886719 17.726562 34 18 34 L 32 34 C 32.273438 34 32.535156 33.886719 32.726562 33.6875 C 32.914062 33.488281 33.011719 33.21875 33 32.945312 C 32.9375 31.824219 32.546875 30.910156 31.984375 30.253906 C 31.421875 29.59375 30.734375 29.195312 30.109375 28.894531 C 29.484375 28.589844 28.910156 28.363281 28.527344 28.148438 C 28.175781 27.949219 28.066406 27.8125 28 27.660156 L 28 26.65625 C 28.007812 26.644531 28.019531 26.640625 28.03125 26.632812 C 28.203125 26.457031 28.390625 26.246094 28.574219 25.996094 C 28.828125 25.640625 28.964844 25.109375 29.097656 24.59375 C 29.230469 24.496094 29.402344 24.488281 29.503906 24.351562 C 29.769531 23.984375 29.910156 23.53125 29.972656 22.960938 C 30.015625 22.578125 29.980469 22.222656 29.847656 21.894531 C 29.828125 21.847656 29.753906 21.824219 29.730469 21.78125 C 30.007812 20.632812 30.101562 19.414062 29.660156 18.292969 C 29.234375 17.222656 28.144531 16.488281 26.78125 16.226562 L 26.578125 15.660156 C 26.433594 15.261719 26.058594 15 25.636719 15 Z M 24.976562 17.113281 L 25.058594 17.34375 C 25.203125 17.738281 25.578125 18 26 18 C 27.191406 18 27.539062 18.375 27.796875 19.027344 C 28.054688 19.679688 28.027344 20.746094 27.730469 21.703125 C 27.621094 22.0625 27.71875 22.449219 27.984375 22.710938 C 27.988281 22.730469 27.988281 22.714844 27.984375 22.742188 C 27.953125 23.023438 27.910156 23.082031 27.898438 23.105469 C 27.542969 23.269531 27.316406 23.621094 27.316406 24.011719 C 27.316406 24.132812 27.179688 24.507812 26.953125 24.820312 C 26.839844 24.980469 26.714844 25.121094 26.613281 25.222656 C 26.511719 25.324219 26.386719 25.398438 26.503906 25.332031 C 26.191406 25.511719 26 25.839844 26 26.199219 L 26 27.933594 C 26 28.042969 26.019531 28.152344 26.054688 28.257812 C 26.328125 29.058594 26.957031 29.558594 27.539062 29.890625 C 28.121094 30.21875 28.714844 30.4375 29.230469 30.691406 C 29.75 30.941406 30.175781 31.210938 30.464844 31.554688 C 30.550781 31.652344 30.554688 31.878906 30.625 32 L 19.375 32 C 19.445312 31.878906 19.449219 31.652344 19.535156 31.554688 C 19.824219 31.210938 20.25 30.941406 20.769531 30.691406 C 21.285156 30.441406 21.878906 30.21875 22.460938 29.890625 C 23.042969 29.558594 23.671875 29.058594 23.945312 28.257812 C 23.980469 28.152344 24 28.042969 24 27.933594 L 24 26.199219 C 24 25.839844 23.804688 25.507812 23.492188 25.332031 C 23.59375 25.386719 23.472656 25.3125 23.371094 25.21875 C 23.269531 25.121094 23.144531 24.980469 23.035156 24.828125 C 22.808594 24.523438 22.667969 24.160156 22.667969 23.996094 C 22.664062 23.605469 22.4375 23.253906 22.085938 23.089844 C 22.074219 23.066406 22.03125 23.007812 22 22.726562 C 21.992188 22.6875 22.003906 22.699219 22.007812 22.6875 C 22.261719 22.429688 22.355469 22.054688 22.257812 21.710938 C 21.828125 20.214844 21.929688 19.027344 22.402344 18.28125 C 22.804688 17.652344 23.648438 17.246094 24.976562 17.113281 Z M 14.019531 30.714844 C 13.828125 30.714844 13.640625 30.765625 13.480469 30.867188 L 8.875 33.679688 C 8.355469 33.261719 7.710938 33 7 33 C 5.355469 33 4 34.355469 4 36 C 4 37.644531 5.355469 39 7 39 C 8.644531 39 10 37.644531 10 36 C 10 35.789062 9.976562 35.578125 9.933594 35.378906 L 14.519531 32.578125 C 14.90625 32.347656 15.09375 31.890625 14.976562 31.453125 C 14.859375 31.019531 14.46875 30.71875 14.015625 30.714844 Z M 35.949219 30.71875 C 35.507812 30.734375 35.128906 31.039062 35.019531 31.46875 C 34.910156 31.898438 35.097656 32.351562 35.476562 32.574219 L 40.066406 35.378906 C 40.023438 35.578125 40 35.789062 40 36 C 40 37.644531 41.355469 39 43 39 C 44.644531 39 46 37.644531 46 36 C 46 34.355469 44.644531 33 43 33 C 42.289062 33 41.644531 33.261719 41.125 33.679688 L 36.519531 30.867188 C 36.351562 30.761719 36.152344 30.710938 35.949219 30.714844 Z M 7 35 C 7.5625 35 8 35.4375 8 36 C 8 36.5625 7.5625 37 7 37 C 6.4375 37 6 36.5625 6 36 C 6 35.4375 6.4375 35 7 35 Z M 43 35 C 43.5625 35 44 35.4375 44 36 C 44 36.5625 43.5625 37 43 37 C 42.4375 37 42 36.5625 42 36 C 42 35.4375 42.4375 35 43 35 Z M 24.984375 35.988281 C 24.433594 35.996094 23.992188 36.449219 24 37 L 24 42.1875 C 22.84375 42.605469 22 43.707031 22 45 C 22 46.644531 23.355469 48 25 48 C 26.644531 48 28 46.644531 28 45 C 28 43.707031 27.15625 42.605469 26 42.1875 L 26 37 C 26.003906 36.730469 25.898438 36.46875 25.707031 36.277344 C 25.515625 36.085938 25.253906 35.980469 24.984375 35.988281 Z M 24.945312 44.011719 C 24.980469 44.015625 25.019531 44.015625 25.058594 44.011719 C 25.59375 44.042969 26 44.457031 26 45 C 26 45.5625 25.5625 46 25 46 C 24.4375 46 24 45.5625 24 45 C 24 44.457031 24.410156 44.042969 24.945312 44.011719 Z M 24.945312 44.011719 "/>
</g>
</svg>
