<?xml version="1.0" encoding="UTF-8"?>
<svg xmlns="http://www.w3.org/2000/svg" xmlns:xlink="http://www.w3.org/1999/xlink" viewBox="0 0 50 50" width="50px" height="50px">
<g id="surface112094344">
<path style=" stroke:none;fill-rule:nonzero;fill:rgb(92.941177%,38.82353%,9.803922%);fill-opacity:1;" d="M 3 3 C 2.449219 3 2 3.449219 2 4 L 2 32 C 2 32.550781 2.449219 33 3 33 L 28.082031 33 C 28.441406 33.003906 28.777344 32.816406 28.960938 32.503906 C 29.140625 32.191406 29.140625 31.808594 28.960938 31.496094 C 28.777344 31.183594 28.441406 30.996094 28.082031 31 L 26 31 L 26 6.652344 C 28.085938 5.570312 29.449219 5 33.25 5 L 46 5 L 46 29 C 45.996094 29.359375 46.183594 29.695312 46.496094 29.878906 C 46.808594 30.058594 47.191406 30.058594 47.503906 29.878906 C 47.816406 29.695312 48.003906 29.359375 48 29 L 48 4 C 48 3.449219 47.550781 3 47 3 L 33.25 3 C 29.203125 3 27.304688 3.746094 25.0625 4.894531 C 24.242188 4.34375 23.230469 3.964844 21.917969 3.652344 C 20.277344 3.257812 18.34375 3 16.5 3 Z M 4 5 L 16.5 5 C 18.152344 5 19.96875 5.242188 21.453125 5.597656 C 22.785156 5.917969 23.679688 6.382812 24 6.59375 L 24 31 L 4 31 Z M 8 9 C 7.640625 8.996094 7.304688 9.183594 7.121094 9.496094 C 6.941406 9.808594 6.941406 10.191406 7.121094 10.503906 C 7.304688 10.816406 7.640625 11.003906 8 11 L 19 11 C 19.359375 11.003906 19.695312 10.816406 19.878906 10.503906 C 20.058594 10.191406 20.058594 9.808594 19.878906 9.496094 C 19.695312 9.183594 19.359375 8.996094 19 9 Z M 31 9 C 30.640625 8.996094 30.304688 9.183594 30.121094 9.496094 C 29.941406 9.808594 29.941406 10.191406 30.121094 10.503906 C 30.304688 10.816406 30.640625 11.003906 31 11 L 42 11 C 42.359375 11.003906 42.695312 10.816406 42.878906 10.503906 C 43.058594 10.191406 43.058594 9.808594 42.878906 9.496094 C 42.695312 9.183594 42.359375 8.996094 42 9 Z M 8 13 C 7.640625 12.996094 7.304688 13.183594 7.121094 13.496094 C 6.941406 13.808594 6.941406 14.191406 7.121094 14.503906 C 7.304688 14.816406 7.640625 15.003906 8 15 L 19 15 C 19.359375 15.003906 19.695312 14.816406 19.878906 14.503906 C 20.058594 14.191406 20.058594 13.808594 19.878906 13.496094 C 19.695312 13.183594 19.359375 12.996094 19 13 Z M 31 13 C 30.640625 12.996094 30.304688 13.183594 30.121094 13.496094 C 29.941406 13.808594 29.941406 14.191406 30.121094 14.503906 C 30.304688 14.816406 30.640625 15.003906 31 15 L 42 15 C 42.359375 15.003906 42.695312 14.816406 42.878906 14.503906 C 43.058594 14.191406 43.058594 13.808594 42.878906 13.496094 C 42.695312 13.183594 42.359375 12.996094 42 13 Z M 8 17 C 7.640625 16.996094 7.304688 17.183594 7.121094 17.496094 C 6.941406 17.808594 6.941406 18.191406 7.121094 18.503906 C 7.304688 18.816406 7.640625 19.003906 8 19 L 19 19 C 19.359375 19.003906 19.695312 18.816406 19.878906 18.503906 C 20.058594 18.191406 20.058594 17.808594 19.878906 17.496094 C 19.695312 17.183594 19.359375 16.996094 19 17 Z M 31 17 C 30.640625 16.996094 30.304688 17.183594 30.121094 17.496094 C 29.941406 17.808594 29.941406 18.191406 30.121094 18.503906 C 30.304688 18.816406 30.640625 19.003906 31 19 L 42 19 C 42.359375 19.003906 42.695312 18.816406 42.878906 18.503906 C 43.058594 18.191406 43.058594 17.808594 42.878906 17.496094 C 42.695312 17.183594 42.359375 16.996094 42 17 Z M 8 21 C 7.640625 20.996094 7.304688 21.183594 7.121094 21.496094 C 6.941406 21.808594 6.941406 22.191406 7.121094 22.503906 C 7.304688 22.816406 7.640625 23.003906 8 23 L 19 23 C 19.359375 23.003906 19.695312 22.816406 19.878906 22.503906 C 20.058594 22.191406 20.058594 21.808594 19.878906 21.496094 C 19.695312 21.183594 19.359375 20.996094 19 21 Z M 34 22 C 32.355469 22 31 23.355469 31 25 L 31 37.257812 L 29.9375 36.195312 C 28.777344 35.035156 26.859375 35.035156 25.695312 36.195312 C 24.535156 37.359375 24.535156 39.277344 25.695312 40.4375 L 31.292969 46.035156 C 31.296875 46.039062 31.296875 46.039062 31.300781 46.042969 C 31.300781 46.042969 32.039062 46.765625 33.082031 47.484375 C 34.125 48.207031 35.472656 49 37 49 L 41.777344 49 C 45.578125 49 48.703125 46.039062 48.972656 42.300781 C 48.980469 42.257812 49 42.175781 49 42 L 49 35 C 49 33.355469 47.644531 32 46 32 C 45.394531 32 44.910156 32.335938 44.4375 32.652344 C 43.921875 31.730469 43.121094 31 42 31 C 41.394531 31 40.910156 31.335938 40.4375 31.652344 C 39.921875 30.730469 39.121094 30 38 30 C 37.613281 30 37.34375 30.277344 37 30.414062 L 37 25 C 37 23.355469 35.644531 22 34 22 Z M 34 24 C 34.566406 24 35 24.433594 35 25 L 35 34 C 34.996094 34.359375 35.183594 34.695312 35.496094 34.878906 C 35.808594 35.058594 36.191406 35.058594 36.503906 34.878906 C 36.816406 34.695312 37.003906 34.359375 37 34 L 37 33.011719 C 37 33.007812 37 33.003906 37 33 C 37 32.433594 37.433594 32 38 32 C 38.566406 32 39 32.433594 39 33 L 39 34 C 39.007812 34.546875 39.453125 34.984375 40 34.984375 C 40.546875 34.984375 40.992188 34.546875 41 34 C 41 33.433594 41.433594 33 42 33 C 42.566406 33 43 33.433594 43 34 L 43 35 C 43.007812 35.546875 43.453125 35.984375 44 35.984375 C 44.546875 35.984375 44.992188 35.546875 45 35 C 45 34.433594 45.433594 34 46 34 C 46.566406 34 47 34.433594 47 35 L 47 42 C 47 41.953125 47 41.980469 46.984375 42.101562 C 46.980469 42.117188 46.980469 42.136719 46.976562 42.152344 C 46.785156 44.867188 44.546875 47 41.777344 47 L 37 47 C 36.261719 47 35.109375 46.457031 34.21875 45.84375 C 33.332031 45.230469 32.714844 44.628906 32.707031 44.621094 L 27.113281 39.027344 C 26.710938 38.625 26.710938 38.011719 27.113281 37.613281 C 27.511719 37.210938 28.125 37.210938 28.523438 37.613281 L 31.292969 40.378906 C 31.578125 40.664062 32.007812 40.75 32.382812 40.59375 C 32.757812 40.441406 33 40.078125 33 39.671875 L 33 25 C 33 24.433594 33.433594 24 34 24 Z M 8 25 C 7.640625 24.996094 7.304688 25.183594 7.121094 25.496094 C 6.941406 25.808594 6.941406 26.191406 7.121094 26.503906 C 7.304688 26.816406 7.640625 27.003906 8 27 L 19 27 C 19.359375 27.003906 19.695312 26.816406 19.878906 26.503906 C 20.058594 26.191406 20.058594 25.808594 19.878906 25.496094 C 19.695312 25.183594 19.359375 24.996094 19 25 Z M 8 25 "/>
</g>
</svg>
