<?xml version="1.0" encoding="UTF-8"?>
<svg xmlns="http://www.w3.org/2000/svg" xmlns:xlink="http://www.w3.org/1999/xlink" viewBox="0 0 50 50" width="50px" height="50px">
<g id="surface111814547">
<path style=" stroke:none;fill-rule:nonzero;fill:rgb(50.196081%,73.725492%,52.156866%);fill-opacity:1;" d="M 1 10 L 1 20 C 1 22.546875 1.949219 23.996094 2.824219 24.800781 C 3.261719 25.203125 3.640625 25.46875 3.820312 25.648438 C 4 25.828125 4 25.816406 4 26 L 4 36 C 4 38.160156 4.078125 39.449219 4.410156 40.417969 C 4.574219 40.902344 4.839844 41.34375 5.253906 41.632812 C 5.664062 41.921875 6.140625 42 6.527344 42 C 6.949219 42 7.457031 41.875 7.851562 41.550781 C 8.242188 41.230469 8.472656 40.785156 8.625 40.296875 C 8.925781 39.320312 9 38.03125 9 36 L 9 26 C 9 25.816406 8.984375 25.871094 9.152344 25.714844 C 9.316406 25.558594 9.699219 25.316406 10.148438 24.9375 C 11.039062 24.183594 12 22.753906 12 20.167969 L 12 10 Z M 42.957031 10 C 42.421875 10.027344 42 10.464844 42 11 L 42 35.167969 C 42 37.203125 42.089844 38.703125 42.398438 39.84375 C 42.554688 40.417969 42.765625 40.914062 43.144531 41.324219 C 43.519531 41.738281 44.109375 42 44.667969 42 C 45.445312 42 46.027344 41.398438 46.296875 40.863281 C 46.566406 40.324219 46.695312 39.734375 46.792969 39.085938 C 46.984375 37.785156 47 36.261719 47 35 L 47 28 C 47 27.066406 47.417969 26.109375 47.925781 24.84375 C 48.4375 23.578125 49 22.015625 49 20 C 49 18.800781 48.800781 16.964844 48.015625 15.082031 C 47.230469 13.199219 45.8125 11.265625 43.441406 10.101562 C 43.289062 10.027344 43.121094 9.992188 42.957031 10.003906 Z M 26.5 11 C 18.484375 11 12 17.484375 12 25.5 C 12 33.515625 18.484375 40 26.5 40 C 34.515625 40 41 33.515625 41 25.5 C 41 17.484375 34.515625 11 26.5 11 Z M 3 12 L 4 12 L 4 19 C 3.996094 19.359375 4.183594 19.695312 4.496094 19.878906 C 4.808594 20.058594 5.191406 20.058594 5.503906 19.878906 C 5.816406 19.695312 6.003906 19.359375 6 19 L 6 12 L 7 12 L 7 19 C 6.996094 19.359375 7.183594 19.695312 7.496094 19.878906 C 7.808594 20.058594 8.191406 20.058594 8.503906 19.878906 C 8.816406 19.695312 9.003906 19.359375 9 19 L 9 12 L 10 12 L 10 20.167969 C 10 22.332031 9.460938 22.902344 8.851562 23.414062 C 8.550781 23.671875 8.183594 23.882812 7.785156 24.25 C 7.390625 24.621094 7 25.269531 7 26 L 7 36 C 7 37.96875 6.878906 39.179688 6.714844 39.703125 C 6.632812 39.964844 6.5625 40.019531 6.574219 40.011719 C 6.589844 40 6.644531 40 6.523438 40 C 6.371094 40 6.382812 39.984375 6.40625 40 C 6.429688 40.015625 6.382812 40.003906 6.300781 39.769531 C 6.140625 39.300781 6 38.089844 6 36 L 6 26 C 6 25.269531 5.625 24.628906 5.242188 24.242188 C 4.859375 23.855469 4.488281 23.613281 4.175781 23.324219 C 3.550781 22.753906 3 22.121094 3 20 Z M 26.5 13 C 33.445312 13 39 18.554688 39 25.5 C 39 32.445312 33.445312 38 26.5 38 C 19.554688 38 14 32.445312 14 25.5 C 14 18.554688 19.554688 13 26.5 13 Z M 44 13.003906 C 44.960938 13.839844 45.726562 14.792969 46.171875 15.855469 C 46.824219 17.410156 47 19.03125 47 20 C 47 21.652344 46.5625 22.882812 46.074219 24.09375 C 45.582031 25.304688 45 26.515625 45 28 L 45 35 C 45 36.238281 44.972656 37.714844 44.8125 38.792969 C 44.742188 39.261719 44.636719 39.589844 44.546875 39.816406 C 44.484375 39.714844 44.410156 39.613281 44.332031 39.320312 C 44.121094 38.542969 44 37.132812 44 35.167969 Z M 26.011719 16.011719 C 25.988281 16.011719 25.964844 16.015625 25.945312 16.015625 C 20.949219 16.300781 17 20.441406 17 25.5 C 17 30.746094 21.253906 35 26.5 35 C 31.558594 35 35.699219 31.050781 35.984375 26.054688 C 36.015625 25.695312 35.847656 25.34375 35.542969 25.140625 C 35.242188 24.9375 34.851562 24.914062 34.527344 25.082031 C 34.207031 25.25 34 25.578125 33.988281 25.945312 C 33.761719 29.902344 30.527344 33 26.5 33 C 22.328125 33 19 29.671875 19 25.5 C 19 21.472656 22.097656 18.238281 26.058594 18.011719 C 26.59375 17.976562 27.003906 17.527344 26.992188 16.992188 C 26.980469 16.453125 26.546875 16.023438 26.011719 16.011719 Z M 26.011719 16.011719 "/>
</g>
</svg>
