<?xml version="1.0" encoding="UTF-8"?>
<svg xmlns="http://www.w3.org/2000/svg" xmlns:xlink="http://www.w3.org/1999/xlink" viewBox="0 0 50 50" width="50px" height="50px">
<g id="surface111809980">
<path style=" stroke:none;fill-rule:nonzero;fill:rgb(92.941177%,38.82353%,9.803922%);fill-opacity:1;" d="M 34.339844 0 C 34.144531 0 33.953125 0.0585938 33.789062 0.164062 C 33.566406 0.3125 32.496094 0.792969 31.199219 1.289062 C 29.90625 1.78125 28.316406 2.351562 26.742188 2.914062 C 25.167969 3.472656 23.613281 4.027344 22.375 4.507812 C 21.753906 4.746094 21.210938 4.960938 20.773438 5.15625 C 20.335938 5.355469 20.046875 5.464844 19.699219 5.769531 C 19.257812 6.152344 18.839844 6.707031 18.273438 7.488281 C 17.707031 8.269531 17.058594 9.226562 16.445312 10.214844 C 15.828125 11.203125 15.242188 12.21875 14.796875 13.125 C 14.351562 14.035156 14.003906 14.738281 14.003906 15.585938 C 14.003906 15.957031 14.058594 16.042969 14.128906 16.3125 C 14.195312 16.578125 14.285156 16.90625 14.40625 17.296875 C 14.640625 18.070312 14.972656 19.078125 15.375 20.179688 C 16.058594 22.070312 16.941406 24.210938 17.898438 26 L 17.003906 26 C 16.453125 26 16.003906 26.449219 16.003906 27 L 16.003906 35 C 16.003906 35.550781 16.453125 36 17.003906 36 L 32.003906 36 C 32.554688 36 33.003906 35.550781 33.003906 35 L 33.003906 27 C 33.003906 26.449219 32.554688 26 32.003906 26 L 31.625 26 C 32.28125 25.710938 33.214844 25.351562 34.304688 24.875 C 35.988281 24.132812 37.996094 23.023438 39.796875 21.035156 C 41.660156 18.972656 42.503906 16.050781 43.386719 13.410156 C 44.269531 10.769531 45.210938 8.46875 46.582031 7.503906 C 46.984375 7.21875 47.121094 6.675781 46.898438 6.234375 C 45.742188 3.949219 43.253906 2.488281 40.785156 1.496094 C 38.3125 0.5 35.867188 0 34.339844 0 Z M 34.476562 2.019531 C 35.554688 2.042969 37.859375 2.472656 40.035156 3.351562 C 42.011719 4.144531 43.703125 5.335938 44.636719 6.628906 C 43.078125 8.199219 42.257812 10.480469 41.492188 12.773438 C 40.597656 15.449219 39.722656 18.132812 38.3125 19.695312 C 36.753906 21.414062 35.046875 22.363281 33.5 23.042969 C 31.949219 23.726562 30.59375 24.03125 29.5625 24.855469 L 29.558594 24.859375 C 28.683594 25.527344 27.679688 26.550781 26.542969 27.417969 C 25.398438 28.289062 24.175781 28.921875 23.152344 28.921875 C 22.03125 28.921875 20.65625 27.8125 20.554688 26.703125 L 20.554688 26.699219 C 20.480469 25.84375 20.785156 25.042969 21.378906 24.242188 C 21.972656 23.441406 22.855469 22.683594 23.769531 22.054688 C 25.601562 20.796875 27.503906 20.066406 27.503906 20.066406 C 27.6875 19.992188 27.847656 19.871094 27.964844 19.710938 C 27.964844 19.710938 28.773438 18.566406 29.714844 17.324219 C 30.183594 16.699219 30.683594 16.054688 31.121094 15.527344 C 31.558594 14.996094 31.980469 14.558594 32.085938 14.476562 C 32.453125 14.179688 32.566406 13.667969 32.359375 13.246094 C 32.148438 12.824219 31.671875 12.605469 31.214844 12.722656 C 31.214844 12.722656 30.179688 12.988281 28.941406 13.042969 C 27.699219 13.097656 26.359375 12.871094 25.757812 12.304688 C 25.527344 12.085938 25.207031 11.992188 24.894531 12.046875 C 24.582031 12.101562 24.316406 12.300781 24.175781 12.585938 C 24.175781 12.585938 22.582031 15.417969 20.621094 15.847656 C 20.289062 15.917969 20.015625 16.15625 19.898438 16.472656 C 19.78125 16.789062 19.832031 17.148438 20.035156 17.421875 C 20.035156 17.421875 20.65625 18.199219 20.796875 20.03125 C 20.8125 20.246094 20.898438 20.449219 21.042969 20.613281 C 21.042969 20.613281 21.191406 20.78125 21.363281 21.019531 C 21.464844 21.164062 21.507812 21.261719 21.574219 21.390625 C 20.941406 21.914062 20.269531 22.382812 19.773438 23.054688 C 19.558594 23.339844 19.433594 23.683594 19.265625 24.003906 C 18.550781 22.53125 17.800781 21.011719 17.253906 19.5 C 16.863281 18.429688 16.542969 17.453125 16.320312 16.71875 C 16.210938 16.347656 16.121094 16.042969 16.066406 15.824219 C 16.039062 15.714844 16.023438 15.609375 16.015625 15.546875 C 16.03125 15.476562 16.210938 14.785156 16.59375 14.007812 C 16.988281 13.195312 17.546875 12.222656 18.140625 11.273438 C 18.730469 10.324219 19.355469 9.398438 19.890625 8.664062 C 20.425781 7.929688 20.9375 7.34375 21.015625 7.277344 C 20.925781 7.351562 21.214844 7.152344 21.59375 6.984375 C 21.972656 6.8125 22.488281 6.601562 23.09375 6.371094 C 24.296875 5.910156 25.839844 5.355469 27.414062 4.796875 C 28.988281 4.234375 30.585938 3.664062 31.917969 3.15625 C 33.058594 2.71875 33.832031 2.382812 34.476562 2.019531 Z M 25.445312 14.289062 C 26.585938 14.863281 27.847656 15.082031 28.960938 15.039062 C 28.679688 15.398438 28.394531 15.75 28.117188 16.117188 C 27.230469 17.292969 26.578125 18.214844 26.46875 18.367188 C 26.214844 18.46875 24.773438 19.125 23.136719 20.140625 C 23.082031 20.058594 23.039062 19.925781 22.988281 19.851562 C 22.835938 19.644531 22.777344 19.582031 22.699219 19.484375 C 22.582031 18.605469 22.390625 17.820312 22.171875 17.289062 C 24.054688 16.398438 24.988281 15.105469 25.445312 14.289062 Z M 18.003906 28 L 18.882812 28 C 19.550781 29.742188 21.296875 30.925781 23.152344 30.925781 C 24.921875 30.925781 26.460938 29.992188 27.753906 29.011719 C 28.195312 28.675781 28.597656 28.332031 28.984375 28 C 28.992188 28 28.996094 28 29.003906 28 L 31.003906 28 L 31.003906 34 L 18.003906 34 Z M 11.730469 36.300781 C 10.476562 36.285156 9.222656 36.523438 8.042969 37.011719 C 8.027344 37.019531 8.015625 37.023438 8 37.03125 L 3.582031 39.09375 C 3.246094 39.238281 3.015625 39.550781 2.980469 39.914062 C 2.945312 40.277344 3.109375 40.632812 3.410156 40.835938 C 3.710938 41.042969 4.101562 41.070312 4.425781 40.90625 L 8.8125 38.859375 C 10.671875 38.09375 12.761719 38.113281 14.605469 38.917969 C 14.632812 38.925781 14.660156 38.9375 14.6875 38.949219 C 16.167969 39.441406 18.410156 40.238281 20.300781 40.921875 C 21.246094 41.265625 22.105469 41.578125 22.738281 41.816406 C 23.054688 41.933594 23.316406 42.03125 23.5 42.105469 C 23.585938 42.136719 23.652344 42.164062 23.699219 42.183594 C 23.9375 42.324219 24.097656 42.5625 24.097656 42.859375 C 24.097656 43.3125 23.746094 43.660156 23.277344 43.660156 C 23.207031 43.660156 23.148438 43.65625 23.09375 43.644531 C 23.089844 43.640625 23.089844 43.640625 23.085938 43.640625 C 23.105469 43.644531 22.507812 43.480469 21.8125 43.277344 C 21.117188 43.074219 20.226562 42.8125 19.355469 42.558594 C 17.609375 42.042969 15.925781 41.542969 15.925781 41.542969 C 15.578125 41.425781 15.199219 41.507812 14.929688 41.753906 C 14.660156 42.003906 14.550781 42.378906 14.636719 42.734375 C 14.726562 43.085938 15.003906 43.363281 15.355469 43.457031 C 15.355469 43.457031 17.042969 43.960938 18.789062 44.476562 C 19.664062 44.730469 20.550781 44.992188 21.25 45.199219 C 21.953125 45.402344 22.371094 45.527344 22.625 45.589844 C 22.839844 45.640625 23.058594 45.664062 23.277344 45.664062 C 24.816406 45.664062 26.09375 44.402344 26.09375 42.859375 C 26.09375 42.792969 26.085938 42.730469 26.082031 42.667969 C 27.203125 42.257812 32.445312 40.347656 34.660156 39.277344 C 34.816406 39.203125 35.207031 39.132812 35.523438 39.183594 C 35.839844 39.234375 36.050781 39.359375 36.160156 39.535156 C 36.160156 39.535156 36.160156 39.535156 36.160156 39.539062 C 36.453125 39.992188 36.332031 40.558594 35.886719 40.875 L 23.203125 47.378906 C 23.15625 47.402344 23.105469 47.433594 23.058594 47.46875 C 22.351562 48 21.414062 48.144531 20.574219 47.851562 L 12.113281 44.875 C 10.070312 44.039062 7.734375 44.316406 5.945312 45.617188 L 3.410156 47.460938 C 3.113281 47.667969 2.949219 48.019531 2.980469 48.382812 C 3.015625 48.742188 3.246094 49.058594 3.578125 49.203125 C 3.914062 49.347656 4.300781 49.300781 4.585938 49.078125 L 7.125 47.234375 C 8.347656 46.34375 9.953125 46.148438 11.359375 46.726562 C 11.371094 46.730469 11.386719 46.738281 11.40625 46.746094 L 19.910156 49.734375 C 21.335938 50.234375 22.910156 50.007812 24.140625 49.144531 L 36.902344 42.601562 C 36.9375 42.582031 36.976562 42.5625 37.011719 42.539062 C 38.332031 41.632812 38.707031 39.816406 37.851562 38.464844 C 37.367188 37.703125 36.574219 37.332031 35.847656 37.210938 C 35.121094 37.089844 34.414062 37.175781 33.792969 37.476562 C 31.84375 38.414062 26.132812 40.515625 25.226562 40.851562 C 25.0625 40.695312 24.886719 40.554688 24.695312 40.445312 C 24.695312 40.441406 24.695312 40.441406 24.695312 40.441406 C 24.523438 40.34375 24.535156 40.363281 24.46875 40.335938 C 24.398438 40.308594 24.320312 40.277344 24.222656 40.242188 C 24.023438 40.164062 23.757812 40.0625 23.4375 39.945312 C 22.796875 39.703125 21.933594 39.386719 20.984375 39.042969 C 19.082031 38.351562 16.839844 37.558594 15.320312 37.050781 C 14.171875 36.5625 12.953125 36.308594 11.730469 36.300781 Z M 11.730469 36.300781 "/>
</g>
</svg>
