<?xml version="1.0" encoding="UTF-8"?>
<svg xmlns="http://www.w3.org/2000/svg" xmlns:xlink="http://www.w3.org/1999/xlink" viewBox="0 0 50 50" width="50px" height="50px">
<g id="surface112085047">
<path style=" stroke:none;fill-rule:nonzero;fill:rgb(50.196081%,30.588236%,92.156863%);fill-opacity:1;" d="M 4 5 L 4 7 L 45 7 L 45 39 L 19 39 L 19 41 L 46 41 C 46.566406 41 47 41.433594 47 42 L 47 43 L 19 43 L 19 45 L 48 45 C 48.550781 45 49 44.550781 49 44 L 49 42 C 49 40.742188 48.105469 39.859375 47 39.417969 L 47 6 C 47 5.449219 46.550781 5 46 5 Z M 9 11 C 5.144531 11 2 14.144531 2 18 C 2 21.855469 5.144531 25 9 25 C 12.855469 25 16 21.855469 16 18 C 16 14.144531 12.855469 11 9 11 Z M 20 11 L 20 13 L 32 13 L 32 11 Z M 35 11 L 35 13 L 42 13 L 42 11 Z M 9 13 C 11.773438 13 14 15.226562 14 18 C 14 20.773438 11.773438 23 9 23 C 6.226562 23 4 20.773438 4 18 C 4 15.226562 6.226562 13 9 13 Z M 20 16 L 20 18 L 42 18 L 42 16 Z M 28.363281 21.742188 C 28.136719 21.738281 27.917969 21.757812 27.699219 21.792969 C 26.820312 21.949219 26.003906 22.4375 25.464844 23.222656 L 21.605469 28.8125 L 17.972656 27.601562 C 16.773438 27.203125 15.515625 27 14.253906 27 L 7 27 C 3.699219 27 1 29.699219 1 33 L 1 45 L 3 45 L 3 33 C 3 30.78125 4.78125 29 7 29 L 14.253906 29 C 15.300781 29 16.34375 29.167969 17.339844 29.5 L 21.683594 30.949219 C 22.105469 31.089844 22.570312 30.933594 22.824219 30.566406 L 27.109375 24.355469 C 27.570312 23.6875 28.460938 23.53125 29.125 24 C 29.125 24.003906 29.125 24.003906 29.125 24.003906 C 29.769531 24.464844 29.925781 25.332031 29.476562 25.984375 L 23.804688 34.242188 C 23.554688 34.601562 23.117188 34.757812 22.703125 34.636719 L 16.277344 32.78125 C 15.976562 32.695312 15.648438 32.757812 15.398438 32.945312 C 15.148438 33.132812 15 33.429688 15 33.742188 L 15 45 L 17 45 L 17 35.074219 L 22.148438 36.558594 C 23.382812 36.917969 24.722656 36.4375 25.453125 35.375 L 31.125 27.117188 C 32.179688 25.582031 31.800781 23.453125 30.285156 22.371094 C 29.703125 21.957031 29.03125 21.753906 28.363281 21.742188 Z M 28.363281 21.742188 "/>
</g>
</svg>
