<?xml version="1.0" encoding="UTF-8"?>
<svg xmlns="http://www.w3.org/2000/svg" xmlns:xlink="http://www.w3.org/1999/xlink" viewBox="0 0 50 50" width="50px" height="50px">
<g id="surface19678447">
<path style=" stroke:none;fill-rule:nonzero;fill:rgb(50.196081%,30.588236%,92.156863%);fill-opacity:1;" d="M 28.5 4 C 26.027344 4 24 6.027344 24 8.5 C 24 10.972656 26.027344 13 28.5 13 C 30.972656 13 33 10.972656 33 8.5 C 33 6.027344 30.972656 4 28.5 4 Z M 28.5 6 C 29.890625 6 31 7.109375 31 8.5 C 31 9.890625 29.890625 11 28.5 11 C 27.109375 11 26 9.890625 26 8.5 C 26 7.109375 27.109375 6 28.5 6 Z M 21.125 12 C 18.5625 12 15.929688 13.722656 13.570312 15.664062 C 11.207031 17.601562 9.1875 19.808594 8.1875 21.210938 C 7.214844 22.570312 7.019531 23.828125 7.007812 24.882812 C 7 24.929688 7 24.980469 7 25.03125 L 7 33.140625 L 1.921875 40.148438 L 2.027344 40.027344 C 0.667969 41.382812 0.667969 43.617188 2.027344 44.976562 C 2.703125 45.65625 3.605469 46 4.5 46 C 5.394531 46 6.296875 45.65625 6.976562 44.976562 C 7.007812 44.941406 7.039062 44.90625 7.070312 44.867188 L 13.070312 36.867188 L 12.976562 36.976562 C 13.632812 36.320312 14 35.429688 14 34.5 L 14 32.949219 L 17 35.144531 L 17 42.5 C 17 44.421875 18.578125 46 20.5 46 C 22.421875 46 24 44.421875 24 42.5 L 24 33.5 C 24 32.492188 23.5625 31.53125 22.808594 30.867188 L 22.878906 30.9375 L 17.382812 25.023438 C 18.3125 23.976562 19.28125 22.964844 20.105469 22.28125 C 20.585938 21.882812 21.007812 21.574219 21.351562 21.347656 L 26.328125 30.367188 L 26.308594 30.324219 C 26.824219 31.378906 27.890625 32.003906 29.003906 32.003906 C 29.148438 32.003906 29.296875 31.976562 29.445312 31.957031 L 35.339844 43.660156 L 35.339844 43.664062 C 35.34375 43.675781 35.351562 43.6875 35.355469 43.699219 L 35.359375 43.699219 C 35.359375 43.703125 35.359375 43.707031 35.363281 43.710938 C 35.386719 43.765625 35.421875 43.820312 35.457031 43.871094 C 35.457031 43.875 35.460938 43.875 35.460938 43.878906 C 36.25 45.289062 37.636719 46 39 46 C 41.199219 46 43 44.199219 43 42 C 43.003906 41.730469 42.898438 41.46875 42.707031 41.277344 C 42.515625 41.085938 42.253906 40.980469 41.984375 40.988281 C 41.433594 40.996094 40.992188 41.449219 41 42 C 41 43.117188 40.117188 44 39 44 C 38.171875 44 37.625 43.765625 37.144531 42.804688 C 37.144531 42.800781 37.144531 42.800781 37.144531 42.800781 L 37.136719 42.785156 L 31.210938 31.023438 C 32.011719 30.136719 32.246094 28.816406 31.695312 27.6875 L 25.203125 14.316406 L 25.257812 14.453125 C 25.257812 14.453125 25.023438 13.746094 24.386719 13.148438 C 23.746094 12.550781 22.660156 12 21.128906 12 Z M 21.125 14 C 22.21875 14 22.71875 14.328125 23.011719 14.605469 C 23.308594 14.882812 23.351562 15.054688 23.351562 15.054688 C 23.363281 15.101562 23.382812 15.144531 23.40625 15.1875 L 29.898438 28.5625 C 30.148438 29.070312 29.945312 29.652344 29.441406 29.902344 C 29.296875 29.972656 29.148438 30.003906 29.003906 30.003906 C 28.632812 30.003906 28.277344 29.808594 28.101562 29.445312 C 28.09375 29.429688 28.085938 29.417969 28.082031 29.402344 L 22.625 19.515625 C 22.40625 19.121094 21.953125 18.921875 21.515625 19.027344 C 21.050781 19.140625 20.75 19.339844 20.316406 19.625 C 19.882812 19.910156 19.378906 20.285156 18.828125 20.742188 C 17.726562 21.65625 16.433594 22.898438 15.230469 24.363281 C 14.910156 24.75 14.925781 25.3125 15.269531 25.679688 L 21.414062 32.296875 C 21.4375 32.324219 21.460938 32.347656 21.488281 32.367188 C 21.8125 32.65625 22 33.066406 22 33.5 L 22 42.5 C 22 43.339844 21.339844 44 20.5 44 C 19.660156 44 19 43.339844 19 42.5 L 19 34.632812 C 19 34.316406 18.847656 34.015625 18.589844 33.828125 L 13.636719 30.207031 C 13.621094 30.195312 13.605469 30.183594 13.589844 30.171875 C 13.578125 30.164062 13.570312 30.15625 13.558594 30.148438 C 11.113281 28.5 9.992188 27.375 9.503906 26.636719 C 9.03125 25.929688 9.0625 25.605469 9 24.960938 C 9.003906 24.058594 9.054688 23.433594 9.8125 22.375 C 9.8125 22.375 9.8125 22.375 9.8125 22.371094 C 10.640625 21.210938 12.625 19.027344 14.835938 17.207031 C 17.050781 15.390625 19.566406 14 21.125 14 Z M 9 29.089844 C 9.703125 29.785156 10.667969 30.570312 12 31.492188 L 12 34.5 C 12 34.898438 11.84375 35.28125 11.5625 35.5625 C 11.527344 35.59375 11.496094 35.628906 11.46875 35.667969 L 5.542969 43.566406 C 5.246094 43.855469 4.878906 44 4.5 44 C 4.113281 44 3.738281 43.859375 3.4375 43.5625 C 2.84375 42.964844 2.84375 42.035156 3.4375 41.441406 C 3.476562 41.402344 3.511719 41.363281 3.539062 41.320312 L 8.808594 34.054688 C 8.933594 33.882812 9 33.675781 9 33.464844 Z M 47 42 C 45.894531 42 45 42.894531 45 44 C 45 45.105469 45.894531 46 47 46 C 48.105469 46 49 45.105469 49 44 C 49 42.894531 48.105469 42 47 42 Z M 47 42 "/>
</g>
</svg>
