<?xml version="1.0" encoding="UTF-8"?>
<svg xmlns="http://www.w3.org/2000/svg" xmlns:xlink="http://www.w3.org/1999/xlink" viewBox="0 0 50 50" width="50px" height="50px">
<g id="surface19683886">
<path style=" stroke:none;fill-rule:nonzero;fill:rgb(100%,33.333334%,41.568628%);fill-opacity:1;" d="M 10.523438 4 C 5.226562 4 1 8.066406 1 13.050781 C 1 17.585938 4.980469 22.300781 8.792969 26.101562 C 12.605469 29.902344 16.40625 32.703125 16.40625 32.703125 L 17 33.140625 L 17.59375 32.707031 C 17.59375 32.707031 19.246094 31.476562 21.421875 29.605469 C 21.550781 30.027344 21.699219 30.449219 21.878906 30.878906 C 21.859375 30.925781 21.84375 30.972656 21.832031 31.015625 C 21.359375 31.808594 21.007812 32.675781 21 33.613281 C 20.984375 35.128906 21.910156 36.601562 23.597656 37.46875 C 23.246094 38.203125 23 38.929688 23 39.625 C 22.996094 40.976562 23.683594 42.132812 24.628906 42.871094 C 25.4375 43.503906 26.4375 43.820312 27.464844 43.917969 C 28.082031 44.816406 28.882812 45.4375 29.671875 45.699219 C 30.613281 46.011719 31.492188 46 31.996094 46 C 33.273438 46 34.332031 45.425781 35 44.648438 C 35.667969 45.425781 36.726562 46 38.003906 46 C 38.507812 46 39.386719 46.011719 40.328125 45.699219 C 41.117188 45.4375 41.917969 44.816406 42.535156 43.917969 C 43.5625 43.820312 44.5625 43.503906 45.371094 42.871094 C 46.3125 42.128906 47 40.976562 46.996094 39.625 C 46.996094 38.929688 46.75 38.203125 46.398438 37.472656 C 48.089844 36.601562 49.015625 35.128906 49 33.613281 C 48.992188 32.644531 48.625 31.75 48.125 30.9375 C 48.824219 29.625 49 28.511719 49 27 C 49 23.210938 46.457031 20.558594 43.6875 20.15625 C 42.917969 18.519531 41.03125 17 38.003906 17 C 37.113281 17 36.121094 17.109375 35.292969 17.761719 C 35.1875 17.839844 35.089844 17.925781 35 18.019531 C 34.910156 17.925781 34.8125 17.839844 34.707031 17.761719 C 33.898438 17.125 32.941406 17.007812 32.066406 17 C 32.5 16.011719 32.820312 15.011719 32.941406 14.015625 L 32.941406 14.011719 C 32.980469 13.691406 33 13.359375 33 13.050781 C 33 8.066406 28.773438 4 23.476562 4 C 22.679688 4 21.890625 4.117188 21.144531 4.324219 C 19.5 4.785156 18.105469 5.734375 16.960938 6.8125 C 15.296875 5.261719 13.074219 4 10.523438 4 Z M 10.523438 6 C 12.703125 6 14.929688 7.261719 16.253906 8.742188 L 17 9.578125 L 17.746094 8.742188 C 18.710938 7.664062 20.15625 6.679688 21.683594 6.25 L 21.6875 6.25 C 22.261719 6.089844 22.875 6 23.476562 6 C 27.765625 6 31 9.191406 31 13.050781 C 31 13.273438 30.984375 13.542969 30.957031 13.769531 C 30.824219 14.863281 30.359375 16.089844 29.667969 17.359375 C 27.984375 17.902344 26.859375 18.992188 26.3125 20.15625 C 23.542969 20.558594 21.011719 23.210938 21 26.996094 C 21 27.097656 21.015625 27.207031 21.019531 27.3125 C 18.824219 29.261719 17.402344 30.308594 16.984375 30.617188 C 16.199219 30.019531 13.410156 27.878906 10.207031 24.6875 C 6.519531 21.007812 3 16.300781 3 13.050781 C 3 9.191406 6.234375 6 10.523438 6 Z M 31.996094 19 C 32.695312 19 33.203125 19.121094 33.476562 19.332031 C 33.75 19.546875 34 19.914062 34 21 L 34 42 C 34 42.398438 33.824219 42.949219 33.488281 43.339844 C 33.152344 43.730469 32.714844 44 31.996094 44 C 31.492188 44 30.867188 43.988281 30.304688 43.800781 C 29.742188 43.613281 29.261719 43.3125 28.878906 42.550781 C 28.710938 42.214844 28.363281 42 27.984375 42 C 27.210938 42 26.414062 41.730469 25.859375 41.296875 C 25.308594 40.863281 24.996094 40.332031 25 39.628906 C 25 39.628906 25 39.628906 25 39.625 C 25 39.09375 25.199219 38.414062 25.792969 37.582031 C 25.980469 37.316406 26.03125 36.976562 25.921875 36.671875 C 25.816406 36.363281 25.566406 36.128906 25.253906 36.039062 C 23.425781 35.519531 22.992188 34.640625 23 33.636719 C 23.003906 33.074219 23.238281 32.425781 23.621094 31.839844 C 23.632812 31.824219 23.722656 31.695312 24.078125 31.480469 C 24.457031 31.25 25.058594 31 26 31 C 27.519531 31 28.335938 31.75 28.335938 31.75 C 28.75 32.113281 29.382812 32.078125 29.75 31.664062 C 30.113281 31.25 30.078125 30.617188 29.664062 30.25 C 29.664062 30.25 28.230469 29 26 29 C 24.9375 29 24.09375 29.25 23.460938 29.550781 C 23.136719 28.628906 22.996094 27.777344 23 27.003906 C 23.011719 23.871094 25.316406 22 26.984375 22 C 27.425781 22 27.8125 21.710938 27.941406 21.289062 C 28.214844 20.386719 29.351562 19 31.996094 19 Z M 38.003906 19 C 40.648438 19 41.785156 20.386719 42.058594 21.289062 C 42.1875 21.710938 42.574219 22 43.015625 22 C 44.683594 22 47 23.871094 47 27 C 47 28.683594 47.054688 29.074219 46.261719 30.324219 C 46.222656 30.371094 46.183594 30.417969 46.152344 30.46875 C 46.152344 30.46875 45.996094 30.757812 45.367188 31.15625 C 44.738281 31.558594 43.695312 32 42 32 C 41.640625 31.996094 41.304688 32.183594 41.121094 32.496094 C 40.941406 32.808594 40.941406 33.191406 41.121094 33.503906 C 41.304688 33.816406 41.640625 34.003906 42 34 C 44.054688 34 45.511719 33.441406 46.445312 32.84375 C 46.570312 32.761719 46.667969 32.675781 46.777344 32.59375 C 46.917969 32.953125 46.996094 33.308594 47 33.636719 C 47.011719 34.640625 46.574219 35.519531 44.746094 36.039062 C 44.433594 36.128906 44.183594 36.363281 44.078125 36.667969 C 43.96875 36.972656 44.015625 37.3125 44.203125 37.578125 C 44.792969 38.414062 44.996094 39.097656 44.996094 39.625 C 44.996094 40.332031 44.683594 40.863281 44.136719 41.296875 C 43.585938 41.730469 42.789062 42 42.015625 42 C 42.007812 42 42.003906 42 42 42 C 41.25 42 40.878906 41.792969 40.558594 41.347656 C 40.238281 40.90625 40 40.117188 40 39 C 40.003906 38.730469 39.898438 38.46875 39.707031 38.277344 C 39.515625 38.085938 39.253906 37.980469 38.984375 37.984375 C 38.433594 37.996094 37.992188 38.449219 38 39 C 38 40.382812 38.261719 41.59375 38.941406 42.527344 C 39.265625 42.972656 39.695312 43.324219 40.191406 43.578125 C 40.035156 43.667969 39.871094 43.742188 39.695312 43.800781 C 39.132812 43.988281 38.507812 44 38.003906 44 C 37.285156 44 36.847656 43.730469 36.511719 43.339844 C 36.175781 42.949219 36 42.398438 36 42 L 36 21 C 36 19.914062 36.25 19.546875 36.523438 19.332031 C 36.796875 19.121094 37.304688 19 38.003906 19 Z M 31.03125 21.984375 C 30.558594 21.972656 30.136719 22.292969 30.03125 22.757812 C 30.03125 22.757812 29.96875 23.019531 29.6875 23.34375 C 29.402344 23.664062 28.984375 24 28 24 C 27.640625 23.996094 27.304688 24.183594 27.121094 24.496094 C 26.941406 24.808594 26.941406 25.191406 27.121094 25.503906 C 27.304688 25.816406 27.640625 26.003906 28 26 C 29.515625 26 30.597656 25.335938 31.1875 24.65625 C 31.78125 23.980469 31.96875 23.242188 31.96875 23.242188 C 32.050781 22.945312 31.988281 22.632812 31.804688 22.386719 C 31.621094 22.144531 31.339844 21.996094 31.03125 21.984375 Z M 38.984375 22.984375 C 38.433594 22.996094 37.992188 23.449219 38 24 C 38 24.980469 38.398438 26.15625 39.363281 27.183594 C 40.328125 28.210938 41.886719 29 44 29 C 44.359375 29.003906 44.695312 28.816406 44.878906 28.503906 C 45.058594 28.191406 45.058594 27.808594 44.878906 27.496094 C 44.695312 27.183594 44.359375 26.996094 44 27 C 42.363281 27 41.421875 26.457031 40.824219 25.816406 C 40.226562 25.175781 40 24.355469 40 24 C 40.003906 23.730469 39.898438 23.46875 39.707031 23.277344 C 39.515625 23.085938 39.253906 22.980469 38.984375 22.984375 Z M 29.019531 34 C 28.5 33.980469 28.054688 34.363281 27.996094 34.878906 C 27.933594 35.394531 28.277344 35.871094 28.78125 35.976562 C 29.488281 36.132812 29.703125 36.5625 29.875 37.242188 C 30.042969 37.921875 30 38.582031 30 39 C 29.996094 39.359375 30.183594 39.695312 30.496094 39.878906 C 30.808594 40.058594 31.191406 40.058594 31.503906 39.878906 C 31.816406 39.695312 32.003906 39.359375 32 39 C 32 38.917969 32.082031 37.828125 31.8125 36.757812 C 31.546875 35.6875 30.761719 34.367188 29.21875 34.023438 C 29.152344 34.007812 29.085938 34 29.019531 34 Z M 29.019531 34 "/>
</g>
</svg>
